<?xml version="1.0" encoding="UTF-8" standalone="no"?>
<!-- Created with Inkscape (http://www.inkscape.org/) -->

<svg
   xmlns:dc="http://purl.org/dc/elements/1.1/"
   xmlns:cc="http://creativecommons.org/ns#"
   xmlns:rdf="http://www.w3.org/1999/02/22-rdf-syntax-ns#"
   xmlns:svg="http://www.w3.org/2000/svg"
   xmlns="http://www.w3.org/2000/svg"
   xmlns:sodipodi="http://sodipodi.sourceforge.net/DTD/sodipodi-0.dtd"
   xmlns:inkscape="http://www.inkscape.org/namespaces/inkscape"
   id="svg5250"
   version="1.1"
   inkscape:version="0.91 r13725"
   width="718.4624"
   height="743.97107"
   viewBox="0 0 718.4624 743.97107"
   sodipodi:docname="acna.svg">
  <metadata
     id="metadata5256">
    <rdf:RDF>
      <cc:Work
         rdf:about="">
        <dc:format>image/svg+xml</dc:format>
        <dc:type
           rdf:resource="http://purl.org/dc/dcmitype/StillImage" />
        <dc:title></dc:title>
      </cc:Work>
    </rdf:RDF>
  </metadata>
  <defs
     id="defs5254" />
  <sodipodi:namedview
     pagecolor="#ffffff"
     bordercolor="#666666"
     borderopacity="1"
     objecttolerance="10"
     gridtolerance="10"
     guidetolerance="10"
     inkscape:pageopacity="0"
     inkscape:pageshadow="2"
     inkscape:window-width="1920"
     inkscape:window-height="1017"
     id="namedview5252"
     showgrid="false"
     fit-margin-top="0"
     fit-margin-left="0"
     fit-margin-right="0"
     fit-margin-bottom="0"
     inkscape:zoom="0.31593039"
     inkscape:cx="641.70763"
     inkscape:cy="373.63633"
     inkscape:window-x="-8"
     inkscape:window-y="-8"
     inkscape:window-maximized="1"
     inkscape:current-layer="svg5250" />
  <path
     style="fill:white"
     d="m 373.37235,743.325 c -0.19164,-0.93006 -1.38342,-16.00515 -1.3773,-17.42199 0.008,-1.90509 0.83319,-1.27644 1.92039,1.4634 1.41477,3.56526 2.42505,5.12412 4.99284,7.70385 3.8325,3.85032 8.28609,5.51019 12.97281,4.83501 2.7405,-0.3948 4.22664,-1.09029 5.81493,-2.72121 2.19501,-2.25396 2.76603,-5.32224 1.49517,-8.03406 -1.43274,-3.05727 -4.5324,-5.11476 -12.20328,-8.10033 -3.76497,-1.46535 -8.40486,-3.82164 -10.33911,-5.25054 -6.74964,-4.98627 -8.41521,-13.18902 -4.01571,-19.77732 4.20888,-6.30285 11.89296,-8.39502 20.55201,-5.59572 5.06097,1.63611 6.39651,1.38546 6.82281,-1.28046 0.2445,-1.52898 0.99291,-1.69485 1.22115,-0.27063 0.086,0.53625 0.36492,3 0.61998,5.475 0.25503,2.475 0.60669,5.67657 0.78144,7.11462 0.17475,1.43805 0.23142,2.7543 0.12594,2.925 -0.33909,0.54864 -1.10718,0.33123 -1.28829,-0.36462 -0.0966,-0.37125 -0.7767,-1.87647 -1.51131,-3.34494 -3.06966,-6.13644 -9.13155,-9.73647 -14.9616,-8.88546 -3.36309,0.49092 -5.42439,1.85043 -6.58515,4.34313 -1.79328,3.85104 0.17109,7.51407 5.43993,10.14399 0.825,0.41178 3.5925,1.59252 6.15,2.62386 9.61872,3.87885 13.42674,6.34086 15.71565,10.16076 1.4985,2.5008 2.05377,4.51323 2.06754,7.49328 0.0141,3.04497 -0.57408,5.27724 -1.96473,7.45677 -3.69741,5.7948 -9.66585,8.76498 -16.86846,8.39454 -1.65,-0.0849 -3.7425,-0.36975 -4.65,-0.63309 -6.60693,-1.91724 -6.73212,-1.89597 -9.72,1.65216 -0.63567,0.75486 -1.03767,0.71991 -1.20765,-0.105 z m -22.63702,-0.54759 c -5.34306,-0.29901 -9.89703,-0.61365 -10.11993,-0.69918 -0.22293,-0.0855 -0.32562,-0.36312 -0.22827,-0.61686 0.13089,-0.34107 0.6264,-0.46137 1.9002,-0.46137 3.06435,0 4.21266,-0.73128 4.21266,-2.68278 0,-0.99465 -3.06978,-9.807 -3.60147,-10.33869 -0.33867,-0.33867 -17.16981,-1.46679 -18.033,-1.2087 -0.26646,0.0797 -1.20279,1.66032 -2.08074,3.51252 -1.31664,2.7777 -1.61871,3.72207 -1.72428,5.39076 -0.1233,1.94883 -0.0937,2.05512 0.80532,2.89497 0.84948,0.79353 1.54161,1.04115 4.77909,1.70982 0.459,0.0948 0.66051,0.31815 0.59355,0.65781 -0.0783,0.39741 -0.37266,0.4986 -1.29492,0.44529 -0.65646,-0.0379 -4.23105,-0.21327 -7.94355,-0.38961 -3.7125,-0.17637 -6.91875,-0.37734 -7.125,-0.44661 -0.68559,-0.23028 -0.38892,-1.03032 0.45,-1.21344 1.77468,-0.38742 2.68248,-0.91239 4.125,-2.38548 1.78116,-1.8189 3.65328,-5.09409 9.60063,-16.79586 2.43192,-4.785 5.71431,-11.1975 7.29414,-14.25 1.57986,-3.0525 4.05366,-7.845 5.49738,-10.65 1.44369,-2.805 2.79999,-5.1 3.01395,-5.1 0.44304,0 1.14807,1.79157 10.2711,26.1 6.49131,17.29626 8.50443,22.16709 9.93898,24.04788 0.47328,0.62049 1.30023,1.17861 2.24187,1.51305 1.0257,0.36432 1.49196,0.6954 1.49196,1.05948 0,0.66006 -0.68859,0.65553 -14.06467,-0.093 z m -9.39414,-18.64059 c 0.054,-0.28227 -0.79623,-2.91477 -1.88949,-5.85 -3.84621,-10.32651 -3.894,-10.43682 -4.52151,-10.43682 -0.45426,0 -1.40625,1.59537 -4.38582,7.35 -2.0931,4.0425 -3.81435,7.72125 -3.825,8.175 -0.0162,0.69558 0.11004,0.83118 0.80562,0.86448 0.45375,0.0216 2.3775,0.13554 4.275,0.25296 1.8975,0.11742 4.79841,0.20091 6.44649,0.18552 2.5758,-0.024 3.01026,-0.10002 3.09471,-0.54114 z m 77.91604,14.98818 c -0.42225,-1.2777 -3.71202,-18.05544 -3.58167,-18.26637 0.38175,-0.61767 1.04067,-0.15846 1.60581,1.11909 2.40096,5.42784 7.30764,9.81096 12.73914,11.3799 2.35104,0.67911 6.26706,0.4854 8.63175,-0.42696 5.42622,-2.09352 7.28316,-8.27946 3.68631,-12.27999 -1.74054,-1.93593 -4.00851,-3.08487 -8.68857,-4.40166 -6.53967,-1.84002 -11.17404,-3.37401 -13.18692,-4.36497 -3.83172,-1.88634 -7.01295,-5.0904 -8.32428,-8.38404 -0.53736,-1.34961 -0.65985,-2.27811 -0.67287,-5.1 -0.0156,-3.38235 0.006,-3.4962 1.10898,-5.80593 0.83058,-1.73955 1.65474,-2.87886 3.15,-4.35462 2.304,-2.27391 4.28925,-3.366 7.69809,-4.23471 2.97999,-0.75942 5.87097,-0.75888 9.31179,0.003 3.78768,0.83733 5.06373,0.79431 5.84343,-0.19695 0.39,-0.49578 0.62178,-1.2309 0.62178,-1.97199 0,-0.95406 0.0989,-1.16247 0.5139,-1.08258 0.41007,0.079 0.86604,1.61415 2.25657,7.59702 2.09616,9.01878 2.04624,8.67195 1.26393,8.78514 -0.48324,0.0699 -0.76338,-0.23787 -1.3026,-1.43103 -1.74633,-3.864 -5.18439,-7.12455 -9.21375,-8.73798 -2.17056,-0.86913 -2.53206,-0.92454 -5.3517,-0.82017 -2.56596,0.095 -3.28404,0.23922 -4.74177,0.95244 -4.19214,2.05101 -5.65818,6.82965 -3.12174,10.17558 1.2222,1.61226 4.88952,3.50838 8.89716,4.60014 11.91516,3.24585 16.09326,5.01366 18.99165,8.03562 2.84313,2.96436 4.11315,6.14844 4.10202,10.28445 -0.0111,4.14156 -1.85622,8.05569 -5.26677,11.17275 -4.51569,4.12707 -10.59762,5.59569 -18.21606,4.3986 -1.78155,-0.27993 -3.64782,-0.41922 -4.14729,-0.30951 -1.13688,0.24969 -2.96355,1.82247 -2.96355,2.55165 0,1.01235 -1.3695,1.94217 -1.64277,1.11534 z m -151.80724,-6.82449 c -0.99,-0.3045 -4.1051,-1.22742 -6.92245,-2.05098 -2.81735,-0.82356 -6.25985,-1.84323 -7.65,-2.2659 -4.78703,-1.45554 -12.44232,-3.73182 -18.72755,-5.5686 -6.99532,-2.04429 -7.65,-2.27457 -7.65,-2.69088 0,-0.54213 0.4594,-0.57273 2.10474,-0.14022 2.10934,0.55446 3.67141,0.2943 4.94457,-0.82356 1.07868,-0.9471 1.76951,-2.8581 4.81171,-13.31037 1.56519,-5.37762 1.82176,-6.24963 5.25203,-17.85 2.66927,-9.02688 3.0875,-11.40981 2.23174,-12.71586 -0.61702,-0.94167 -2.57079,-2.13693 -3.96979,-2.42856 -0.71285,-0.14862 -0.975,-0.3669 -0.975,-0.81195 0,-0.7596 -1.08888,-1.02558 13.2,3.22434 12.97032,3.85779 13.13651,3.91554 12.65441,4.39764 -0.24917,0.24915 -0.88799,0.20385 -2.45359,-0.17403 -2.54365,-0.61395 -4.11002,-0.29262 -5.26503,1.08003 -0.72769,0.86481 -2.18919,5.19372 -5.09067,15.07839 -0.77492,2.64 -1.79196,6.0825 -2.26008,7.65 -3.00057,10.04748 -4.78504,16.68108 -4.78504,17.78799 0,2.40249 0.8147,2.97984 6.72721,4.76742 7.60556,2.29947 11.41496,1.96947 15.54094,-1.34625 1.24433,-0.99996 4.14147,-4.40718 5.48317,-6.44856 0.61651,-0.93801 1.01796,-1.26501 1.47308,-1.2 0.34408,0.0492 0.6256,0.1821 0.6256,0.29541 0,0.11328 -1.485,3.79038 -3.3,8.17131 -2.28388,5.51268 -3.43856,7.95939 -3.75,7.94607 -0.2475,-0.0105 -1.26,-0.26838 -2.25,-0.57288 z M 476.25,722.8149 c -8.86563,-1.34667 -16.0476,-6.72531 -19.98228,-14.9649 -2.03832,-4.26843 -2.67792,-6.77709 -2.86827,-11.25 -0.24252,-5.6991 1.06365,-10.5114 4.08834,-15.06258 3.93504,-5.92101 8.43558,-8.87757 17.86221,-11.73438 2.91846,-0.88446 10.77282,-0.93345 13.5,-0.0842 9.12618,2.84187 15.37614,9.55722 18.18363,19.53768 0.97509,3.46647 0.98289,10.02063 0.0162,13.59615 -2.66037,9.8394 -9.54888,16.218 -20.62239,19.09584 -2.904,0.75471 -8.03637,1.19163 -10.17738,0.8664 z m 10.66209,-3.71721 c 4.83939,-0.91776 8.22333,-4.14963 9.30108,-8.88309 0.48183,-2.11611 0.39108,-7.65561 -0.17364,-10.60209 -0.97944,-5.11008 -3.96621,-13.05153 -6.82848,-18.15591 -2.85546,-5.09223 -7.36596,-8.67885 -11.38653,-9.0543 -6.22689,-0.58149 -11.53932,3.46737 -12.85542,9.7977 -0.54576,2.62497 -0.16683,8.58123 0.77259,12.14481 3.94302,14.95698 11.28432,24.89535 18.49236,25.03428 0.59622,0.0114 1.80135,-0.11511 2.67804,-0.2814 z m -277.43623,-6.0924 c -8.18714,-3.8814 -10.87435,-5.28501 -10.875,-5.68029 -0.001,-0.64968 -0.0685,-0.65391 1.64158,0.10257 1.78525,0.78969 3.84879,0.85434 4.63247,0.14514 0.82331,-0.74508 1.1679,-2.71263 1.32754,-7.57998 0.097,-2.95836 0.0341,-4.38882 -0.20641,-4.68846 -0.19033,-0.23718 -1.69605,-1.04493 -3.34605,-1.79505 -1.65,-0.75009 -4.9575,-2.30106 -7.35,-3.44658 -2.3925,-1.14552 -4.62679,-2.16876 -4.96508,-2.27391 -0.74902,-0.23274 -1.89564,0.56958 -4.71896,3.30204 -2.25493,2.18235 -3.21596,3.76821 -3.21596,5.30682 0,1.28757 0.74953,2.24505 2.84755,3.63765 1.65188,1.09644 2.1391,1.96476 1.10245,1.96476 -0.3025,0 -0.6281,-0.0781 -0.72355,-0.17355 -0.0955,-0.0955 -3.25671,-1.63551 -7.025,-3.42234 -4.1896,-1.98657 -6.88913,-3.43434 -6.94844,-3.72642 -0.0819,-0.40356 0.25717,-0.47769 2.18497,-0.47769 3.46131,0 5.31956,-1.07346 12.17978,-7.03602 1.90726,-1.65768 4.59719,-3.95898 5.97762,-5.11398 2.89136,-2.4192 4.75825,-4.02333 7.50462,-6.44835 1.0725,-0.94701 3.84841,-3.32604 6.1687,-5.28675 2.32028,-1.96068 6.15363,-5.22603 8.51856,-7.25634 2.45286,-2.10576 4.4125,-3.57882 4.56205,-3.42927 0.14955,0.14955 0.13463,4.50585 -0.0347,10.14144 -0.89447,29.76471 -1.00178,42.51006 -0.37284,44.28447 0.21545,0.60786 0.92116,1.58352 1.56823,2.1681 0.74923,0.67689 1.11282,1.22883 1.00117,1.5198 -0.0964,0.25131 -0.26214,0.44805 -0.36823,0.43719 -0.1061,-0.0108 -5.08627,-2.33958 -11.06704,-5.175 z m -3.04129,-23.90859 c 0.10152,-1.5657 0.23652,-5.6142 0.3,-8.9967 0.11201,-5.96826 0.0977,-6.15225 -0.48458,-6.22665 -0.4016,-0.0513 -2.23673,1.32792 -5.55,4.17126 -8.31214,7.13316 -8.28005,7.10199 -7.91512,7.68813 0.37517,0.60258 12.34747,6.37734 13.01512,6.27777 0.34827,-0.052 0.49173,-0.7107 0.63458,-2.91381 z M 529.05,697.61364 c -5.48436,-1.38765 -9.58104,-3.72783 -13.35,-7.62603 -3.3426,-3.4572 -5.30469,-7.00197 -6.64323,-12.00177 -0.9753,-3.64308 -0.98223,-9.85851 -0.015,-13.48584 1.39398,-5.22789 4.04049,-9.69204 7.94385,-13.39986 4.68219,-4.44762 9.23634,-6.57018 16.91505,-7.8837 1.90833,-0.32646 3.78948,-0.80307 4.18032,-1.05918 1.28883,-0.84444 1.71486,-1.8174 1.50117,-3.42822 -0.15924,-1.20051 -0.10497,-1.49448 0.30501,-1.6518 0.27429,-0.10524 0.5286,-0.15444 0.56517,-0.10929 0.0896,0.11064 3.51627,6.11217 6.12762,10.73205 1.1658,2.0625 2.11974,3.91077 2.11986,4.1073 0,0.8856 -0.74784,0.60471 -2.61984,-0.98343 -6.5082,-5.52129 -14.71077,-6.07671 -21.27384,-1.44051 -2.36424,1.67013 -4.00194,3.7419 -5.25666,6.65007 -0.98517,2.28339 -0.99918,2.37885 -0.97788,6.66657 0.021,4.20678 0.058,4.45593 1.1292,7.56711 3.03927,8.82765 9.51333,17.07816 15.78591,20.11752 2.30592,1.11732 2.83542,1.25406 5.27337,1.36164 2.32209,0.10248 3.0237,0.0105 4.90038,-0.64209 3.17499,-1.10415 5.28726,-2.45325 7.87572,-5.03019 2.63319,-2.62143 4.25049,-5.55561 5.51514,-10.00569 0.41916,-1.47495 0.80475,-2.72436 0.85689,-2.7765 0.18798,-0.18798 1.69179,2.85315 1.69179,3.42126 0,0.92331 -1.3761,4.72242 -2.39442,6.6105 -2.70627,5.01771 -7.52112,9.1404 -14.03133,12.01428 -4.0548,1.78995 -6.09132,2.22012 -11.02425,2.32863 -2.475,0.0544 -4.77,0.0307 -5.1,-0.0528 z M 159.0492,688.40928 C 158.6743,687.9576 158.3655,684.8061 157.5,672.6 c -0.3334,-4.7025 -0.8754,-12.1275 -1.2044,-16.5 -0.329,-4.3725 -0.8065,-10.92 -1.061,-14.55 -0.6302,-8.98671 -0.6671,-9.01389 -4.5169,-3.32481 -2.5502,3.76863 -4.8317,7.05261 -8.6665,12.47481 -4.511,6.37815 -7.4377,10.8477 -7.8397,11.97252 -0.912,2.55138 -0.1534,5.24229 1.9557,6.9372 1.2003,0.96456 1.6019,1.79028 0.8709,1.79028 -0.3552,0 -3.435,-2.03088 -8.1881,-5.3994 -1.32,-0.93546 -3.3181,-2.34249 -4.4402,-3.12672 -1.6036,-1.12077 -1.969,-1.51158 -1.7076,-1.82649 0.2724,-0.32829 0.6009,-0.26139 1.8186,0.37035 2.0607,1.06917 4.0378,1.21962 5.5941,0.4257 1.8889,-0.96369 1.7961,-0.84114 14.6989,-19.39344 2.4099,-3.465 5.2379,-7.515 6.2844,-9 3.5185,-4.99239 3.4569,-4.84602 3.0988,-7.37109 -0.331,-2.33382 -1.3702,-4.5294 -2.4064,-5.08395 -0.6155,-0.32937 -0.7866,-1.03839 -0.3203,-1.32663 0.1487,-0.0919 3.1839,1.84965 6.745,4.31451 8.21103,5.68344 7.94349,5.48502 8.11267,6.01716 0.0787,0.2475 0.62361,8.28 1.21094,17.85 0.58734,9.57 1.14344,18.23298 1.2358,19.25109 0.2002,2.20701 0.7055,2.58636 1.82818,1.37241 1.73371,-1.87461 12.70882,-18.22005 13.30661,-19.81776 0.96656,-2.58336 0.42224,-4.52586 -1.80164,-6.42942 -1.21095,-1.03653 -1.4572,-1.53681 -0.91987,-1.86891 0.15839,-0.0979 2.21714,1.17195 4.575,2.82186 2.35785,1.64994 5.40169,3.77799 6.7641,4.72902 3.33541,2.32827 3.09624,2.94756 -0.61921,1.60326 -2.02213,-0.73161 -3.18858,-0.55512 -4.88552,0.7392 -1.36585,1.04178 -0.96014,0.48462 -13.32543,18.29925 -2.8632,4.125 -5.75507,8.26737 -6.42638,9.20526 -0.67131,0.93789 -2.5658,3.67917 -4.20999,6.09174 -3.35601,4.92438 -3.53856,5.13198 -4.01136,4.56228 z m 414.0057,-11.99316 c -0.24849,-0.29937 0.0243,-0.69195 1.16181,-1.67172 3.03705,-2.61606 3.12525,-4.31964 0.42453,-8.19921 -0.95535,-1.37235 -2.23311,-3.10269 -2.83944,-3.84519 -0.60636,-0.7425 -4.86081,-6.345 -9.45438,-12.45 -12.61221,-16.76208 -11.70663,-15.75 -14.09259,-15.75 -1.38159,0 -2.59452,0.46782 -4.1013,1.58181 -0.74574,0.55134 -1.45353,0.51366 -1.45353,-0.0774 0,-0.26067 20.17059,-15.5352 20.86845,-15.80301 0.20397,-0.0783 0.46104,0.004 0.57126,0.18192 0.11019,0.17832 -0.54909,1.0092 -1.46508,1.84638 -1.78629,1.63254 -2.42289,3.05394 -2.09718,4.68249 0.0983,0.49137 1.4148,2.59902 2.9256,4.68366 5.99976,8.2785 21.62397,28.75353 22.58592,29.59812 1.80177,1.58196 3.81228,1.58454 6.04935,0.008 1.54674,-1.09026 2.01168,-1.21905 2.01168,-0.55725 0,0.27771 -1.38081,1.5312 -3.15,2.85951 -3.71934,2.79252 -16.80153,12.66264 -17.28519,13.04115 -0.20247,0.15843 -0.4638,0.10737 -0.65991,-0.12897 z m 25.90146,-19.10583 c -0.0985,-0.15933 0.0986,-0.83391 0.43791,-1.49904 1.59507,-3.1266 1.15656,-5.30559 -3.65475,-18.16125 -1.97607,-5.28 -3.76386,-10.0725 -3.97284,-10.65 -0.38001,-1.05012 -2.89827,-7.73667 -7.18662,-19.08222 -1.25403,-3.31773 -2.28006,-6.20112 -2.28006,-6.40752 0,-0.56226 0.51456,-0.38439 11.76003,4.06503 5.65947,2.23923 11.09997,4.38858 12.08997,4.7763 0.99,0.38769 6.27126,2.45877 11.73609,4.60239 5.46486,2.14359 10.87941,4.17837 12.03234,4.52172 2.79138,0.83133 4.88112,0.81513 6.38337,-0.0495 0.89238,-0.51357 1.25394,-0.59049 1.52091,-0.32352 0.26697,0.26697 -0.93219,1.62171 -5.04432,5.69877 -12.04464,11.94192 -12.05001,11.9469 -12.42027,11.57664 -0.26901,-0.26901 -0.0869,-0.64491 0.77421,-1.59807 1.58025,-1.74912 2.1003,-3.0771 1.60245,-4.09182 -0.21162,-0.43134 -0.72228,-1.03335 -1.13478,-1.33779 -0.78903,-0.58236 -9.11592,-4.15044 -9.68592,-4.15044 -0.18231,0 -3.14004,2.79702 -6.57276,6.21558 -4.43964,4.42134 -6.24132,6.41088 -6.24132,6.89217 0,0.37215 0.4068,1.70067 0.90399,2.95227 2.09934,5.28477 3.28902,6.73998 5.51028,6.73998 1.21464,0 2.09493,-0.43539 4.6248,-2.28741 0.5322,-0.38964 0.77022,-0.4233 1.04559,-0.14793 0.27537,0.27537 -0.97764,1.68576 -5.50452,6.19593 -3.22359,3.21168 -6.01488,5.83941 -6.20289,5.83941 -0.18801,0 -0.4224,-0.13038 -0.52089,-0.28971 z m 4.64478,-27.76143 c 4.21404,-4.21986 4.89591,-5.02794 4.6164,-5.47104 -0.32895,-0.52149 -15.09516,-6.63021 -16.10196,-6.66132 -0.97206,-0.03 -0.90165,0.87162 0.3099,3.96963 0.65901,1.68513 1.98006,5.15637 2.93562,7.71387 1.88655,5.04909 2.06877,5.4 2.80404,5.4 0.27042,0 2.71662,-2.22801 5.436,-4.95114 z M 109.05,645.5874 c -8.722,-2.21319 -17.4015,-10.3713 -20.3936,-19.16868 -3.2131,-9.44688 0.084,-20.69988 8.1551,-27.83574 3.4408,-3.04203 6.0446,-4.55013 10.2885,-5.95905 2.3697,-0.78675 2.8893,-0.84672 7.35,-0.84858 4.5995,-0.003 4.919,0.0379 7.65,0.95238 3.7276,1.24824 7.171,3.40305 10.4989,6.57003 4.8933,4.65657 7.8181,9.31464 9.0279,14.37783 0.5379,2.25111 0.6163,3.29169 0.4955,6.57441 -0.1217,3.30633 -0.2854,4.33383 -1.0749,6.75 -2.7534,8.42547 -9.8401,15.32247 -18.6474,18.1482 -3.5661,1.14411 -9.7678,1.34814 -13.35,0.4392 z m 0.312,-6.74898 c 4.7629,-1.22949 8.7372,-3.9057 14.879,-10.0191 5.1392,-5.1153 7.9141,-8.6148 9.4549,-11.92359 2.0769,-4.46028 2.3668,-8.12589 0.8964,-11.33751 -1.0147,-2.21646 -3.6934,-4.99065 -5.8395,-6.0477 -1.5285,-0.75285 -2.0099,-0.83739 -4.7028,-0.8259 -4.5252,0.0192 -7.7125,1.32597 -13.35,5.47314 -2.9991,2.20626 -9.1226,8.4234 -11.2001,11.37147 -3.8513,5.46492 -5.1486,8.95431 -4.9341,13.27077 0.1354,2.72364 0.686,4.19742 2.3659,6.33282 1.0181,1.29411 3.6308,3.14739 5.2512,3.72489 1.5637,0.55728 4.9811,0.54813 7.1791,-0.0192 z M 69.6804,606.225 c -1.6134,-2.18625 -3.1353,-4.26654 -3.382,-4.62282 -0.2466,-0.35631 -2.3251,-3.18732 -4.6188,-6.29112 -2.2937,-3.1038 -4.2332,-5.88351 -4.31,-6.17715 -0.2628,-1.00503 0.614,-0.53898 2.1495,1.14249 2.2642,2.47941 4.1075,2.64642 7.0751,0.64095 1.3712,-0.92661 1.9925,-1.37913 14.1058,-10.27359 3.7125,-2.72598 8.8178,-6.45981 11.3452,-8.2974 6.4243,-4.67094 7.475,-5.65923 7.7145,-7.25649 0.1326,-0.88425 0.04,-1.65084 -0.2975,-2.46198 C 98.7171,560.83662 97.482,559.2 96.8754,559.2 c -0.2987,0 -2.9403,1.27629 -5.8701,2.8362 -3.9558,2.10612 -5.4259,2.75421 -5.7109,2.51763 -0.2977,-0.24708 0.045,-0.78879 1.5279,-2.41332 2.734,-2.99556 3.5548,-4.63899 3.7103,-7.42902 0.1447,-2.59584 -0.3558,-4.25193 -2.2701,-7.51149 -0.8717,-1.48428 -1.2846,-1.92636 -1.7289,-1.85109 -0.321,0.0544 -5.0386,2.48049 -10.4836,5.3913 -12.5436,6.70557 -13.2176,7.06449 -20.3934,10.85979 -3.5993,1.90374 -6.4702,3.63411 -7.2561,4.37358 -1.2248,1.15239 -1.3003,1.3182 -1.2976,2.85 0,1.1043 0.246,2.14845 0.7599,3.2526 0.5904,1.26828 0.6723,1.6797 0.3721,1.86939 -0.5037,0.31827 -0.7805,-0.0744 -2.9929,-4.24557 -2.6854,-5.06274 -4.0755,-7.66764 -7.1149,-13.33305 -1.4999,-2.7957 -2.7271,-5.25945 -2.7271,-5.475 0,-0.83493 0.8787,-0.33105 1.6156,0.92643 1.6181,2.76099 3.5621,3.60561 6.0891,2.64543 0.8012,-0.30444 4.5592,-2.2149 8.3511,-4.24542 3.7918,-2.03055 11.8217,-6.32316 17.8442,-9.53919 6.0225,-3.21603 11.1274,-5.99073 11.3443,-6.16599 0.5409,-0.43722 0.2801,-1.27035 -1.2085,-3.85911 -2.3398,-4.06917 -4.588,-5.69559 -8.4806,-6.1353 -1.3183,-0.14889 -2.2897,-0.0404 -6.2596,0.69882 -0.6863,0.1278 -0.8338,0.0603 -0.75,-0.34305 0.15,-0.72162 11.3907,-6.81786 11.8573,-6.43065 0.1955,0.16227 2.4863,4.30251 5.0905,9.20055 2.6043,4.89804 5.2124,9.79308 5.7958,10.87788 0.5834,1.08477 3.2168,5.99499 5.852,10.91157 2.9694,5.54022 5.0226,9.04596 5.4,9.21993 0.3348,0.15435 1.0076,0.84663 1.4951,1.5384 0.4875,0.69177 2.3866,3.28275 4.2204,5.75775 1.8337,2.475 4.7981,6.525 6.5875,9 1.7894,2.475 3.3817,4.66716 3.5384,4.87146 0.195,0.25419 0.1302,0.43086 -0.2055,0.55965 -0.3404,0.13065 -0.8659,-0.23838 -1.7181,-1.20651 -2.2298,-2.53317 -3.8252,-2.85888 -6.5289,-1.33299 -1.4404,0.81288 -7.6539,5.26653 -14.8801,10.66551 -2.5242,1.88592 -2.0245,1.51869 -10.223,7.51284 -3.6427,2.66322 -7.1339,5.40774 -7.7583,6.09888 -1.0911,1.20768 -1.1304,1.32549 -1.0077,3.0219 0.099,1.37313 0.34,2.0664 1.0834,3.12102 1.058,1.50105 1.1736,1.93824 0.5126,1.93824 -0.2436,0 -1.7631,-1.78875 -3.3766,-3.975 z m 574.56918,3.37431 c -0.10224,-0.16539 0.21837,-0.87414 0.71244,-1.575 1.32444,-1.87881 1.66824,-3.4866 1.06695,-4.98936 -0.56145,-1.40325 -1.05177,-1.82001 -8.67897,-7.37685 -3.135,-2.28402 -6.375,-4.65093 -7.2,-5.25981 C 616.7157,580.48344 610.45125,576 610.03212,576 c -0.53073,0 -2.99019,3.39636 -4.12335,5.69412 -0.80088,1.62393 -0.95343,2.2662 -0.92637,3.9 0.0419,2.52864 0.95271,4.89204 2.85282,7.40241 1.3545,1.78956 1.64967,2.75373 0.7356,2.40297 -0.27807,-0.10671 -10.00074,-7.0386 -10.64016,-7.58601 -0.16989,-0.14544 -0.95988,0.95487 13.43577,-18.71349 6.88458,-9.4062 9.03207,-12.34326 11.28105,-15.4287 1.07388,-1.4733 1.95252,-2.95323 1.95252,-3.28872 0,-0.50649 11.94462,-23.28096 12.55857,-23.9451 0.10803,-0.11688 0.37614,-0.10143 0.5958,0.0343 0.32271,0.19944 0.28506,0.47085 -0.1962,1.4142 -1.54998,3.03819 -1.41945,5.14281 0.41262,6.65295 0.88947,0.73317 4.94001,2.95485 20.37921,11.17776 1.155,0.61515 4.76694,2.54454 8.02653,4.28751 3.25959,1.743 6.5505,3.44508 7.31313,3.78243 2.90895,1.28676 5.28594,0.45282 6.83817,-2.3991 0.8112,-1.49046 1.26444,-1.8174 1.53651,-1.10838 0.14274,0.37197 -11.26164,22.17612 -12.0201,22.98132 -0.21267,0.22578 -0.53052,0.3216 -0.70632,0.21294 -0.21114,-0.1305 -0.0682,-0.76632 0.4212,-1.87284 1.00779,-2.2788 0.99885,-4.24797 -0.0249,-5.46453 -0.90846,-1.07964 -1.02339,-1.14615 -14.08431,-8.15286 -17.96973,-9.64008 -23.06712,-12.24834 -24.3,-12.43404 -1.63839,-0.24675 -3.00636,0.54369 -4.425,2.55684 -1.82742,2.59326 -1.77387,2.69922 3.15,6.23295 5.91666,4.24623 5.74953,4.10379 5.51931,4.70379 -0.13767,0.35874 -0.36108,0.44991 -0.72183,0.29466 -1.78695,-0.76902 -5.49675,-1.6374 -6.99522,-1.6374 -3.65283,0 -6.05373,1.52424 -9.07659,5.76237 -1.18935,1.66752 -1.38147,2.11293 -1.12122,2.5992 0.17271,0.32277 2.64426,2.26341 5.49231,4.31256 2.84802,2.04915 8.37834,6.07701 12.28956,8.9508 16.24827,11.93847 17.16978,12.55971 18.64335,12.56832 1.61043,0.009 3.03717,-0.74928 4.29444,-2.2836 0.59025,-0.7203 1.2594,-1.30965 1.48704,-1.30965 0.95964,0 0.69303,0.41874 -6.32433,9.93378 -1.65651,2.24607 -4.26588,5.78982 -5.79864,7.875 -1.53276,2.08518 -2.90853,3.79122 -3.0573,3.79122 -0.14877,0 -0.35409,-0.13533 -0.4563,-0.30069 z M 29.312,540.09084 C 29.0473,539.64513 21.9,517.5936 21.9,517.2228 c 0,-0.92043 1.0247,-0.0216 1.534,1.34538 0.9969,2.67621 2.47,3.62706 4.2727,2.75793 1.1552,-0.55698 8.2927,-6.79506 8.2947,-7.24947 9e-4,-0.17964 -1.2269,-4.08105 -2.7282,-8.66979 -2.3542,-7.19577 -2.8258,-8.37972 -3.4295,-8.60925 -0.385,-0.14637 -2.3704,-0.35895 -4.412,-0.47238 -3.3683,-0.18714 -3.8422,-0.14865 -5.1178,0.41562 -2.0703,0.91581 -2.5367,2.04945 -2.0942,5.09088 0.3323,2.28348 0.1413,3.24924 -0.5131,2.59485 -0.2368,-0.23676 -2.0194,-5.50092 -4.8963,-14.45898 -0.228,-0.70977 -0.2213,-1.07661 0.024,-1.32195 0.2528,-0.25275 0.6868,0.0466 1.6975,1.17081 2.6123,2.90544 3.5231,3.10308 23.8682,5.17884 4.8675,0.49662 11.3475,1.17285 14.4,1.50276 5.5893,0.60402 17.2517,1.80195 17.5431,1.80195 0.7768,0 -0.7423,1.58643 -6.0494,6.31743 -6.7678,6.03312 -9.5186,8.50398 -10.4437,9.38094 -0.33,0.31284 -4.1745,3.75993 -8.5433,7.6602 -9.1541,8.17233 -13.9528,12.83331 -14.4582,14.04318 -0.1949,0.46653 -0.4318,1.64766 -0.5265,2.6247 -0.1543,1.59375 -0.6241,2.41437 -1.01,1.76439 z M 41.1744,509.775 c 9.4846,-8.23071 11.3634,-10.1454 10.4867,-10.68723 -0.1314,-0.0812 -3.7426,-0.4941 -8.025,-0.91758 -4.2824,-0.42348 -8.068,-0.8346 -8.4126,-0.91362 -0.3446,-0.079 -0.8633,0.0294 -1.1526,0.24108 -0.4912,0.35916 -0.3921,0.8022 1.4925,6.66855 1.1103,3.45609 2.14,6.52005 2.2882,6.8088 0.4545,0.88539 1.2513,0.59763 3.3228,-1.2 z M 669.75,535.92336 c -9.23418,-1.19613 -15.57981,-4.62363 -20.26776,-10.94733 -3.23877,-4.36884 -4.83627,-9.22593 -4.87629,-14.82603 -0.0276,-3.85965 0.17715,-4.90755 2.00835,-10.28094 2.50257,-7.34343 6.27642,-12.177 11.93166,-15.28212 7.68327,-4.21863 15.87375,-4.34883 24.69162,-0.39252 8.13354,3.64929 14.1186,11.7693 15.20433,20.62797 0.51954,4.23879 -0.43467,9.67254 -2.61186,14.87361 -4.10436,9.80478 -12.16176,15.64716 -22.33005,16.19142 -1.5675,0.0839 -3.255,0.10008 -3.75,0.0359 z m 17.7,-12.37467 c 4.43763,-1.61109 7.06431,-5.24841 7.55853,-10.46673 0.20229,-2.13579 -0.55818,-4.70973 -2.02329,-6.84828 -1.24506,-1.81731 -4.50186,-4.73895 -6.80106,-6.10119 -2.74719,-1.62759 -7.87035,-3.79392 -11.89344,-5.02911 -11.28903,-3.46599 -18.83496,-3.03915 -23.18556,1.31142 -2.76396,2.76399 -3.90333,8.17056 -2.50407,11.88246 1.56366,4.14798 5.12172,7.39983 11.54889,10.55505 5.11269,2.50989 9.68001,4.03872 15.3,5.12139 3.26343,0.62868 9.72834,0.39969 12,-0.42501 z M 117,485.74155 l 0,-20.0436 4.425,-1.27818 c 2.4337,-0.70299 4.7175,-1.46331 5.0751,-1.68957 0.5166,-0.32694 0.6846,-0.79842 0.818,-2.29581 0.092,-1.03641 0.3702,-4.11189 0.6175,-6.83439 0.2474,-2.7225 0.7289,-8.2575 1.0702,-12.3 0.3412,-4.0425 0.9462,-10.995 1.3444,-15.45 0.3982,-4.455 0.9312,-10.4625 1.1844,-13.35 2.4548,-27.99423 3.0394,-34.54446 4.217,-47.25 0.4128,-4.455 1.1548,-12.555 1.6488,-18 1.8667,-20.57469 4.8799,-52.94412 5.7014,-61.24578 0.329,-3.32518 0.5982,-6.51505 0.5982,-7.0886 0,-1.22974 0.032,-1.2138 -5.25,-2.62598 -1.98,-0.52938 -3.8363,-1.08586 -4.125,-1.23663 -0.4915,-0.2566 -0.525,-1.46852 -0.525,-18.96357 0,-10.27919 0.072,-18.76137 0.1598,-18.84928 0.088,-0.0879 1.8767,0.50502 3.975,1.31764 2.0984,0.81263 6.4477,2.4279 9.6652,3.5895 3.2175,1.1616 6.795,2.45307 7.95,2.86993 15.79265,5.69984 38.43617,12.56437 57.04135,17.29248 l 7.45864,1.89545 0.0777,15.00301 0.0778,15.00301 -5.13368,-0.88466 c -3.71808,-0.64072 -5.22423,-0.79411 -5.46205,-0.55629 -0.23781,0.23781 -0.23081,1.13512 0.0254,3.25406 1.63492,13.5218 2.86093,23.44217 5.05161,40.87571 1.39953,11.1375 2.67755,21.39501 2.84005,22.79451 0.16249,1.39947 0.49936,4.09947 0.74859,6 0.7692,5.86557 1.94113,15.04167 2.22295,17.40549 0.46232,3.87786 4.5603,35.58717 6.45248,49.92792 0.41205,3.12285 0.74917,5.8308 0.74917,6.01764 0,0.18687 0.17384,0.5775 0.38632,0.86808 0.3678,0.50301 0.60547,0.49653 4.95769,-0.13497 2.51426,-0.3648 4.66917,-0.56562 4.78869,-0.44625 0.30021,0.29982 0.42996,23.49651 0.14682,26.24751 l -0.22952,2.22993 -6.45,1.44054 c -10.63921,2.37618 -29.20916,7.07634 -37.35,9.45351 -1.58787,0.46368 -4.41239,1.27404 -6.9,1.97964 -0.825,0.234 -1.80375,0.52251 -2.175,0.64116 l -0.675,0.21573 0,-16.37964 c 0,-13.35291 0.0737,-16.40793 0.39902,-16.53276 0.21947,-0.0842 2.26179,-0.54087 4.53849,-1.01478 2.27671,-0.47391 4.31606,-1.04202 4.53188,-1.26246 0.32346,-0.33036 0.18669,-2.61486 -0.77835,-13.0008 -0.64392,-6.93 -1.49812,-16.15605 -1.89821,-20.5023 -0.40009,-4.34628 -0.8608,-8.03568 -1.02381,-8.19867 -0.26617,-0.26616 -5.83185,0.21066 -18.21902,1.56087 -1.485,0.16185 -3.90744,0.41553 -5.3832,0.56373 -1.86151,0.1869 -2.78952,0.41481 -3.03036,0.74418 -0.19093,0.26112 -0.42759,1.65768 -0.52591,3.10347 -0.0983,1.44579 -0.52749,7.01622 -0.95371,12.37872 -2.72903,34.3344 -2.55913,30.9 -1.52842,30.9 0.40063,0 2.48105,-0.405 4.62317,-0.9 2.14211,-0.495 3.97433,-0.9 4.07159,-0.9 0.0973,0 0.17684,7.68231 0.17684,17.0718 l 0,17.0718 -1.425,0.50319 c -0.78375,0.27678 -3.7875,1.30821 -6.675,2.29209 -4.91521,1.67478 -7.93881,2.751 -16.05001,5.71269 -4.6296,1.6905 -15.2293,5.8212 -21.45,8.35911 -2.8875,1.17804 -5.5537,2.2617 -5.925,2.40819 l -0.675,0.26628 0,-20.0436 z m 69.67499,-108.23529 c 0.6875,-0.19209 0.67984,-1.06095 -0.0834,-9.46062 -0.33463,-3.68259 -0.79961,-8.99064 -1.0333,-11.79564 -0.82628,-9.91782 -1.66454,-19.86408 -2.1112,-25.05 -0.24869,-2.8875 -0.7131,-8.2875 -1.03202,-12 -0.31892,-3.7125 -1.13559,-13.635 -1.81484,-22.05 -0.67924,-8.415 -1.29626,-15.59985 -1.37115,-15.96634 -0.17194,-0.84145 -0.73003,-1.13641 -3.06115,-1.61789 -1.2196,-0.25191 -1.96991,-0.28379 -2.16183,-0.0919 -0.23335,0.23335 -3.21626,34.18876 -4.79439,54.5761 -0.34497,4.45653 -1.45609,18.18366 -2.55836,31.60677 -0.79937,9.73452 -0.88928,11.80557 -0.52835,12.17106 0.23505,0.23802 19.63378,-0.0655 20.55,-0.32157 z M 594.3,503.35848 c -10.23402,-4.29093 -24.27492,-9.53361 -41.55,-15.51411 l -4.2,-1.45404 -0.24141,-2.07015 c -0.27,-2.31546 -0.15987,-31.76937 0.11982,-32.04879 0.0981,-0.098 1.87953,0.2283 3.95868,0.72519 3.99141,0.95388 5.16462,1.08606 5.45598,0.61467 0.0981,-0.15885 -0.0282,-2.6901 -0.28107,-5.625 -0.39291,-4.56285 -1.22151,-14.72115 -2.9163,-35.75298 -0.24678,-3.06252 -0.50946,-4.75419 -0.7803,-5.025 -0.22455,-0.22455 -0.8757,-0.40827 -1.44702,-0.40827 -0.57129,0 -6.38919,-0.54444 -12.92868,-1.2099 -6.53946,-0.66543 -11.99391,-1.10418 -12.12102,-0.975 -0.27534,0.2799 -0.57618,3.15204 -1.76868,16.8849 -0.49431,5.6925 -1.02591,11.7 -1.18134,13.35 -0.9369,9.94524 -1.01946,11.2692 -0.72141,11.56725 0.16977,0.16977 2.35977,0.74157 4.86666,1.27071 l 4.55799,0.96204 0.005,16.30962 c 0.003,8.9703 -0.0386,16.35267 -0.0913,16.40529 -0.0526,0.0526 -2.65827,-0.64095 -5.79036,-1.54128 -3.13209,-0.90033 -6.97722,-1.9854 -8.54472,-2.41128 -1.5675,-0.42588 -3.795,-1.03368 -4.95,-1.35066 -5.30172,-1.45509 -20.45745,-5.18193 -26.7,-6.56562 -3.795,-0.84117 -7.13625,-1.59852 -7.425,-1.68297 -0.49047,-0.14343 -0.525,-1.08963 -0.525,-14.38332 l 0,-14.22978 0.675,-0.003 c 0.37125,0 2.66808,0.29388 5.10408,0.65592 2.98743,0.44403 4.52787,0.55947 4.73262,0.35472 0.16698,-0.16698 0.50424,-1.9134 0.74949,-3.88095 1.82271,-14.62218 3.19545,-25.79997 3.71841,-30.27735 0.1542,-1.32 0.96123,-8.07 1.79343,-15 2.42625,-20.20389 4.14318,-34.61304 4.96881,-41.7 0.42291,-3.63 0.96471,-8.22 1.20399,-10.2 1.0389,-8.59596 4.6845,-39.94483 5.15385,-44.31829 0.15915,-1.48299 0.10998,-1.74683 -0.35898,-1.92679 -0.47193,-0.18109 -8.33511,0.92497 -9.36849,1.3178 -0.30126,0.11452 -0.36204,-2.91343 -0.3,-14.94593 l 0.0778,-15.08954 4.05,-1.00277 c 19.89546,-4.92605 35.74695,-9.66092 57.75,-17.25007 6.81135,-2.34933 20.22573,-7.27456 23.925,-8.78434 0.49674,-0.20273 0.525,0.81211 0.525,18.85373 l 0,19.068 -1.125,0.31141 c -0.61875,0.17128 -2.78148,0.73849 -4.80609,1.26048 -2.02458,0.52197 -3.91209,1.11798 -4.19445,1.32445 -0.55104,0.40293 -0.63516,-0.62338 2.45724,29.98186 0.40011,3.96 1.01793,10.17 1.37292,13.8 0.35496,3.63 0.76461,7.815 0.91035,9.3 2.46642,25.13571 4.53492,46.49256 5.6805,58.65 0.50529,5.3625 1.1868,12.5175 1.5144,15.9 0.86412,8.9214 2.18277,23.17272 3.77523,40.8 0.87936,9.73401 1.53831,15.68217 1.78113,16.07754 0.28929,0.47106 1.41996,0.91218 4.53459,1.76919 2.28204,0.62793 4.31793,1.27332 4.52418,1.43421 0.29325,0.22875 0.375,4.60119 0.375,20.05578 0,18.63477 -0.03,19.76139 -0.525,19.73025 -0.28875,-0.0183 -2.7525,-0.96699 -5.475,-2.10849 z M 551.22366,377.51043 c 0.10335,-0.26925 -0.0832,-3.7455 -0.41457,-7.725 -0.33135,-3.97947 -1.68117,-20.22069 -2.99961,-36.09159 -4.69671,-56.53675 -4.47201,-54.0983 -5.0034,-54.3022 -0.22311,-0.0856 -1.3845,0.1061 -2.58087,0.42604 -2.64639,0.70772 -2.38962,-0.11093 -3.225,10.28232 -0.33819,4.2075 -0.95325,11.7 -1.3668,16.65 -0.41355,4.95 -0.88644,10.755 -1.0509,12.9 -0.32598,4.25193 -3.1758,38.17359 -4.19169,49.89429 -0.48669,5.61513 -0.55113,7.39206 -0.27987,7.71891 0.2778,0.33471 1.63158,0.44313 6.3957,0.51225 3.32385,0.0482 7.95267,0.11847 10.28625,0.15612 3.68727,0.0595 4.2675,0.004 4.43076,-0.42114 z m 154.01262,102.57861 c -0.0908,-1.26426 -0.39867,-2.53311 -0.81033,-3.33933 -1.02318,-2.00382 -2.58729,-2.57472 -9.17595,-3.34926 -9.21186,-1.08291 -25.92927,-2.97867 -29.57832,-3.35421 l -3.47835,-0.35796 -1.32165,0.78123 c -2.08023,1.22958 -3.5604,2.94258 -3.98673,4.61382 -0.23934,0.93819 -0.55596,1.50102 -0.87945,1.56333 -0.74673,0.14379 -0.76404,0.38106 1.1928,-16.36893 0.21099,-1.80618 0.12807,-1.71939 3.78573,-3.96231 1.52127,-0.93288 6.40197,-3.98424 10.84599,-6.78078 4.44402,-2.79654 10.45152,-6.56964 13.35,-8.38464 3.86139,-2.41797 5.29458,-3.47259 5.36202,-3.94575 0.10761,-0.75516 0.12591,-0.75117 -6.69204,-1.46637 -2.475,-0.25962 -6.81024,-0.73434 -9.63387,-1.05495 -8.24838,-0.93657 -10.16898,-0.76308 -11.77266,1.06341 -0.49824,0.56745 -1.14204,1.81293 -1.43061,2.76771 -0.60009,1.98534 -0.88731,2.43594 -1.28811,2.02095 -0.16752,-0.17343 0.065,-3.27969 0.59397,-7.935 0.47808,-4.2075 0.87195,-7.88625 0.87525,-8.175 0.007,-0.59748 0.86289,-0.72051 1.0437,-0.15 0.0654,0.20625 0.20733,1.16328 0.31551,2.12673 0.16116,1.4355 0.38841,1.96395 1.25883,2.9274 1.31223,1.45248 2.72538,1.8918 8.03799,2.49891 2.145,0.2451 8.76,0.99498 14.7,1.66638 22.263,2.51634 25.67316,2.92875 25.87338,3.12897 0.59448,0.59448 0.36225,0.75531 -17.92338,12.41193 -4.5375,2.89254 -9.5325,6.09411 -11.1,7.11459 -4.96764,3.23403 -14.15853,9.12753 -15.525,9.95511 -0.80733,0.48897 -0.87354,1.17111 -0.15,1.54557 0.28875,0.14943 1.5375,0.36123 2.775,0.4707 1.2375,0.10944 3.2625,0.3294 4.5,0.48876 5.18763,0.66813 24.41925,2.68995 25.58667,2.68995 3.43347,0 5.82609,-2.12271 6.39372,-5.67246 0.14868,-0.9297 0.33258,-1.22754 0.75795,-1.22754 0.30891,0 0.55416,0.16875 0.54501,0.375 -0.009,0.20625 -0.45093,4.15374 -0.98172,8.77218 -0.79734,6.93786 -1.04793,8.41314 -1.44201,8.48904 -0.3873,0.0746 -0.50451,-0.2916 -0.62334,-1.94718 z M 60.1687,474.16995 C 58.8971,469.79562 57.2699,469.43691 45,470.82588 28.8701,472.65183 10.7601,474.6 9.9161,474.6 9.2369,474.6 9,474.46158 9,474.06468 c 0,-0.30609 7.9971,-8.61021 18.675,-19.39188 10.2712,-10.37109 18.7214,-19.05456 18.7781,-19.29654 0.2165,-0.92367 -0.4521,-1.00194 -4.6306,-0.54198 -7.621,0.83886 -9.5362,1.04574 -14.0725,1.52028 -8.9434,0.93555 -12.9274,1.39794 -14.4,1.67127 -3.2812,0.60903 -5.25,3.042 -5.25,6.48774 0,1.62783 -0.075,1.88643 -0.5488,1.88643 -0.4963,0 -0.6276,-0.73956 -1.3709,-7.725 -0.452,-4.24875 -0.8973,-8.23125 -0.9895,-8.85 -0.1473,-0.98955 -0.093,-1.125 0.4493,-1.125 0.5047,0 0.6856,0.30723 0.995,1.68963 0.4979,2.22513 1.3264,3.4122 2.9559,4.23537 1.8183,0.9186 2.7878,0.88611 15.7933,-0.52932 19.4809,-2.12016 24.5511,-2.69208 25.2114,-2.84394 0.8061,-0.18537 3.3526,-2.97324 3.8976,-4.26711 0.2237,-0.53094 0.4067,-1.57719 0.4067,-2.325 0,-1.1298 0.095,-1.35963 0.563,-1.35963 0.6296,0 0.6616,0.1995 1.8754,11.69019 l 0.6486,6.14019 -13.8435,13.68789 C 33.9607,464.88663 30.3,468.68646 30.3,469.18803 c 0,0.65658 0.07,0.67485 1.875,0.49281 9.7814,-0.98628 19.2879,-2.04018 20.6911,-2.2938 4.3324,-0.78312 5.9339,-2.47737 5.9339,-6.27741 0,-1.59057 0.07,-1.80963 0.5816,-1.80963 0.4565,0 0.6198,0.27435 0.7588,1.275 0.1683,1.21101 1.6596,14.75688 1.6596,15.07434 0,0.0829 -0.2604,0.15066 -0.5787,0.15066 -0.4425,0 -0.6903,-0.38376 -1.0526,-1.63005 z M 456.45,465.14781 c -2.97,-0.54636 -8.8425,-1.49583 -13.05,-2.10996 -4.2075,-0.61413 -7.9284,-1.22091 -8.26863,-1.34838 -0.50949,-0.19086 -1.71129,-3.50529 -6.81168,-18.78561 -3.40617,-10.20462 -9.00594,-26.92386 -12.44394,-37.15386 -3.438,-10.23 -7.08012,-21.2325 -8.09361,-24.45 -4.13943,-13.14144 -4.95561,-15.79905 -7.27854,-23.7 -1.33404,-4.5375 -3.24519,-11.2875 -4.24695,-15 -1.00176,-3.7125 -1.94658,-6.98625 -2.09958,-7.275 -0.33093,-0.62454 -1.98624,-0.71232 -2.76024,-0.14634 -0.48759,0.35655 -0.49107,0.78126 -0.0594,7.275 1.2432,18.70146 1.43475,25.57917 1.5798,56.72823 0.0792,17.01252 0.25284,31.10787 0.38577,31.32297 0.17079,0.27633 1.38573,0.43242 4.13934,0.53187 2.14368,0.0774 4.07985,0.25353 4.30263,0.39135 0.32949,0.20391 0.40503,2.56977 0.40503,12.68649 0,6.8397 -0.0675,12.49047 -0.15,12.55722 -0.0825,0.0668 -1.635,0.0171 -3.45,-0.11031 -7.63077,-0.53574 -15.71382,-0.88677 -27.12462,-1.17798 -6.66855,-0.17019 -12.23731,-0.37905 -12.37501,-0.46416 -0.1377,-0.0851 -0.25038,-5.68179 -0.25038,-12.43704 l 0,-12.2823 4.91329,0 c 3.7683,0 4.99188,-0.0947 5.25072,-0.40662 0.24804,-0.29889 0.31737,-16.72839 0.26172,-62.025 l -0.0757,-61.61838 -5.1,-0.15 -5.10001,-0.15 0,-12.45 0,-12.45 10.44352,-0.19851 c 11.00568,-0.20921 19.55499,-0.59118 29.41803,-1.31437 C 402.09039,279.1967 405.00831,279 405.2958,279 c 0.54507,0 0.96324,0.95407 4.86498,11.1 10.24485,26.64021 19.73184,57.90393 26.94642,88.8 0.86691,3.7125 1.76304,7.05375 1.9914,7.425 0.46764,0.76017 2.20146,0.95025 2.73648,0.3 0.20829,-0.25317 0.22428,-2.56806 0.0492,-7.125 -0.31503,-8.20095 -0.80595,-22.27422 -1.19298,-34.2 -0.15795,-4.8675 -0.28482,-16.2075 -0.28191,-25.2 0.003,-8.9925 0.003,-16.74165 -0.003,-17.22033 l -0.007,-0.8703 -2.925,0.1851 c -1.60875,0.10182 -3.76875,0.27645 -4.8,0.38805 l -1.875,0.20295 0,-13.07503 c 0,-7.19127 0.1155,-13.14642 0.25668,-13.23367 0.14118,-0.0872 2.80743,-0.50208 5.925,-0.92185 3.11757,-0.41978 6.88332,-0.95988 8.36832,-1.20024 1.485,-0.24035 5.265,-0.85046 8.4,-1.35578 3.135,-0.50533 8.265,-1.39619 11.4,-1.9797 3.135,-0.5835 6.13875,-1.13669 6.675,-1.22931 l 0.975,-0.16839 0,14.11541 0,14.11542 -0.825,0.1765 c -0.45375,0.0971 -2.29266,0.36721 -4.08645,0.6003 -1.79382,0.23309 -3.37983,0.54214 -3.52449,0.6868 -0.14904,0.14904 -0.29571,36.32941 -0.33852,83.49853 l -0.0747,83.23554 -1.05,0.0456 c -0.5775,0.0252 -3.48,-0.40143 -6.45,-0.94776 z M 287.09999,461.25759 C 269.43559,458.68767 256.6042,443.52486 249.64741,417 c -3.71874,-14.17881 -5.43326,-30.53859 -5.43915,-51.9 -0.004,-14.34711 0.6763,-24.9015 2.28165,-35.4 0.69588,-4.55088 0.98311,-6.07008 2.38221,-12.6 0.26514,-1.2375 1.13418,-4.41363 1.9312,-7.05804 4.6708,-15.49731 11.89435,-26.86256 20.62851,-32.4561 4.36462,-2.7952 10.04567,-4.22597 15.36816,-3.87048 9.23799,0.617 16.0767,4.84255 23.1591,14.30971 1.34748,1.8012 2.6232,3.27491 2.83488,3.27491 0.81594,0 1.00602,-1.25837 1.00602,-6.66027 l 0,-5.49971 8.475,0.52396 c 4.66125,0.28818 10.33125,0.60801 12.6,0.71073 l 4.125,0.18676 0,29.11746 0,29.11749 -12.64512,-0.19332 c -6.95481,-0.10632 -12.66888,-0.22926 -12.69795,-0.27321 -0.0291,-0.0439 -0.22059,-2.03739 -0.42561,-4.42989 -1.33863,-15.61995 -5.2608,-25.57752 -11.21922,-28.48317 -3.78561,-1.84608 -7.2595,-1.53465 -9.91079,0.88848 -3.35245,3.06396 -4.50178,7.2603 -5.29829,19.34469 -1.33005,20.17917 -1.05302,71.47368 0.46096,85.35 1.13363,10.39029 2.60805,15.26481 5.49346,18.16182 1.96194,1.96983 3.09925,2.38818 6.49256,2.38818 2.57577,0 3.21213,-0.10395 4.5,-0.73515 4.71096,-2.30886 7.43391,-7.9035 9.279,-19.06485 0.72366,-4.37751 1.671,-13.17987 1.671,-15.52644 0,-0.96954 0.0877,-1.13724 0.525,-1.00389 0.28875,0.0881 3.0225,0.89877 6.075,1.80165 3.0525,0.90285 8.3175,2.47101 11.7,3.48477 3.3825,1.01373 7.1625,2.14383 8.4,2.51127 l 2.25,0.6681 -0.0642,2.21718 c -0.20763,7.17459 -4.02285,20.20272 -8.25741,28.19736 -6.2118,11.72751 -15.15762,20.0124 -26.43825,24.48498 -6.26442,2.48373 -15.39276,3.60333 -21.79017,2.67261 z M 47.4263,388.125 c -1.0127,-2.62143 -1.5,-3.41547 -2.8291,-4.61049 C 42.46,381.59301 42.9299,381.85833 20.1,369.68187 14.0775,366.46974 7.0912,362.74188 4.575,361.39776 2.0587,360.05364 0,358.81797 0,358.6518 c 0,-0.16617 3.2737,-1.47405 7.275,-2.90643 4.0012,-1.43235 10.3125,-3.70455 14.025,-5.04933 3.7125,-1.34478 9.585,-3.45645 13.05,-4.69263 15.0448,-5.36736 15.8828,-5.88417 16.6647,-10.27737 0.579,-3.2529 -0.3246,-5.40669 -2.7976,-6.66834 -1.0877,-0.55488 -9.6134,-2.51397 -23.1671,-5.3235 -2.475,-0.51306 -6.4575,-1.34985 -8.85,-1.85958 -2.3925,-0.50973 -4.7071,-0.92448 -5.1436,-0.92166 -2.0407,0.0132 -5.1938,2.47524 -5.9901,4.67718 C 4.8069,326.3475 4.4909,326.7 4.1072,326.7 c -0.443,0 -0.5345,-0.15249 -0.4051,-0.675 0.092,-0.37125 0.8498,-3.89457 1.6842,-7.82961 0.8344,-3.93501 1.5986,-7.47912 1.6981,-7.87575 0.1523,-0.60687 2.8647,-2.05857 17.114,-9.15963 14.7088,-7.33004 16.9211,-8.519 16.8423,-9.05143 -0.082,-0.55231 -1.0997,-0.82868 -10.2907,-2.79392 -5.61,-1.19954 -11.0266,-2.26995 -12.0369,-2.37869 -3.2228,-0.34687 -5.3642,1.13729 -6.405,4.43903 -0.3743,1.18736 -1.2081,1.54683 -1.2081,0.52083 0,-0.3323 0.6745,-3.74105 1.4989,-7.575 0.8245,-3.83396 1.4995,-7.07208 1.5,-7.19583 6e-4,-0.12375 0.2711,-0.225 0.6011,-0.225 0.5406,0 0.6001,0.20037 0.6011,2.025 0,2.55212 0.6344,3.67885 2.6368,4.69354 1.5856,0.80349 3.0747,1.17031 14.1621,3.48864 24.4215,5.10643 29.7368,6.26794 30.0761,6.57227 0.646,0.57935 0.9811,0.39538 -23.0261,12.64176 -5.28,2.6934 -12.57,6.41436 -16.2,8.26878 -6.4395,3.28971 -7.5059,3.99618 -6.8933,4.56648 0.2417,0.225 27.4845,6.16068 31.0766,6.771 0.5958,0.10125 1.7653,0.0378 2.5988,-0.14094 2.3706,-0.50838 3.7176,-2.10645 4.7511,-5.63649 0.2206,-0.75348 0.8678,-0.14673 0.7801,0.73143 -0.048,0.47769 -0.8142,4.44603 -1.7034,8.81853 -1.5488,7.6158 -1.6431,8.35356 -2.2426,17.55 C 50.5197,359.48451 50.4636,360 49.9284,360 49.6158,360 49.5,359.60475 49.5,358.5375 c 0,-3.33606 -0.7431,-4.54347 -2.7867,-4.52781 -1.7122,0.0132 -9.5141,2.71998 -9.9935,3.46719 -0.4732,0.7377 -1.5497,17.12013 -1.1497,17.49711 0.1539,0.14511 1.6521,0.96138 3.3293,1.81395 6.0142,3.0573 8.5986,2.25795 9.3025,-2.87718 0.1,-0.72993 0.3098,-1.40619 0.4661,-1.50282 0.8131,-0.5025 0.8721,0.64593 0.3973,7.73445 -0.5301,7.91241 -0.6228,8.65761 -1.0775,8.65761 -0.1653,0 -0.418,-0.30375 -0.5615,-0.675 z m -14.5913,-15.9 c 0.081,-0.37125 0.2884,-2.97 0.4619,-5.775 0.1735,-2.805 0.3812,-5.51157 0.4615,-6.01458 0.082,-0.51501 -0.028,-1.15323 -0.2534,-1.46088 -0.3775,-0.51627 -0.8266,-0.39522 -8.1768,2.20416 -4.2775,1.51275 -7.9095,2.88261 -8.071,3.04413 -0.1914,0.19137 -0.1915,0.45567 -5e-4,0.75861 0.4051,0.64209 13.9351,7.88637 14.7626,7.90416 0.457,0.01 0.7157,-0.19971 0.8157,-0.6606 z m 646.515,12.6462 c -2.66763,-0.3882 -5.95239,-2.12571 -8.12394,-4.29726 -4.6869,-4.68693 -6.09021,-12.03246 -3.7872,-19.82394 0.48771,-1.65 0.95922,-3.30702 1.04775,-3.68226 0.29808,-1.26306 -0.35583,-2.71215 -1.74957,-3.87717 -0.73539,-0.6147 -1.33704,-1.27293 -1.33704,-1.46271 0,-0.41589 1.96503,-0.60204 11.19837,-1.06083 5.06232,-0.25152 6.93618,-0.25248 7.185,-0.004 0.47955,0.47955 0.0669,0.76365 -2.18337,1.50345 -7.80003,2.56425 -12.96417,8.88567 -12.94479,15.84573 0.006,2.04279 0.15054,2.79807 0.82467,4.3002 0.91494,2.03877 2.83161,3.9465 4.52721,4.50609 1.73652,0.57309 4.33317,0.22809 5.98926,-0.79578 2.45787,-1.51959 3.86061,-3.76236 7.69095,-12.29685 2.34861,-5.23293 3.94218,-7.81101 6.2193,-10.06158 4.41945,-4.36794 10.15245,-5.49672 15.3852,-3.02922 7.82667,3.69063 10.5462,12.2553 6.94467,21.87105 -0.57006,1.52205 -1.03647,3.17823 -1.03647,3.68043 0,1.10031 0.88272,2.06466 2.11563,2.31123 0.98166,0.19635 1.39758,0.61548 0.99324,1.00092 -0.30384,0.28962 -13.2699,1.29726 -14.80887,1.15086 -1.56429,-0.14883 -1.31589,-0.85227 0.52149,-1.47681 7.23402,-2.45892 12.02382,-8.82786 11.34894,-15.09048 -0.52944,-4.91286 -4.05582,-8.01846 -8.08182,-7.11747 -3.20346,0.71691 -4.6911,2.74257 -9.05256,12.32649 -2.5272,5.55327 -3.63933,7.57602 -5.58102,10.15086 -3.04035,4.03179 -8.26245,6.16248 -13.30503,5.42871 z m -13.48125,-41.33451 c -0.0811,-0.26769 -0.41793,-2.03919 -0.74865,-3.93669 -0.33069,-1.8975 -0.94152,-5.4075 -1.35741,-7.8 -0.41589,-2.3925 -1.7628,-10.02 -2.9931,-16.95 -1.24647,-7.02114 -2.12289,-12.7146 -1.9794,-12.85887 0.45999,-0.46236 0.80085,0.0486 1.18878,1.78206 0.2604,1.16361 0.69591,2.04417 1.37925,2.78871 0.99213,1.08096 1.01406,1.08786 3.34524,1.05321 2.94267,-0.0438 37.75617,-6.19224 39.5472,-6.98448 1.73916,-0.76933 2.34054,-2.11687 2.2035,-4.9374 -0.0843,-1.73435 -0.0198,-2.14323 0.33753,-2.14323 0.28002,0 0.51927,0.4393 0.65361,1.2 0.11652,0.66 1.44711,8.1525 2.95683,16.65 3.42033,19.25154 3.8934,21.96861 3.89589,22.37625 0.003,0.30909 -1.42872,0.61428 -9.14802,1.95156 -1.815,0.31443 -3.67125,0.65004 -4.125,0.74577 -0.68223,0.14397 -0.825,0.0707 -0.825,-0.42375 0,-0.44505 0.57402,-0.88146 2.24628,-1.70775 3.06594,-1.51488 4.72158,-3.04701 5.91771,-5.47617 0.93393,-1.89672 0.98601,-2.17713 0.98601,-5.30919 0,-3.79287 -0.91779,-9.82992 -1.62603,-10.69566 -0.46803,-0.57213 -0.51726,-0.57159 -3.92397,0.0432 -1.8975,0.34242 -6.11349,1.07937 -9.36888,1.6377 -3.25539,0.5583 -6.07119,1.10922 -6.25731,1.22427 -0.42615,0.26334 -0.13482,2.24421 0.5463,3.71481 1.60401,3.46308 3.61866,4.54443 8.85489,4.75272 3.18468,0.12669 3.525,0.19404 3.525,0.69753 0,0.33426 -0.27018,0.61635 -0.675,0.70482 -1.28355,0.28047 -17.0385,3.06432 -22.94787,4.0548 -0.70011,0.11736 -1.34136,0.1449 -1.425,0.0612 -0.28125,-0.28122 -0.15534,-0.95211 0.17865,-0.95211 0.88035,0 5.47452,-2.48412 6.73518,-3.64179 1.87116,-1.71828 2.51913,-3.18183 2.52744,-5.70867 0.008,-2.52309 -0.15921,-2.94954 -1.15875,-2.94954 -1.06683,0 -13.80195,2.2653 -16.08105,2.86047 -3.27468,0.85515 -3.80763,2.007 -3.03249,6.55434 1.64403,9.64491 5.58111,14.3814 13.30071,16.00137 2.26887,0.47613 3.07818,0.8154 3.07818,1.29036 0,0.23736 -4.07244,0.48537 -11.46693,0.69828 -3.60207,0.10374 -4.13538,0.0577 -4.26432,-0.36813 z M 657.29502,297.525 c -0.16065,-0.37125 -1.85604,-5.67 -3.76755,-11.775 -3.36132,-10.73539 -5.95737,-18.97478 -8.11683,-25.76143 -0.57078,-1.79379 -0.96999,-3.32921 -0.88716,-3.41206 0.38745,-0.38744 0.97974,0.28397 1.48155,1.67943 0.7815,2.1733 2.19261,3.34409 4.03041,3.34397 1.38339,-9e-5 6.99741,-1.63824 22.11456,-6.45295 3.465,-1.10357 8.2575,-2.61313 10.65,-3.35456 5.1957,-1.61014 7.51158,-2.67411 8.037,-3.6924 0.34953,-0.67742 0.35001,-2.53121 0,-5.36964 -0.0486,-0.3958 0.071,-0.77517 0.26577,-0.84305 0.37749,-0.13155 0.63855,0.62591 5.388,15.63222 1.82277,5.75925 2.73525,9.07308 2.54946,9.25886 -0.46239,0.46239 -0.83148,0.0364 -1.24347,-1.43502 -0.92424,-3.30105 -3.05133,-4.76863 -5.9016,-4.0718 -1.28832,0.31496 -10.20549,3.07703 -25.89654,8.02137 -2.8875,0.90987 -5.7225,1.79471 -6.3,1.96632 -0.5775,0.17161 -2.03262,0.7152 -3.23364,1.20797 -2.34684,0.96291 -3.06636,1.78314 -3.06636,3.49548 0,1.13475 2.21685,8.38557 3.19851,10.46159 2.33115,4.93001 6.94764,7.26724 14.36649,7.27343 2.61909,0.002 3.43527,0.24866 3.43482,1.03727 -1.5e-4,0.26692 -15.3201,3.50775 -16.43124,3.47593 -0.20979,-0.006 -0.51288,-0.31468 -0.67356,-0.68593 z M 65.7,275.99547 c 0,-0.16749 0.2204,-1.09722 0.4897,-2.06607 0.303,-1.08961 0.4138,-2.16681 0.2905,-2.82398 -0.3663,-1.95259 -1.3744,-2.61698 -7.2302,-4.76528 -29.8185,-10.93937 -33.8211,-12.34226 -34.3183,-12.02857 -0.556,0.3507 -1.7522,3.86702 -2.1396,6.28958 -0.5814,3.63599 0.9264,6.8167 4.5079,9.50952 1.0725,0.80638 1.9912,1.63876 2.0416,1.84976 0.1647,0.68962 -0.4326,0.73334 -1.9248,0.1409 -0.8067,-0.32031 -3.4575,-1.2954 -5.8905,-2.16686 -3.0447,-1.09053 -4.4242,-1.72582 -4.425,-2.03788 0,-0.42824 1.5018,-4.69718 4.6463,-13.19659 0.763,-2.0625 2.2589,-6.18 3.3241,-9.15 1.0653,-2.97 2.0561,-5.67 2.202,-6 0.1458,-0.33 1.2417,-3.33375 2.4353,-6.675 1.3487,-3.77569 2.3214,-6.075 2.5699,-6.075 0.2199,0 1.8559,0.53142 3.6355,1.18093 1.7796,0.64951 4.3145,1.56444 5.6331,2.03318 1.5012,0.53367 2.4323,1.03346 2.4908,1.33701 0.081,0.41887 -0.3879,0.50125 -3.4475,0.60619 -4.2644,0.14627 -5.9801,0.77066 -7.9737,2.90195 -1.6099,1.72117 -3.843,6.95698 -3.3205,7.78539 0.1806,0.28622 3.7029,1.73219 8.2345,3.38035 4.3554,1.58409 11.4964,4.19479 15.8689,5.80156 16.1639,5.93976 16.523,6.02514 18.4014,4.37584 0.5623,-0.49368 1.3432,-1.64171 1.7355,-2.55118 0.4679,-1.08501 0.8678,-1.62364 1.1631,-1.56652 0.2475,0.0479 0.4177,0.28466 0.3783,0.52617 -0.039,0.24152 -1.2344,3.61163 -2.6555,7.48913 -1.421,3.8775 -3.2318,8.8725 -4.0239,11.1 -0.7921,2.2275 -1.5353,4.28625 -1.6516,4.575 -0.2252,0.55902 -1.0473,0.73208 -1.0473,0.22047 z m 582.78732,-25.82875 c -3.17121,-0.74462 -6.87606,-3.44965 -9.5085,-6.94249 -1.84197,-2.44397 -3.34437,-5.35082 -9.88437,-19.12423 -4.77684,-10.06012 -4.94829,-10.5 -4.0926,-10.5 0.22101,0 0.56151,0.35045 0.75666,0.77877 0.60159,1.32032 1.89576,2.83389 2.84115,3.32276 1.8645,0.96418 1.69533,1.03013 22.25034,-8.67391 14.52396,-6.85677 17.07471,-8.16015 17.8173,-9.10418 0.82317,-1.04651 0.83679,-3.18342 0.0333,-5.22197 -0.52743,-1.3381 -0.54387,-1.54205 -0.13704,-1.69817 0.25428,-0.0976 0.50586,-0.12699 0.55902,-0.0654 0.16161,0.18733 9.16062,19.38627 10.71372,22.85721 2.55993,5.72102 3.3528,8.91774 2.97246,11.98454 -0.80667,6.50439 -6.39183,11.24083 -11.92521,10.11308 -2.27463,-0.46358 -4.03086,-1.43742 -6.23352,-3.45649 -1.98588,-1.82036 -2.74434,-1.98747 -2.62362,-0.57804 0.042,0.49047 0.10257,2.51176 0.13461,4.49176 0.0672,4.15269 -0.30039,5.40201 -2.36859,8.05009 -2.45841,3.14773 -7.20528,4.7293 -11.30508,3.76663 z m 1.68846,-12.0381 c 2.26506,-1.04492 4.8102,-3.48155 5.84502,-5.59578 0.69003,-1.40983 0.81849,-2.04786 0.79185,-3.93284 -0.044,-3.11194 -1.9167,-8.4 -2.97474,-8.4 -0.24744,0 -1.62846,0.58981 -3.06891,1.31069 -1.44045,0.72088 -5.049,2.42636 -8.019,3.78995 -6.35811,2.91914 -7.20897,3.58682 -7.1796,5.63394 0.0359,2.50657 2.89923,6.18537 5.91003,7.5933 1.91799,0.89691 6.3243,0.69458 8.69535,-0.39926 z m 21.27465,-11.87556 c 2.40063,-1.15236 4.57908,-3.40714 5.07807,-5.25602 0.55788,-2.06702 0.39255,-4.66185 -0.45087,-7.07586 -0.89886,-2.57273 -1.21431,-3.02118 -2.12532,-3.02118 -0.37083,0 -3.35805,1.26273 -6.63828,2.80607 -8.9361,4.20441 -10.31403,4.93838 -10.31403,5.49387 0,0.86203 2.139,4.35486 3.501,5.71684 1.99227,1.99228 3.33909,2.4946 6.399,2.38657 2.14092,-0.0756 2.87094,-0.24408 4.55043,-1.05029 z M 79.1128,241.01285 c -0.1029,-0.10293 0.1024,-0.74418 0.4563,-1.425 0.4259,-0.81928 0.6498,-1.81424 0.6622,-2.94244 0.032,-2.95663 2.0193,-1.7728 -26.0813,-15.53997 -12.8089,-6.27541 -12.4823,-6.16031 -14.5254,-5.11802 -1.0094,0.51496 -1.6616,1.28562 -3.2199,3.80444 -0.3207,0.51842 -0.3601,0.52141 -0.5537,0.042 -0.1382,-0.34231 0.7185,-2.41363 2.5438,-6.15 1.5137,-3.09862 3.9789,-8.16511 5.4782,-11.25886 1.5169,-3.13017 2.9036,-5.625 3.1265,-5.625 0.5561,0 0.5009,0.61317 -0.1929,2.14224 -0.8013,1.76596 -0.7764,3.51263 0.068,4.7884 0.5656,0.85414 2.1338,1.74917 9.675,5.52199 18.7821,9.39656 27.2292,13.34737 28.5375,13.34737 1.637,0 3.0167,-0.97187 4.1526,-2.92506 0.8735,-1.50191 1.6599,-2.04566 1.6599,-1.14775 0,0.23495 -1.191,2.8337 -2.6466,5.775 -1.4556,2.94129 -3.9095,7.94656 -5.4531,11.12281 -2.5631,5.27401 -3.1349,6.14045 -3.6875,5.58785 z M 622.69314,212.025 c -1.07667,-1.72752 -4.60668,-7.48248 -7.68264,-12.525 -1.86204,-3.0525 -3.79278,-6.19913 -4.29051,-6.9925 -0.71205,-1.13496 -0.82644,-1.51872 -0.53652,-1.8 0.28695,-0.27843 0.47883,-0.20028 0.86748,0.35331 0.27447,0.39094 1.04451,1.31559 1.7112,2.05476 1.01208,1.12215 1.43295,1.36804 2.55,1.48985 1.5843,0.17275 3.02163,-0.50545 9.13785,-4.31166 2.145,-1.33487 8.8275,-5.42733 14.85,-9.09435 6.0225,-3.66702 11.40306,-7.00733 11.95683,-7.42291 2.00775,-1.50674 2.23974,-3.52182 0.74508,-6.4714 -0.53565,-1.05703 -0.65682,-1.57019 -0.42543,-1.80157 0.20277,-0.20278 0.41832,-0.21716 0.57756,-0.0385 0.13971,0.15675 2.38977,3.795 5.00007,8.085 2.61033,4.29 5.52411,9.07688 6.47505,10.63751 0.95094,1.56064 1.66293,2.94439 1.5822,3.075 -0.33144,0.5363 -0.90846,0.16188 -1.71297,-1.11157 -1.01463,-1.60601 -2.09442,-2.43248 -3.50853,-2.6854 -1.4187,-0.25374 -3.04146,0.56603 -11.83986,5.98117 -3.96,2.43726 -8.4825,5.20694 -10.05,6.15485 -8.23512,4.97998 -12.58239,7.66918 -13.75458,8.50852 -2.38083,1.70474 -2.7408,3.59408 -1.24542,6.53678 1.041,2.04855 1.04202,2.05314 0.45693,2.05314 -0.24372,0 -0.6324,-0.30375 -0.86379,-0.675 z M 82.8,206.66427 c -5.7936,-0.48997 -11.7411,-3.39876 -16.5292,-8.08401 -4.5115,-4.41467 -6.8937,-9.70808 -7.3558,-16.34558 -0.5897,-8.47007 4.7439,-18.88692 12.24,-23.90511 4.1618,-2.78609 7.7253,-4.01006 12.6013,-4.32827 5.3917,-0.35185 10.4696,1.04708 15.6378,4.30807 5.7767,3.64498 9.3535,8.52431 11.392,15.54063 0.9122,3.13981 0.9092,9.41064 -0.01,12.29688 -0.831,2.62071 -0.6488,2.87107 2.2398,3.07775 4.1052,0.29373 7.5101,-1.02782 10.5661,-4.10095 1.0802,-1.08627 2.3559,-2.71723 2.835,-3.62436 0.479,-0.90713 0.9135,-1.70136 0.9656,-1.76496 0.052,-0.0636 0.4431,0.11266 0.869,0.39169 0.9076,0.59473 0.8989,0.64433 -0.7917,4.49714 -3.1816,7.25058 -8.1518,12.10387 -14.5139,14.17254 -2.1031,0.68383 -2.8877,0.7786 -6.342,0.76611 l -3.9421,-0.0142 -1.9079,1.62321 c -3.5838,3.04895 -9.2768,5.3356 -13.908,5.58632 -0.99,0.0536 -2.8125,0.0118 -4.05,-0.0928 z m 17.8055,-9.70703 c 2.1104,-1.06326 3.7651,-2.8645 5.074,-5.52331 0.8599,-1.7466 0.9679,-2.24561 0.9474,-4.37762 -0.035,-3.68147 -1.5773,-6.80026 -5.4072,-10.937 C 96.558,171.0841 86.856,165.12692 80.1,163.15153 c -2.7961,-0.81754 -6.8216,-0.79694 -9.0757,0.0464 -3.6943,1.3822 -6.7301,5.41946 -7.039,9.36092 -0.5225,6.66646 5.0925,13.65786 16.359,20.36911 6.3304,3.77095 10.441,5.10643 15.3557,4.98898 2.8077,-0.0671 3.3408,-0.1714 4.9055,-0.95974 z m 497.53738,-22.10922 c -2.69109,-3.49359 -5.37216,-6.96984 -5.95794,-7.725 -4.78884,-6.1736 -4.75488,-6.12079 -4.17096,-6.48166 0.17271,-0.10673 0.86316,0.42982 1.53435,1.19235 1.86981,2.12421 3.51408,2.72197 5.45628,1.98355 0.80781,-0.30713 5.92416,-4.13837 16.24539,-12.16489 3.63,-2.82295 8.085,-6.26343 9.9,-7.64553 5.6538,-4.30527 7.35,-5.71875 7.35,-6.12488 0,-0.56153 -2.7111,-4.06614 -4.06521,-5.25508 -1.83528,-1.61139 -3.25728,-2.11367 -5.98479,-2.11396 -1.82595,-2e-4 -2.90229,0.18302 -4.5,0.766 -2.57748,0.9405 -2.95494,0.99246 -3.05886,0.42108 -0.0482,-0.26509 0.87159,-1.15731 2.23851,-2.17135 1.2762,-0.94675 3.53268,-2.65675 5.01444,-3.8 1.48176,-1.14326 2.78847,-2.02033 2.90382,-1.94904 0.24273,0.15002 8.05839,10.15328 12.39969,15.87039 1.62882,2.145 3.72408,4.845 4.65612,6 0.93204,1.155 3.54384,4.52243 5.80395,7.48317 3.91686,5.13103 4.08435,5.40723 3.57582,5.897 -0.96993,0.9342 -9.50664,7.46983 -9.75693,7.46983 -0.66477,0 -0.46368,-0.98747 0.46749,-2.29543 2.18169,-3.06455 2.72583,-4.51431 2.74158,-7.30457 0.0126,-2.25143 -0.0841,-2.72563 -0.82629,-4.05 -1.10742,-1.97606 -3.72519,-5.25 -4.19775,-5.25 -0.20535,0 -1.12644,0.57375 -2.04684,1.275 -3.71805,2.83276 -10.97643,8.43056 -17.21475,13.27636 -3.63,2.81971 -7.97514,6.17454 -9.65589,7.45519 -1.68075,1.28064 -3.552,2.87756 -4.15833,3.5487 -1.04583,1.15762 -1.09611,1.30777 -0.97911,2.92508 0.0934,1.29059 0.35658,2.05044 1.08333,3.12728 0.528,0.78236 0.96,1.5507 0.96,1.70743 0,1.04869 -1.46595,-0.49619 -5.75712,-6.06702 z M 123.15,160.16735 c -3.1672,-0.41659 -6.145,-2.07546 -10.2,-5.68223 -2.6902,-2.39286 -8.9985,-8.10523 -14.55,-13.17548 -2.3925,-2.1851 -5.0568,-4.44896 -5.9206,-5.03079 -2.1425,-1.44321 -3.6445,-1.30815 -5.8161,0.52299 -1.0746,0.90613 -1.6017,1.17975 -1.831,0.95048 -0.2293,-0.22927 0.687,-1.42744 3.1829,-4.16214 1.9276,-2.1121 5.6817,-6.27018 8.3424,-9.24018 2.6607,-2.97 5.0187,-5.44365 5.24,-5.497 0.5769,-0.13906 0.5026,0.991 -0.098,1.48527 -1.2353,1.0172 -2.2,2.76403 -2.1989,3.98174 0,2.15744 -0.3839,1.74134 12.1489,13.09972 12.9136,11.70342 13.8093,12.46276 15.9354,13.50932 1.1534,0.56773 1.9428,0.7206 3.7146,0.71928 2.8508,-0.002 4.5692,-0.78739 6.9835,-3.19131 4.2603,-4.24191 5.0577,-10.40114 1.9566,-15.11291 -1.3042,-1.98162 -5.4329,-6.09188 -12.3901,-12.33481 -3.135,-2.81315 -6.8475,-6.15251 -8.25,-7.42081 -2.9124,-2.63372 -4.4473,-3.48849 -6.2644,-3.48849 -1.4593,0 -2.087,0.27645 -3.8361,1.68966 -1.4355,1.15983 -1.6787,1.23027 -1.5453,0.4476 0.086,-0.50408 8.3246,-9.90609 10.2641,-11.71344 0.9616,-0.895975 1.3968,-0.575525 0.7038,0.51819 -1.0542,1.66396 -1.7091,3.23647 -1.7155,4.11942 -0.017,2.34921 1.4059,3.8699 15.4276,16.48857 6.3471,5.71204 9.457,9.08015 10.9831,11.89517 1.032,1.90343 1.0327,1.90782 1.0324,5.95483 -3e-4,3.86237 -0.043,4.14828 -0.9233,6.17127 -0.5076,1.1667 -1.4504,2.9217 -2.095,3.9 -1.4835,2.25151 -5.7769,6.60285 -7.9249,8.03197 -2.842,1.89076 -7.2252,2.97598 -10.3565,2.56411 z m 453.01566,-15.76297 c -4.88841,-1.04768 -8.31747,-3.08158 -12.76566,-7.57179 -4.76502,-4.81003 -7.16859,-9.00651 -8.26896,-14.43716 -1.18035,-5.82526 0.41028,-12.79913 4.17291,-18.29543 1.15101,-1.68135 4.5618,-5.072405 6.3156,-6.279055 9.37329,-6.448995 21.28671,-6.564295 30.51813,-0.29536 4.26444,2.895935 7.12275,6.314015 9.98187,11.936805 1.09311,2.14966 2.28591,4.11754 2.65071,4.37305 0.8544,0.59845 2.41107,0.59305 3.58194,-0.0124 0.77052,-0.39845 0.98742,-0.4108 1.31733,-0.075 0.32817,0.33405 -0.55029,1.39071 -5.19762,6.25199 -3.0759,3.2175 -5.75532,5.89122 -5.95425,5.94161 -0.75636,0.19156 -0.75924,-0.6535 -0.007,-2.1445 1.00761,-1.99804 1.99113,-5.87368 1.98447,-7.8201 -0.0234,-6.85066 -4.60974,-13.1985 -10.9512,-15.15718 -2.49642,-0.77107 -6.51726,-0.832805 -8.86413,-0.1361 -7.29027,2.16424 -16.11876,10.48604 -19.89297,18.75123 -1.41627,3.10153 -1.79205,4.97312 -1.61655,8.05125 0.2118,3.71456 1.32693,5.96831 4.55061,9.19714 1.94862,1.95174 2.93415,2.67418 4.97946,3.65017 3.26469,1.55787 5.31105,1.97696 9.675,1.98141 1.93875,0.002 3.525,0.0845 3.525,0.18345 0,0.0989 -0.51195,0.67975 -1.13766,1.29073 l -1.13763,1.11089 -2.68737,-0.0245 c -1.47804,-0.0134 -3.62529,-0.22548 -4.77168,-0.47117 z M 155.2516,132.60258 c -0.1131,-0.18295 0.3853,-0.96713 1.1075,-1.74261 0.7222,-0.77548 1.4923,-1.84647 1.7113,-2.37997 0.9083,-2.21242 0.1475,-3.4517 -8.3369,-13.58 -0.622,-0.7425 -4.2755,-5.1975 -8.1189,-9.9 -8.3042,-10.16053 -9.6678,-11.62652 -11.0565,-11.88704 -1.341,-0.25157 -3.0086,0.27485 -4.4174,1.39446 -1.106,0.87889 -1.7907,1.02476 -1.7907,0.38147 0,-0.32691 0.2002,-0.49854 7.2699,-6.23123 2.4365,-1.97579 6.3876,-5.22299 8.7801,-7.21599 2.3925,-1.993 6.9078,-5.70086 10.034,-8.23969 l 5.684,-4.61605 0.9734,1.18204 c 0.5354,0.65011 2.53388,3.06632 4.44104,5.36934 1.90715,2.30302 3.46755,4.36177 3.46755,4.575 0,0.67829 -0.75512,0.42441 -2.87085,-0.9652 -3.15794,-2.07413 -4.92474,-2.6425 -7.60784,-2.44735 -1.7525,0.12746 -2.682,0.39074 -4.35,1.23214 -2.7143,1.36915 -9.4713,6.63716 -9.4713,7.38411 0,0.5402 0.5891,1.30205 8.1892,10.59146 4.3737,5.34588 4.5594,5.44694 6.3557,3.458625 2.9228,-3.235185 2.9559,-7.190905 0.102,-12.201645 -0.8301,-1.45751 -0.9703,-2.76152 -0.2489,-2.31569 0.2835,0.17519 5.63502,6.62661 12.97778,15.64499 2.59859,3.19158 3.13297,4.00851 2.80185,4.28331 -0.3203,0.26583 -0.75864,0.039 -2.0184,-1.04461 -3.10092,-2.66726 -6.91531,-4.063615 -9.32673,-3.414275 -0.6508,0.175245 -1.8469,0.726925 -2.6579,1.225965 -2.2034,1.35574 -2.1059,1.77201 1.363,5.82166 0.9968,1.16369 3.22989,3.84363 4.96239,5.95541 3.25834,3.97167 4.11981,4.67879 5.7,4.67879 1.24402,0 2.3342,-0.60108 4.73792,-2.6123 3.95902,-3.31257 6.24839,-6.29718 7.19015,-9.37367 0.81147,-2.65085 0.66219,-7.080855 -0.3373,-10.00982 C 179.7335,93.38508 179.68903,92.7 180.30228,92.7 c 0.14678,0 1.37086,1.85625 2.72017,4.125 1.34932,2.268745 3.12311,5.16946 3.94175,6.44601 0.81865,1.27656 1.44285,2.43722 1.38712,2.57925 -0.10461,0.26659 -5.63353,4.87155 -17.35133,14.45166 -3.7125,3.03523 -8.48531,6.94274 -10.60624,8.68334 -4.97445,4.08241 -4.89095,4.02372 -5.14215,3.61732 z M 539.25,113.89009 c -0.495,-0.3868 -3.2625,-2.31672 -6.15,-4.28873 -2.8875,-1.972 -7.275,-5.00338 -9.75,-6.7364 -2.475,-1.73302 -6.1875,-4.288395 -8.25,-5.678605 -3.08133,-2.076935 -8.75889,-6.045315 -9.27999,-6.486335 -0.0715,-0.0605 0.0132,-0.25325 0.18828,-0.4283 0.22437,-0.22439 0.80094,-0.0459 1.95426,0.60499 1.82784,1.03158 3.61749,1.20758 5.00154,0.49186 0.84618,-0.43758 2.16636,-2.0406 4.58598,-5.56857 0.73557,-1.0725 2.40144,-3.5025 3.70194,-5.4 1.30047,-1.8975 4.63305,-6.72076 7.40568,-10.71835 7.13733,-10.29062 8.05926,-11.69473 8.35437,-12.72365 0.46062,-1.60612 0.0108,-2.68766 -1.89606,-4.55889 -1.15176,-1.13027 -1.68114,-1.85397 -1.49343,-2.04168 0.27513,-0.27513 1.17708,0.26841 5.71158,3.44203 0.77871,0.54501 4.65585,3.22404 8.61585,5.95339 15.36468,10.5898 19.50297,13.48717 19.58247,13.7104 0.10242,0.28756 -7.65021,11.54895 -8.0454,11.6867 -0.64536,0.22494 -0.59277,-0.93835 0.13821,-3.05614 0.59526,-1.72462 0.77319,-2.82364 0.76812,-4.7442 -0.0126,-4.80869 -1.94106,-7.30538 -9.6972,-12.55496 -1.47555,-0.99868 -2.82876,-1.76713 -3.00714,-1.70767 -0.28635,0.0954 -4.7352,6.35477 -9.70872,13.65974 -1.98051,2.90888 -1.9584,3.07016 0.59727,4.35959 3.56313,1.79772 6.91473,0.91408 10.90326,-2.87462 1.96416,-1.86577 2.81913,-2.28914 2.81913,-1.39599 0,0.16516 -0.43875,0.89001 -0.975,1.61078 -0.53625,0.72077 -3.7425,5.36592 -7.125,10.32256 -3.3825,4.95664 -6.31077,9.016315 -6.5073,9.021515 -0.70137,0.0185 -0.67755,-0.55112 0.0935,-2.235275 1.52907,-3.33993 1.98432,-6.45923 1.30152,-8.91775 -0.17091,-0.61535 -0.99435,-1.86237 -1.84275,-2.79064 -2.22708,-2.43679 -2.49762,-2.3381 -5.56386,2.02956 -6.57438,9.36477 -7.58109,11.015545 -7.58109,12.431115 0,0.73253 0.13695,1.58776 0.30432,1.900505 0.39468,0.73747 5.30973,4.14987 7.71759,5.35813 3.49989,1.75624 7.33434,2.25516 10.66488,1.38765 2.03265,-0.52943 5.44317,-2.19708 6.76092,-3.30588 0.86556,-0.72833 1.55229,-0.79347 1.55229,-0.14724 0,0.52854 -9.94794,11.09918 -10.44231,11.09594 -0.27921,-0.002 -0.91269,-0.31979 -1.40769,-0.70658 z M 194.02397,101.79462 c -5.24197,-8.47085 -8.62398,-14.17318 -8.62398,-14.54069 0,-0.67035 1.13545,-0.10058 2.71641,1.36311 3.27864,3.03545 6.67189,4.6874 10.92883,5.32054 5.43027,0.80765 11.026,-1.48767 13.15271,-5.39514 2.39487,-4.40017 0.53035,-9.20374 -4.14795,-10.68637 -2.07155,-0.65651 -3.64827,-0.69248 -14.00147,-0.31941 -7.91748,0.2853 -9.79014,0.0512 -13.16049,-1.64516 -8.59088,-4.32395 -10.03545,-15.57394 -2.87934,-22.42356 3.24009,-3.10132 6.29721,-4.44913 11.97187,-5.27812 1.61181,-0.23546 3.28299,-0.65903 3.71374,-0.94126 0.73411,-0.48101 0.77313,-0.62388 0.62289,-2.28074 -0.10198,-1.12465 -0.0407,-1.84151 0.16856,-1.97082 0.18086,-0.11178 0.3718,-0.0781 0.42432,0.0749 0.0525,0.15297 1.20798,1.99605 2.5677,4.09575 3.42647,5.29119 5.75596,8.96067 5.8599,9.23068 0.0482,0.12527 -0.13055,0.31151 -0.39727,0.41386 -0.31971,0.12268 -1.03069,-0.29507 -2.08655,-1.22597 -3.88181,-3.42244 -7.64262,-4.80249 -12.29616,-4.51217 -2.77916,0.17339 -4.5772,0.84248 -6.78163,2.52359 -4.3687,3.33162 -4.20263,9.19434 0.32393,11.43546 1.56024,0.77247 1.87849,0.81672 5.85,0.8133 2.31,-0.002 6.8325,-0.12121 10.05,-0.26494 9.22261,-0.41199 12.57658,0.41499 16.21755,3.99873 3.87454,3.81362 5.24679,8.45264 3.9936,13.50066 -1.12505,4.53183 -3.91229,8.19405 -8.28892,10.891 -2.41947,1.49092 -4.34528,2.18141 -8.23556,2.952825 -4.77462,0.94677 -5.24815,1.29032 -5.93583,4.306485 -0.18574,0.81463 -0.49089,1.53221 -0.67812,1.59462 -0.18723,0.0624 -0.65917,-0.4016 -1.04874,-1.03114 z m 305.4664,-14.2907 c -1.73781,-0.85466 -5.45031,-2.65848 -8.25,-4.00851 -2.79969,-1.35002 -7.79037,-3.76237 -11.09037,-5.36078 -3.3,-1.5984 -8.3577,-4.04404 -11.23932,-5.43474 -2.88165,-1.39071 -5.30265,-2.59186 -5.38002,-2.66923 -0.0774,-0.0774 0.0117,-0.29316 0.19821,-0.47954 0.25185,-0.25184 0.74286,-0.16509 1.91169,0.33772 2.00961,0.86452 4.1127,0.73616 5.2554,-0.32074 C 471.4725,69.03483 479.4,53.56587 479.4,52.97411 c 0,-0.0547 1.75737,-3.71023 3.90525,-8.12343 4.22526,-8.68157 5.53593,-11.55154 5.84991,-12.80975 0.44526,-1.7843 -0.99405,-3.90596 -3.30474,-4.87143 -1.10733,-0.46266 -1.40265,-0.80273 -1.10562,-1.27318 0.13323,-0.21105 1.52031,0.30845 3.9552,1.48131 2.0625,0.99349 7.26,3.48191 11.55,5.52982 4.29,2.04791 7.89564,3.81889 8.01252,3.93552 0.11688,0.11662 0.10614,0.38413 -0.024,0.59444 -0.18306,0.29621 -0.60288,0.21177 -1.86249,-0.37457 -1.07358,-0.49975 -2.15355,-0.75797 -3.17817,-0.75991 -2.54832,-0.005 -2.92605,0.48839 -7.45416,9.73324 -10.64031,21.72395 -12.81963,26.43345 -12.97149,28.03156 -0.18699,1.96739 0.48675,2.65789 4.67844,4.79495 5.59998,2.85504 6.64008,3.18732 9.9768,3.18732 2.7627,0 2.97207,-0.0479 5.24439,-1.2 1.75095,-0.88775 3.12849,-1.93079 5.29392,-4.00844 2.04879,-1.96572 3.07254,-2.75263 3.41172,-2.62247 0.28803,0.11053 0.41202,0.37513 0.30567,0.65228 -0.0984,0.25648 -1.74972,2.98909 -3.6696,6.07248 -1.91985,3.08338 -3.84459,6.17966 -4.27716,6.88061 -0.4326,0.70096 -0.85404,1.26522 -0.93654,1.25392 -0.0825,-0.0113 -1.57182,-0.71981 -3.30963,-1.57446 z M 247.84778,71.69665 c -3.9537,-0.83389 -7.41894,-3.46696 -8.95926,-6.80772 -1.82281,-3.95345 -1.6302,-7.3992 0.673,-12.0396 1.16414,-2.34548 1.89783,-3.32623 4.51427,-6.03441 1.71831,-1.77856 3.1242,-3.45048 3.1242,-3.71539 0,-0.26491 -0.69136,-1.50063 -1.53636,-2.74603 -6.97073,-10.27387 -2.40344,-21.03297 9.86684,-23.24317 3.43881,-0.61942 6.54775,0.3868 8.68018,2.80937 1.39142,1.58074 1.88934,3.029 1.88934,5.49534 0,3.2824 -1.36653,5.73941 -5.43696,9.77559 -1.46467,1.45234 -2.66304,2.82977 -2.66304,3.06095 0,0.43076 3.11843,3.18958 5.42387,4.79842 3.3794,2.3583 9.47679,5.85 10.21557,5.85 0.73683,0 0.87543,-0.20043 1.6077,-2.325 0.93915,-2.72482 1.30185,-6.76325 0.78,-8.68491 -0.43852,-1.61483 -1.75051,-2.58436 -3.77386,-2.78882 -1.02899,-0.10398 -1.52466,-0.29637 -1.58542,-0.61535 -0.0682,-0.35805 1.43914,-0.96697 6.59688,-2.66497 3.67689,-1.21049 6.85401,-2.26485 7.06026,-2.34302 0.85939,-0.32571 0.31431,1.08582 -0.67902,1.7584 -1.67557,1.1345 -2.54267,2.74409 -3.3588,6.23484 -0.40876,1.74835 -1.33809,5.16907 -2.06518,7.60158 -1.43355,4.79596 -1.52595,5.38451 -0.9238,5.88425 0.69664,0.57816 5.3922,2.13937 7.02571,2.33594 2.91133,0.35036 5.3192,-1.14834 6.11559,-3.80646 0.34922,-1.16561 1.16396,-1.609 1.61514,-0.87898 0.44988,0.72793 -1.46414,6.89689 -2.81632,9.07712 -0.9631,1.55286 -2.45925,2.82257 -4.38832,3.72414 -1.62724,0.7605 -2.10231,0.83921 -4.95,0.82004 -2.76327,-0.0186 -3.46932,-0.1383 -5.75098,-0.975 -1.43055,-0.52459 -2.74877,-0.9538 -2.92939,-0.9538 -0.18061,0 -1.77767,1.46279 -3.54901,3.25065 -3.83503,3.87079 -7.00159,5.94426 -11.07084,7.24921 -3.02312,0.96948 -6.64687,1.34079 -8.75199,0.89679 z m 14.70525,-8.56002 c 1.88555,-0.64248 4.87115,-3.088 4.9884,-4.08604 0.0813,-0.6917 -0.16912,-0.92119 -2.25,-2.06227 C 260.24568,54.22143 253.9651,49.63606 250.96411,46.52814 250.31187,45.85266 249.55133,45.3 249.27402,45.3 c -0.65855,0 -2.60498,2.16667 -3.19645,3.55813 -2.08245,4.89911 2.81724,12.15421 9.67242,14.32222 1.68017,0.53137 5.18128,0.50887 6.80304,-0.0437 z M 257.3902,35.22316 c 1.7242,-1.55772 2.82205,-3.94936 2.64737,-5.76728 -0.19265,-2.00494 -1.44621,-4.57009 -3.0945,-6.33224 -1.60046,-1.71103 -2.92179,-2.26043 -4.9001,-2.03744 -1.09884,0.12385 -1.55705,0.36124 -2.2123,1.14612 -2.40983,2.88659 -0.93957,7.17534 4.38557,12.79268 0.66477,0.70125 1.38268,1.275 1.59535,1.275 0.21267,0 0.92304,-0.48458 1.57861,-1.07684 z M 459.75,68.85136 c -0.165,-0.0557 -9.44625,-2.83372 -20.625,-6.17337 -14.91351,-4.45542 -20.325,-6.18936 -20.325,-6.51254 0,-0.33702 0.22896,-0.39454 0.975,-0.24497 3.42924,0.68752 4.16601,0.61114 5.57976,-0.57845 1.06134,-0.89305 1.54683,-2.28872 6.05001,-17.39203 7.15452,-23.99567 6.89871,-22.96981 6.1314,-24.5868 -0.60045,-1.26536 -1.57857,-2.01122 -3.43617,-2.62029 -0.77946,-0.25556 -1.39098,-0.654 -1.44699,-0.9427697 -0.0534,-0.27508 0.056,-0.50014 0.24303,-0.50014 0.30273,0 4.05939,1.1056597 19.94865,5.8712797 2.47206,0.74144 4.5927,1.4461 4.71249,1.56591 0.11982,0.1198 0.11784,0.37964 -0.005,0.57741 -0.17061,0.27605 -0.49869,0.26111 -1.41249,-0.0643 -0.65466,-0.23316 -1.94832,-0.42985 -2.87481,-0.43709 -2.87733,-0.0225 -3.69135,1.02435 -5.48718,7.05663 -0.5862,1.96911 -2.87919,9.6552 -5.09553,17.0802 -4.29504,14.38895 -4.68711,15.89201 -4.45803,17.09035 0.31137,1.6288 2.91591,2.84776 10.01868,4.68889 3.38166,0.87657 6.31293,0.70886 8.80659,-0.50386 2.11302,-1.02762 6.05283,-4.78332 7.74927,-7.38717 1.27449,-1.95618 1.42842,-2.09192 1.98327,-1.74901 0.31683,0.19582 -0.21024,1.72726 -2.44536,7.10521 -1.56708,3.77057 -3.0204,7.29434 -3.22962,7.83059 -0.35604,0.9127 -0.62208,1.07464 -1.35756,0.82636 z M 393,54.39526 C 382.05879,53.26238 374.73732,48.5015 370.66767,39.87337 369.25788,36.88451 368.69241,34.63295 368.4516,31.05 367.87968,22.53961 370.17735,15.80579 375.5265,10.31541 380.12343,5.59713 386.13705,3 392.46519,3 c 3.68922,0 9.01845,0.75733 11.88666,1.68918 7.58406,2.4639903 13.4418,8.72375 15.68442,16.76082 0.96291,3.45097 0.95415,9.35585 -0.0198,13.3332 -1.79946,7.34836 -6.17328,13.19527 -12.61647,16.86555 -3.62637,2.06572 -9.73062,3.22999 -14.4,2.74651 z m 4.6029,-3.34352 c 6.48855,-2.87019 10.48029,-13.59437 10.51581,-28.25174 0.0111,-4.55696 -0.0757,-5.55927 -0.65694,-7.5928 -1.32405,-4.63196 -3.12093,-7.1077497 -6.29226,-8.6696 -1.88268,-0.9272 -2.19837,-0.9876 -5.1624,-0.9876 -2.67015,0 -3.36882,0.10433 -4.52979,0.67643 -4.56996,2.2520103 -7.65138,7.49418 -9.44619,16.07015 -1.12743,5.38694 -1.35309,14.10821 -0.47451,18.33827 1.30239,6.27064 4.37427,9.95434 9.14991,10.97224 1.89771,0.40449 5.35608,0.12599 6.89637,-0.55535 z m -64.11307,1.301 c -5.66142,-1.17582 -9.01257,-2.94093 -12.7917,-6.73763 -2.33505,-2.34587 -3.10662,-3.3651 -4.25751,-5.62401 -0.7731,-1.5174 -1.67868,-3.6774 -2.0124,-4.8 -3.61026,-12.14447 2.4561,-25.5322497 14.15562,-31.23988 4.104,-2.00215 6.83064,-2.59049 11.91615,-2.57119 3.81738,0.0145 4.71732,0.11924 7.35,0.85564 4.98405,1.39411 6.27084,1.56089 7.50441,0.97265 1.12263,-0.53535 1.78062,-1.71022 1.48302,-2.64795 C 356.68685,0.08597 356.82082,0 357.7109,0 c 1.01769,0 1.04643,0.0312 0.89769,0.975 -0.0845,0.53625 0.0588,3.675 0.31851,6.9750003 0.61989,7.8770497 0.61752,8.9224597 -0.0201,8.7969997 -0.27108,-0.0533 -0.59307,-0.2995 -0.71553,-0.547 -0.12249,-0.2475 -0.7332,-1.5041 -1.35711,-2.79244 -3.54843,-7.32703 -11.27343,-10.93375 -18.77106,-8.764 -4.25436,1.23119 -8.19522,4.8460403 -10.0323,9.20239 -2.48976,5.9041 -2.39454,16.3653 0.21909,24.06607 2.6148,7.70418 7.48773,11.60004 14.48778,11.58277 6.28848,-0.0155 11.46597,-2.6976 16.16049,-8.37164 0.60378,-0.72976 1.1668,-1.25785 1.2511,-1.17353 0.0843,0.0843 0.18642,0.93508 0.22686,1.89057 l 0.0735,1.73726 -2.58286,2.43628 c -2.93355,2.76705 -6.4983,4.8344 -10.16715,5.89636 -2.93772,0.85032 -11.03307,1.1025 -14.21016,0.44265 z"
     id="path5800"
     inkscape:connector-curvature="0" />
</svg>
