<?xml version="1.0" encoding="UTF-8" standalone="no"?>
<!-- Created with Inkscape (http://www.inkscape.org/) -->

<svg
   xmlns:dc="http://purl.org/dc/elements/1.1/"
   xmlns:cc="http://creativecommons.org/ns#"
   xmlns:rdf="http://www.w3.org/1999/02/22-rdf-syntax-ns#"
   xmlns:svg="http://www.w3.org/2000/svg"
   xmlns="http://www.w3.org/2000/svg"
   xmlns:sodipodi="http://sodipodi.sourceforge.net/DTD/sodipodi-0.dtd"
   xmlns:inkscape="http://www.inkscape.org/namespaces/inkscape"
   id="svg5802"
   version="1.1"
   inkscape:version="0.91 r13725"
   width="729"
   height="469.00006"
   viewBox="0 0 729 469.00006"
   sodipodi:docname="asel.svg">
  <metadata
     id="metadata5808">
    <rdf:RDF>
      <cc:Work
         rdf:about="">
        <dc:format>image/svg+xml</dc:format>
        <dc:type
           rdf:resource="http://purl.org/dc/dcmitype/StillImage" />
        <dc:title></dc:title>
      </cc:Work>
    </rdf:RDF>
  </metadata>
  <defs
     id="defs5806" />
  <sodipodi:namedview
     pagecolor="#ffffff"
     bordercolor="#666666"
     borderopacity="1"
     objecttolerance="10"
     gridtolerance="10"
     guidetolerance="10"
     inkscape:pageopacity="0"
     inkscape:pageshadow="2"
     inkscape:window-width="1920"
     inkscape:window-height="1017"
     id="namedview5804"
     showgrid="false"
     fit-margin-top="0"
     fit-margin-left="0"
     fit-margin-right="0"
     fit-margin-bottom="0"
     inkscape:zoom="0.5"
     inkscape:cx="1157.5803"
     inkscape:cy="301.86947"
     inkscape:window-x="-8"
     inkscape:window-y="-8"
     inkscape:window-maximized="1"
     inkscape:current-layer="svg5802" />
  <path
     style="fill:#a0a3a4"
     d="m 19.16667,468.33335 c -1.37634,-1.37633 -0.59389,-7.71502 1.33824,-10.84128 1.31815,-2.13281 3.07368,-3.45777 5.125,-3.86803 4.17398,-0.8348 666.83958,-0.80559 674.83161,0.0298 5.60481,0.58582 6.45113,0.97556 8.14295,3.75 2.14099,3.51102 2.4821,8.60966 0.69553,10.39623 -0.92868,0.92868 -79.00741,1.2 -345.33332,1.2 -189.27335,0 -344.43334,-0.3 -344.80001,-0.66667 z M 24.5,446.00002 c 0,-0.66471 114,-1 340.00001,-1 225.99999,0 339.99999,0.33529 339.99999,1 0,0.66471 -114,1 -339.99999,1 -226.00001,0 -340.00001,-0.33529 -340.00001,-1 z m 4.73095,-10.75 c 0.42298,-1.5125 0.73193,-6.6875 0.68657,-11.5 l -0.0825,-8.75 334.85155,0 334.85152,0 -0.71243,2.75 c -0.91824,3.54445 -0.90195,11.71095 0.0329,16.5 l 0.73204,3.75 -335.56436,0 -335.56437,0 0.76905,-2.75 z M 24.5,407.00002 c 0,-0.66471 114,-1 340.00001,-1 225.99999,0 339.99999,0.33529 339.99999,1 0,0.66471 -114,1 -339.99999,1 -226.00001,0 -340.00001,-0.33529 -340.00001,-1 z M 35.12321,370.4605 c -1.03757,-2.70388 -0.69553,-179.79765 0.35046,-181.45212 0.6569,-1.03904 1.26073,-1.17396 1.99002,-0.44468 1.53504,1.53505 0.95117,182.63148 -0.59048,183.1453 -0.61974,0.20655 -1.40724,-0.35527 -1.75,-1.2485 z M 691.5,280.00002 c 0,-81.11111 0.17754,-92 1.5,-92 1.32246,0 1.5,10.88889 1.5,92 0,81.11111 -0.17754,92 -1.5,92 -1.32246,0 -1.5,-10.88889 -1.5,-92 z m -241.49999,65.58585 c -3.85,-1.27554 -8.50037,-2.6005 -10.33416,-2.94434 -10.71701,-2.00949 -16.43591,-15.8443 -11.26041,-27.24044 5.40547,-11.90251 22.66885,-12.6203 29.08225,-1.2092 1.86375,3.3161 2.16407,5.13201 1.85638,11.22503 -0.30756,6.09071 -0.81993,7.86268 -3.16094,10.93191 -2.95872,3.87908 -2.831,5.65119 0.40728,5.65119 2.51788,0 3.60365,2.7381 1.79634,4.53006 -1.1772,1.1672 -2.44448,1.02453 -8.38674,-0.94421 z m -2.44461,-9.61549 c 5.44011,-2.91146 6.72406,-16.38287 2.03696,-21.37206 -6.59523,-7.0203 -16.09235,-1.23406 -16.09235,9.80448 0,9.53925 7.03185,15.32646 14.05539,11.56758 z m -392.36431,6.3874 c -1.27312,-1.27312 -0.71433,-2.07661 3.28462,-4.72299 2.18665,-1.44705 4.61914,-3.64435 5.40554,-4.88289 0.7864,-1.23853 3.02512,-10.57688 4.97495,-20.75188 10.36212,-54.07396 20.78449,-107.20305 21.28695,-108.51246 0.42245,-1.10089 2.2234,-1.48754 6.92866,-1.48754 6.99897,0 7.65689,0.5275 8.73057,7 1.24328,7.49481 24.5989,121.59745 25.21833,123.20278 0.36136,0.93653 2.86704,3.12094 5.56816,4.85425 8.57315,5.50137 7.45634,5.94297 -15.02985,5.94297 -11.48656,0 -20.1894,-0.40194 -20.5269,-0.94803 -0.32226,-0.52142 1.44703,-2.43392 3.93175,-4.25 2.48472,-1.81608 4.74449,-4.20197 5.02172,-5.30197 0.27723,-1.1 -0.51589,-6.5 -1.76249,-12 l -2.26653,-10 -10.89279,-0.2855 c -5.99103,-0.15703 -11.27761,0.0993 -11.74795,0.56967 -1.22428,1.22428 -4.89513,20.8456 -4.22607,22.58913 0.30775,0.80199 2.33984,2.69191 4.51576,4.19983 2.17592,1.50791 3.79282,3.23333 3.59312,3.83426 -0.40604,1.22183 -30.83266,2.12525 -32.00755,0.95037 z m 47.10051,-43.2078 c 1.02553,-0.65062 0.45646,-4.922 -2.76247,-20.73469 -4.34277,-21.33341 -4.76958,-23.00815 -5.64147,-22.13626 -1.35176,1.35176 -8.71368,40.42902 -7.97784,42.34659 0.59278,1.54474 14.09231,1.97684 16.38178,0.52436 z m 47.28534,42.44275 c -0.76656,-0.92365 -1.03101,-8.49371 -0.84603,-24.21818 0.22693,-19.29065 0.4984,-22.87453 1.73266,-22.87453 0.90806,0 2.51008,2.83509 4.22068,7.46929 6.10264,16.5327 11.94195,25.52396 18.87264,29.05973 8.74423,4.46098 14.94851,1.17396 14.93753,-7.91388 -0.012,-9.93319 -4.80595,-20.24199 -20.91887,-44.98347 -5.95727,-9.14742 -12.4509,-19.86222 -14.43029,-23.81067 -10.97205,-21.88681 -10.01369,-42.51515 2.28793,-49.24698 6.94795,-3.80213 17.69736,-4.08551 26.18411,-0.69028 7.94554,3.17872 8.36358,3.18153 13.3827,0.0902 4.98236,-3.06872 7.3002,-3.13348 8.01349,-0.22391 0.30338,1.2375 0.42445,12.11279 0.26905,24.16731 -0.21773,16.89021 -0.58054,22.0165 -1.58176,22.34974 -0.76949,0.25612 -1.78688,-0.93334 -2.49527,-2.91731 -2.98677,-8.36493 -11.11316,-23.08684 -15.33697,-27.78473 -5.67136,-6.30792 -11.35059,-9.4475 -15.45788,-8.54539 -4.1235,0.90568 -5.24567,3.66067 -4.64095,11.39385 0.78571,10.04769 4.03958,16.42104 23.52914,46.08653 16.63131,25.31487 20.16581,33.33425 20.18928,45.80718 0.0167,8.86153 -1.63673,14.42229 -5.69956,19.16879 -7.43278,8.68353 -17.78475,10.9317 -30.55962,6.63671 -9.50943,-3.19713 -9.63971,-3.19833 -15.66616,-0.1445 -4.01083,2.03244 -5.06758,2.23097 -5.98585,1.12453 z m 65.44826,0.44806 c -0.3346,-0.54139 1.67133,-2.62214 4.45762,-4.6239 2.78629,-2.00175 5.505,-4.45986 6.04158,-5.46246 1.38831,-2.59409 1.31288,-116.12579 -0.0792,-119.15736 -0.58012,-1.26338 -3.3322,-3.79747 -6.11573,-5.63132 -3.11507,-2.05227 -4.70387,-3.69136 -4.13223,-4.263 0.54678,-0.54678 15.50265,-0.82057 36.36573,-0.66573 l 35.437,0.263 0.26795,24.32678 c 0.25015,22.70995 0.15167,24.30439 -1.48174,23.98982 -1.21711,-0.23439 -3.90432,-5.50853 -8.82815,-17.32678 -3.89315,-9.3444 -7.61933,-17.98296 -8.28041,-19.19679 -1.44969,-2.66184 -5.37592,-3.52095 -14.17765,-3.10224 l -6.5,0.30921 0,27 0,27 3.49565,0 c 3.16092,0 3.99873,-0.67029 8.74943,-7 2.88957,-3.85 5.81653,-7 6.50434,-7 1.74875,0 1.81908,39.64383 0.0714,40.22641 -0.64856,0.21618 -3.45247,-2.97577 -6.23091,-7.09323 -5.10656,-7.56758 -7.4521,-9.28777 -11.08988,-8.13318 -1.93712,0.61482 -2,1.51303 -2,28.56739 l 0,27.93261 9.30887,0 c 5.92459,0 9.89227,-0.45444 10.91358,-1.25 0.88259,-0.6875 4.9671,-9.575 9.07669,-19.75 4.56802,-11.31002 8.00227,-18.5 8.83643,-18.5 1.11545,0 1.36443,4.47077 1.36443,24.5 l 0,24.5 -35.68322,0.26256 c -22.62318,0.16646 -35.90588,-0.0977 -36.29158,-0.72179 z m 86.99224,-0.0126 c -0.33033,-0.53448 1.67909,-2.60958 4.46539,-4.61134 2.78629,-2.00175 5.505,-4.45986 6.04158,-5.46246 1.04805,-1.95831 1.39579,-114.78601 0.36561,-118.62679 -0.32047,-1.19481 -3.03114,-3.79807 -6.02371,-5.78503 -2.99258,-1.98695 -5.17268,-4.04688 -4.84466,-4.57762 0.80332,-1.2998 43.47836,-1.29639 43.47836,0.003 0,0.53265 -2.475,2.79684 -5.5,5.03154 l -5.5,4.06309 0,60.46845 0,60.46846 7.34501,0 c 5.74039,0 7.68233,-0.38231 8.88902,-1.75 0.84921,-0.9625 5.01705,-9.4 9.26187,-18.75 8.14148,-17.93312 9.19401,-19.80968 10.61741,-18.92997 0.48768,0.3014 0.88669,11.2733 0.88669,24.382 0,20.81099 -0.20063,23.91098 -1.58179,24.44098 -2.71665,1.04248 -67.2453,0.6958 -67.90078,-0.3648 z m 169.67239,-1.05384 c -5.04969,-3.07868 -6.18982,-7.02823 -6.18982,-21.44221 l 0,-12.53212 2.87928,0 2.87928,0 0.41135,12.35599 c 0.48733,14.6382 1.72764,17.64401 7.28056,17.64401 2.48673,0 3.96303,-0.71022 5.47695,-2.63486 1.84427,-2.3446 2.07258,-4.00397 2.07258,-15.06336 l 0,-12.4285 3.25,0.31336 3.25,0.31336 -0.008,12.5 c -0.009,14.11843 -0.90415,17.01988 -6.38987,20.71267 -4.30021,2.89474 -10.41751,3.00209 -14.9123,0.2617 z m 44.06017,1.36339 c -0.93261,-0.37632 -1.25,-4.91114 -1.25,-17.85978 l 0,-17.35539 4.50611,-0.67574 c 6.16083,-0.92387 14.46992,0.25226 18.31897,2.59301 4.8909,2.97433 7.16682,7.49442 7.17118,14.2423 0.007,10.48573 -4.60073,16.60948 -14.01629,18.62875 -5.2012,1.11546 -12.4993,1.32695 -14.72997,0.42685 z m 15.18444,-6.31279 c 3.58166,-1.36175 6.55733,-6.68014 6.56182,-11.72788 0.007,-8.20505 -3.96808,-12.29705 -11.9466,-12.29705 l -4.04966,0 0,12.5 0,12.5 3.4349,0 c 1.8892,0 4.58899,-0.43878 5.99954,-0.97507 z m 82.01598,5.56847 c -4.11209,-1.79111 -8.22576,-6.87896 -9.03062,-11.16919 -0.36287,-1.9343 -0.45895,-5.93859 -0.2135,-8.89843 1.33066,-16.0459 20.50837,-21.28598 30.17087,-8.24381 3.21626,4.34121 3.43791,14.87748 0.43585,20.71803 -3.86574,7.52084 -13.592,10.97807 -21.3626,7.5934 z m 11.69998,-5.67389 c 4.74707,-2.54055 6.38634,-13.88677 2.8454,-19.69444 -3.83763,-6.29429 -10.57316,-6.40853 -14.7458,-0.25009 -3.90707,5.76647 -2.49451,17.03589 2.49998,19.94491 2.31178,1.34649 6.88412,1.3463 9.40042,-3.8e-4 z M 388.50001,324.535 l 0,-17.53498 2.88337,0 c 3.69262,0 3.91663,0.93461 3.62263,15.1148 -0.12983,6.26186 0.15761,12.15134 0.63876,13.08774 0.65347,1.2718 2.45353,1.77779 7.11501,2 5.4744,0.26095 6.24022,0.54291 6.24022,2.29746 0,1.85138 -0.76166,2.02118 -10.25,2.28498 l -10.24999,0.28499 0,-17.53499 z M 414.5,324.5 l 0,-17.5 3.00001,0 3,0 0,17.5 0,17.5 -3,0 -3.00001,0 0,-17.5 z m 86.66668,16.83333 c -0.36667,-0.36664 -0.66667,-8.18916 -0.66667,-17.38335 0,-15.92428 0.0956,-16.74171 2.01759,-17.24431 4.25864,-1.11366 4.9824,1.39707 4.9824,17.28399 0,8.16573 -0.27314,15.55859 -0.60699,16.42857 -0.60359,1.57295 -4.45329,2.18817 -5.72633,0.91512 z m 46.31521,-0.02 c -0.01,-0.44735 2.33769,-8.18 5.217,-17.18367 5.68005,-17.76164 7.04876,-19.70477 12.22007,-17.34857 2.02517,0.92273 3.24615,3.70015 7.5,17.06066 2.79457,8.77718 5.08104,16.45344 5.08104,17.05836 0,0.60492 -1.34132,1.09986 -2.98071,1.09986 -2.57078,0 -3.29281,-0.65327 -5.25,-4.75 -1.82662,-3.82342 -2.8293,-4.814 -5.14012,-5.07808 -5.35622,-0.61212 -7.36618,0.53785 -8.87217,5.07605 -1.22182,3.68189 -1.83648,4.29405 -4.58401,4.56539 -1.74515,0.17235 -3.18114,-0.0526 -3.1911,-0.5 z m 18.01253,-16.06331 c -0.009,-2.90905 -2.02975,-9.25 -2.94742,-9.25 -1.10772,0 -4.18241,8.97188 -3.46983,10.12486 0.29748,0.48133 1.86431,0.87514 3.48185,0.87514 2.13639,0 2.93945,-0.47876 2.9354,-1.75 z m 20.51118,15.56697 c -0.26566,-0.72433 -0.6006,-7.39197 -0.74431,-14.81697 l -0.26129,-13.5 -4.30447,-0.31016 c -4.91205,-0.35394 -6.65384,-2.65033 -3.66688,-4.83445 2.57273,-1.88123 21.36997,-1.88123 23.9427,0 2.98696,2.18412 1.24517,4.48051 -3.66688,4.83445 L 593,312.50002 l -0.5,14.5 -0.5,14.5 -2.75569,0.31697 c -1.61541,0.18581 -2.95555,-0.22797 -3.23871,-1 z m 56.4944,-16.2557 0,-17.43872 4.54603,-0.68172 c 4.9478,-0.74197 11.56327,0.0121 14.66387,1.67151 2.5528,1.36621 5.06007,7.43408 4.21926,10.21106 -0.36247,1.19713 -1.60365,3.20816 -2.75819,4.46895 -1.85347,2.02404 -1.93945,2.5481 -0.73456,4.47743 1.3693,2.19261 4.0295,11.08477 4.05172,13.54358 0.008,0.87282 -1.03605,1.20825 -3.11228,1 -2.88841,-0.28972 -3.26818,-0.78414 -5.03296,-6.55258 -1.5384,-5.02847 -2.38712,-6.35927 -4.37362,-6.85785 -4.59572,-1.15345 -5.46927,-0.0249 -5.46927,7.06569 l 0,6.53138 -3,0 -3,0 0,-17.43873 z m 15.38124,-4.53334 c 2.66253,-2.61261 1.48789,-6.42528 -2.48676,-8.07164 -2.19598,-0.9096 -3.61825,-0.99182 -4.76272,-0.27531 -2.02276,1.26636 -2.70527,7.92306 -1.02049,9.95309 1.5174,1.82836 5.57244,1.04082 8.26997,-1.60614 z M 451.75001,290.33774 c -0.93298,-0.37647 -1.25,-4.93039 -1.25,-17.95604 l 0,-17.45165 10.25,0.28499 c 9.48834,0.2638 10.25,0.4336 10.25,2.28498 0,1.74359 -0.83333,2.0641 -6.5,2.5 l -6.5,0.5 -0.3051,4.20085 -0.30509,4.20085 6.29505,0.29915 c 5.23286,0.24867 6.35553,0.6164 6.65349,2.17932 0.5031,2.639 -1.50665,3.5868 -7.64314,3.60452 l -5.30479,0.0153 0.30479,4.75 0.30479,4.75 6.65975,0.29363 c 7.10836,0.31341 9.09667,1.8071 6.22633,4.67743 -1.13779,1.13779 -3.62126,1.50874 -9.70751,1.44999 -4.49821,-0.0434 -8.74107,-0.30592 -9.42857,-0.58333 z m 26.92964,-0.39491 c -1.64382,-0.65914 -2.22696,-1.58825 -2,-3.18661 0.29872,-2.10383 0.73158,-2.23327 6.40945,-1.91671 4.66992,0.26036 6.47618,-0.0476 7.75,-1.32143 3.27511,-3.27512 1.69084,-5.52173 -6.94437,-9.84757 -8.59445,-4.30543 -9.75363,-12.49031 -2.4646,-17.40238 6.10178,-4.11199 18.319,-2.24008 15.49219,2.37371 -0.83772,1.36728 -2.1902,1.6999 -6.07379,1.49378 -8.91167,-0.473 -9.87531,5.00504 -1.5604,8.8704 9.02835,4.19703 11.60801,8.71682 8.80457,15.4264 -1.05215,2.51815 -2.60032,4.09067 -5.02458,5.10359 -3.90474,1.6315 -10.84487,1.82773 -14.38847,0.40682 z m 33.97221,-0.25984 c -0.64234,-0.77396 -1.20825,-7.06215 -1.37245,-15.25 L 511,260.50002 l -4.5,-0.5 c -3.66666,-0.40741 -4.49999,-0.87037 -4.49999,-2.5 0,-1.88594 0.75985,-2.01594 13.32341,-2.27954 l 13.32342,-0.27953 -0.32342,2.27953 c -0.26886,1.89498 -1.08257,2.36389 -4.82342,2.77954 l -4.5,0.5 -0.27941,13.93297 c -0.27218,13.57234 -0.94472,16.56703 -3.72059,16.56703 -0.69031,0 -1.74698,-0.59266 -2.34814,-1.31703 z m 15.01857,0.45758 c -1.05889,-0.68248 -0.23307,-4.29589 4.05634,-17.74874 l 5.38591,-16.89181 4.44366,0 4.44366,0 5.15411,15 c 5.63793,16.40804 6.12707,18.98625 3.77345,19.88943 -2.46273,0.94503 -5.20153,-1.08385 -5.92799,-4.3914 -0.90584,-4.12425 -3.04544,-6.00091 -6.821,-5.98272 -4.2918,0.0207 -5.64988,1.05184 -8.0962,6.14731 -2.10342,4.38124 -3.97994,5.54542 -6.41194,3.97793 z m 17.2524,-16.01569 c 0.71258,-1.15298 -2.36211,-10.12486 -3.46983,-10.12486 -0.91767,0 -2.93815,6.34095 -2.94742,9.25 -0.004,1.27124 0.79901,1.75 2.9354,1.75 1.61754,0 3.18437,-0.39381 3.48185,-0.87514 z m 20.72903,15.55811 c -0.64234,-0.77396 -1.20825,-7.06215 -1.37245,-15.25 L 564,260.50002 l -4.5,-0.5 c -3.66667,-0.40741 -4.5,-0.87037 -4.5,-2.5 0,-1.88533 0.75968,-2.016 13.25,-2.27903 l 13.25,-0.27902 0,2.47423 c 0,2.24228 -0.44531,2.50281 -4.75,2.77903 l -4.75,0.30479 -0.27873,14.45874 c -0.27511,14.27114 -0.68624,15.983 -3.84883,16.02595 -0.62015,0.008 -1.61942,-0.57735 -2.22058,-1.30172 z m 20.94525,-0.066 c -0.7869,-0.94816 -1.06121,-6.52895 -0.87244,-17.75 L 586,255.50002 l 10.32424,-0.2858 c 10.252,-0.28381 10.32198,-0.26981 10,2 -0.29096,2.05121 -0.99132,2.33711 -6.82424,2.7858 l -6.5,0.5 0,4 0,4 6,0.5 c 5.6,0.46667 6,0.66667 6,3 0,2.33333 -0.4,2.53333 -6,3 l -6,0.5 0,4.5 0,4.5 6.79935,0.29681 c 7.14782,0.31203 9.16493,1.73391 6.69008,4.71592 -1.69673,2.04445 -18.21028,2.13101 -19.89232,0.10428 z M 362.42309,283.0769 c -3.26705,-3.26704 -3.71514,-6.64457 -1.46007,-11.0054 1.66841,-3.22633 3.32575,-4.07152 7.98392,-4.07152 6.73848,0 10.72068,6.26975 8.0468,12.66925 -2.54402,6.0887 -9.70615,7.27218 -14.57065,2.40767 z m 11.4309,-1.52917 c 3.01685,-2.79593 3.32458,-5.13395 1.09474,-8.31751 -2.08613,-2.97836 -5.10057,-4.47551 -7.48649,-3.71825 -2.99978,0.95209 -2.33877,2.32499 1.28777,2.67465 3.10755,0.29963 3.25,0.49959 3.25,4.56214 0,4.17548 -0.73057,5.30521 -2.05008,3.17019 -0.36746,-0.59456 -1.74402,-0.81099 -3.05901,-0.48095 -2.23294,0.56044 -2.39091,0.32645 -2.39091,-3.54141 0,-3.56795 -0.20773,-3.9691 -1.5,-2.89661 -3.74815,3.11069 0.2168,11 5.52829,11 1.47382,0 3.87037,-1.10351 5.32569,-2.45225 z m -4.85398,-6.54771 c 0.33992,-0.55 0.14148,-1 -0.44098,-1 -0.58246,0 -1.05902,0.45 -1.05902,1 0,0.55 0.19844,1 0.44098,1 0.24254,0 0.7191,-0.45 1.05902,-1 z m -13.75,-37.0801 c -1.55017,-0.90289 -1.74825,-2.81205 -1.73469,-16.71959 0.008,-8.63517 0.34592,-16.19449 0.75,-16.79849 1.13734,-1.70006 8.46871,-2.48451 13.84056,-1.48094 6.32772,1.18214 9.39413,4.58093 9.39413,10.41238 0,6.99763 -3.7393,10.61878 -12,11.62086 l -4.5,0.54588 -0.30988,5.46969 c -0.28336,5.00162 -1.46089,8.07751 -3.06256,7.9999 -0.34516,-0.0167 -1.41506,-0.48908 -2.37756,-1.04969 z m 13.26422,-19.73033 c 2.78036,-2.2514 2.97252,-6.99449 0.36078,-8.90564 -1.03125,-0.75462 -3.225,-1.23971 -4.875,-1.07798 -2.77372,0.27187 -3.02362,0.62325 -3.31309,4.65845 -0.1722,2.40043 -0.0738,4.98793 0.21862,5.75 0.75044,1.95561 4.95917,1.72062 7.60869,-0.42483 z m 14.59798,19.51613 c -1.45616,-1.06477 -1.62961,-3.27781 -1.38814,-17.71125 l 0.27594,-16.49445 8.78744,-0.28948 c 8.57446,-0.28246 8.85924,-0.21767 11.74999,2.67308 3.5791,3.57909 3.96685,8.56993 0.96256,12.38927 -2.17185,2.76106 -2.52087,4.7891 -1.08029,6.27713 0.50584,0.5225 1.58391,3.52135 2.3957,6.66412 1.22651,4.74831 1.25089,5.90093 0.14421,6.81939 -2.41696,2.0059 -5.20196,-0.63536 -6.92708,-6.56959 -1.15645,-3.97803 -2.28791,-5.85097 -4.00814,-6.63476 -4.2582,-1.94016 -5.52439,-0.54106 -5.52439,6.10427 0,4.82445 -0.36384,6.19092 -1.86186,6.99264 -1.29735,0.69432 -2.36641,0.6275 -3.52594,-0.22037 z m 13.16528,-20.2624 c 2.4485,-1.715 3.01156,-6.25425 1.02251,-8.2433 -0.66,-0.66 -2.90999,-1.2 -4.99999,-1.2 l -3.8,0 0,4.83333 c 0,2.65834 0.3,5.13334 0.66667,5.5 1.17231,1.17232 4.81786,0.71602 7.11081,-0.89003 z m 20.21235,19.3067 c -5.66185,-3.85341 -7.39082,-7.08624 -7.77197,-14.53197 -0.46101,-9.00574 2.31489,-14.70583 8.78214,-18.0334 7.8453,-4.03663 16.02275,-2.05294 21.43821,5.20049 3.02092,4.04619 3.00177,18.1996 -0.0302,22.29155 -3.67838,4.96447 -8.15819,7.32333 -13.90801,7.32333 -3.75078,0 -6.12753,-0.62839 -8.51017,-2.25 z m 11.44461,-3.72507 c 5.77201,-2.19452 8.56304,-13.26154 5.05521,-20.04495 -3.6639,-7.0852 -13.01458,-6.75456 -16.07431,0.56839 -3.06434,7.33399 -0.59612,17.23687 4.84098,19.42281 2.95898,1.18963 3.18535,1.1916 6.17812,0.0538 z m 19.17776,4.68077 c -1.45616,-1.06477 -1.62961,-3.27781 -1.38814,-17.71125 l 0.27594,-16.49445 10,0 c 9.33333,0 10,0.13333 10,2 0,1.74359 -0.83333,2.0641 -6.5,2.5 l -6.5,0.5 0,4.5 0,4.5 6,0.5 c 5.16667,0.43056 6,0.77778 6,2.5 0,1.62224 -0.75551,2.05034 -4,2.26654 -8.50786,0.56693 -8.5,0.55979 -8.5,7.71733 0,5.26289 -0.34167,6.62862 -1.86186,7.4422 -1.29735,0.69432 -2.36641,0.6275 -3.52594,-0.22037 z m 25.05299,0.0387 c -1.52315,-1.11375 -1.68591,-3.11847 -1.44113,-17.75 l 0.27594,-16.4944 10.25,-0.28498 10.25,-0.28499 0,2.53499 c 0,2.41762 -0.2662,2.53569 -5.75,2.55029 -7.2524,0.0193 -8.48417,0.79576 -8.07418,5.08955 0.32295,3.38226 0.34693,3.39704 6.32418,3.89514 5.6,0.46667 6,0.66667 6,3 0,2.33333 -0.4,2.53333 -6,3 l -6,0.5 0,4.5 0,4.5 6.79935,0.29681 c 7.38708,0.32248 9.78499,2.20591 6.172,4.8478 -2.41016,1.76235 -16.43075,1.83678 -18.80616,0.0998 z m 24.9172,-0.0606 c -0.99496,-0.72753 -1.62835,-2.18094 -1.41632,-3.25 0.3308,-1.66794 1.09385,-1.88762 5.54848,-1.59739 6.04856,0.39409 8.87295,-0.3192 9.68947,-2.44702 0.98651,-2.57078 -1.31349,-5.42175 -5.99172,-7.42708 -6.27969,-2.69179 -9.4123,-6.11389 -9.4123,-10.2821 0,-6.75673 6.95794,-11.4858 15.2607,-10.37217 4.45406,0.59742 6.06313,2.21824 4.71077,4.74515 -0.69941,1.30685 -1.91893,1.56209 -5.71903,1.19695 -3.58102,-0.34409 -5.16462,-0.061 -6.12382,1.09478 -2.2955,2.76591 -0.79274,5.06414 5.37799,8.22478 7.78572,3.98782 10.4646,8.56775 8.33062,14.24234 -0.93283,2.48054 -2.52456,4.26026 -4.86205,5.43631 -4.10518,2.0654 -12.8263,2.31212 -15.39279,0.43545 z m 26.05886,0.0778 c -1.03348,-0.77504 -1.69042,-2.25255 -1.47962,-3.32783 0.33389,-1.70317 1.09912,-1.89368 6.41402,-1.59681 6.66053,0.37203 8.8381,-0.93989 8.2511,-4.97102 -0.23001,-1.57958 -1.93709,-3.03898 -5.76539,-4.92888 -6.66712,-3.2912 -9.06137,-6.09858 -9.06137,-10.62477 0,-6.74283 8.64095,-11.85177 16.32034,-9.64935 2.46106,0.70582 3.17966,1.46637 3.17966,3.3653 0,2.29939 -0.33774,2.45397 -5.38022,2.46258 -3.85237,0.007 -5.67241,0.46754 -6.40915,1.62326 -1.69625,2.66091 -0.12355,4.64869 6.20594,7.84381 3.30447,1.66809 6.47507,3.90538 7.04578,4.97176 1.9876,3.71386 1.2228,8.83158 -1.83047,12.24878 -2.55734,2.86216 -3.55965,3.25156 -9.25,3.5936 -4.41308,0.26527 -6.9553,-0.0464 -8.24062,-1.0103 z m 26.69122,0.46492 c -0.79816,-0.50776 -1.22136,-5.80199 -1.33772,-16.73469 -0.0936,-8.79558 -0.13073,-16.58435 -0.0825,-17.30838 0.0554,-0.83195 1.09978,-1.19997 2.83772,-1 l 2.75,0.31642 0.27497,16.92555 c 0.20911,12.87126 -0.0304,17.11936 -1,17.73469 -1.57042,0.99663 -1.96817,1.00431 -3.44249,0.0664 z m 16.5654,-1.48472 c -1.86883,-1.24194 -4.44321,-4.27944 -5.72085,-6.75 -3.05255,-5.90273 -2.61579,-15.24636 0.95964,-20.52949 8.39317,-12.40194 27.13632,-8.21507 29.90139,6.6794 1.62424,8.74923 -2.24884,17.84732 -9.10752,21.39408 -4.36295,2.25617 -12.01295,1.87732 -16.03266,-0.79399 z m 15.03511,-6.30036 c 1.89227,-1.83006 2.52757,-3.66067 2.85859,-8.23695 0.66711,-9.22256 -2.744,-14.20449 -9.72584,-14.20449 -10.23433,0 -12.59703,20.27602 -2.85317,24.48518 3.89541,1.68274 6.41516,1.15299 9.72042,-2.04361 z m 15.63827,7.23419 c -1.4044,-1.02692 -1.58596,-3.40977 -1.3472,-17.68131 L 596,203.50002 l 3.96746,0 3.96745,0 6.53255,11 6.53254,11 0.2498,-9 c 0.34749,-12.51957 0.70439,-13.69709 4.03508,-13.31306 l 2.71512,0.31306 0.27396,16.70199 c 0.26227,15.98896 0.18594,16.7491 -1.78777,17.8054 -3.70026,1.98032 -5.72294,0.10269 -12.54487,-11.64522 -4.72937,-8.14437 -6.95827,-11.15386 -7.5589,-10.20617 -0.46848,0.7392 -0.85869,5.90836 -0.86711,11.48701 -0.0161,10.65385 -0.89159,12.63038 -4.44405,10.03275 z m 32.06933,-0.0315 c -1.24302,-0.9793 -0.66857,-3.55859 3.98537,-17.89423 l 5.43774,-16.75 3.90913,0 c 2.15003,0 4.25717,0.5625 4.68256,1.25 1.2225,1.97581 10.3271,30.06831 10.33631,31.89301 0.0106,2.09743 -2.61967,3.12646 -4.88818,1.91239 -0.96338,-0.51558 -2.29345,-2.74595 -2.95571,-4.95638 -1.01216,-3.37829 -1.71936,-4.11562 -4.43636,-4.62533 -5.15162,-0.96645 -8.42516,0.83872 -9.79161,5.39952 -1.25955,4.20402 -3.79609,5.72734 -6.27925,3.77102 z M 646.5,222.17816 c 0,-1.80792 -3.23662,-10.17814 -3.93571,-10.17814 -0.8332,0 -3.06429,6.81935 -3.06429,9.36602 0,1.20074 0.92801,1.63398 3.5,1.63398 1.925,0 3.5,-0.36984 3.5,-0.82186 z m 16.66519,15.56631 c -1.52315,-1.11375 -1.68591,-3.11847 -1.44113,-17.75 L 662,203.50002 l 3,0 3,0 0.5,14.5 0.5,14.5 6.65975,0.29363 c 7.10836,0.31341 9.09667,1.8071 6.22633,4.67743 -1.94437,1.94438 -16.15194,2.15185 -18.72089,0.27339 z M 31.5,157.39973 c -5.54288,-1.01905 -6.99997,-1.47053 -6.99941,-2.16876 3.3e-4,-0.40202 12.48783,-0.75356 27.75,-0.78119 28.46329,-0.0515 40.16663,-1.01915 65.8814,-5.44698 25.42132,-4.37729 43.09989,-8.54578 66.36801,-15.64913 23.42143,-7.15015 30.83715,-10.1723 72,-29.34227 29.70092,-13.832039 48.32394,-22.011379 50.11629,-22.011379 1.58704,0 0.92795,2.046908 -0.86629,2.69036 -4.87819,1.749431 -36.79582,16.124159 -51.65261,23.262759 C 197.55704,135.12045 153.99323,147.91176 92,155.54854 c -12.34233,1.52041 -55.17112,2.8309 -60.5,1.85119 z m 622.5,-0.0736 c -1.65,-0.20581 -9.3,-1.05286 -17,-1.88232 -43.54909,-4.69123 -94.88584,-17.59621 -129,-32.42789 -10.79135,-4.69171 -15.91977,-7.04374 -35.99999,-16.51054 -15.26265,-7.195542 -47.60851,-21.505359 -48.61067,-21.505359 -0.48913,0 -0.88933,-0.675 -0.88933,-1.5 0,-0.825 0.25358,-1.5 0.56352,-1.5 1.19665,0 21.94802,9.22658 44.43648,19.757579 53.88589,25.23394 76.63777,33.31042 121.49999,43.13019 32.08614,7.02324 54.19204,9.43835 87.24899,9.53211 15.53694,0.0441 28.24944,0.38033 28.25,0.74726 0.003,1.72221 -11.77434,2.81942 -28.79821,2.68303 C 665.41535,157.76779 655.65,157.53196 654,157.32615 Z m -623.30701,-9.20775 -3.30701,-0.61836 -0.33413,-12 c -0.34019,-12.21789 -1.49078,-17.53965 -5.48477,-25.36852 -1.15925,-2.27231 -1.88296,-4.13148 -1.60824,-4.13148 0.27471,0 5.18668,1.35437 10.91548,3.00972 14.60808,4.22102 29.23826,6.03974 49.09563,6.10321 44.64203,0.14268 80.75732,-9.53829 137.53005,-36.865937 50.57637,-24.345023 54.20914,-26.041 69,-32.213062 13.01724,-5.431949 26.12006,-10.247216 26.59401,-9.773267 0.17458,0.174587 -0.37962,2.324859 -1.23156,4.778384 -2.68967,7.745987 -4.32712,17.200671 -4.34508,25.088508 -0.0196,8.614267 -0.0755,8.695508 -8.01737,11.658166 -6.80957,2.540256 -20.23533,8.534956 -42.96763,19.185359 C 211.16128,118.22809 193.81849,124.86508 162.5,132.9568 c -28.45285,7.35133 -54.28411,11.8748 -82.93738,14.52366 -16.21832,1.49931 -42.43282,1.8415 -48.86963,0.63792 z M 658,148.31687 c -31.29472,-2.71439 -58.86749,-7.17194 -85.5,-13.82238 -37.86851,-9.45619 -50.74868,-14.35127 -106.06146,-40.308439 -12.9588,-6.08131 -27.07888,-12.454193 -31.37795,-14.161967 -13.40998,-5.32701 -13.22898,-5.175341 -14.0076,-11.737817 -0.98123,-8.270033 -7.98933,-22.257832 -15.04862,-30.036246 -3.37014,-3.713451 -5.062,-6.25 -4.16872,-6.25 2.83315,0 29.16002,9.144483 41.66436,14.471871 13.36319,5.693295 34.83711,15.69013 65.49999,30.492468 19.24629,9.291039 41.30946,18.855551 54.02674,23.42091 36.62381,13.14752 83.52894,18.21397 117.47326,12.68885 5.4102,-0.88062 20.18574,-4.50044 27.31077,-6.69079 1.59269,-0.48962 1.50088,0.0549 -0.76232,4.52108 -3.79716,7.49334 -5.6924,17.03772 -5.46004,27.49664 l 0.20215,9.09897 -4.39528,0.67588 C 692.95445,148.85878 665.3852,148.95743 658,148.31687 Z M 350.60464,128.4175 c -16.11516,-4.33361 -31.09448,-18.93193 -36.11939,-35.200689 -2.47735,-8.02073 -2.65765,-21.564541 -0.38986,-29.285289 5.63645,-19.189394 20.8241,-33.370372 40.11776,-37.458654 8.54636,-1.810954 12.04933,-1.804538 20.78686,0.03807 24.2674,5.11763 41.53493,25.77794 41.77999,49.989078 0.10193,10.07003 -1.56058,17.142575 -6.07461,25.842444 -6.51472,12.55578 -19.05372,22.55973 -32.74693,26.12636 -7.28679,1.89796 -20.19516,1.87374 -27.35382,-0.0513 z m 32.26596,-10.21013 c 12.95071,-6.06037 22.21706,-17.91769 25.20632,-32.25428 4.95352,-23.757199 -11.64415,-47.497073 -36.29646,-51.915345 -9.93357,-1.780327 -22.21736,0.76552 -31.28045,6.482952 -5.74822,3.626254 -12.92166,12.092793 -16.31502,19.255995 -3.00558,6.344622 -3.18498,7.371093 -3.18498,18.223329 0,10.87941 0.17385,11.86704 3.22161,18.30161 3.7099,7.832509 12.44895,17.208519 19.32358,20.732019 7.59786,3.89419 12.81235,4.93368 23.06687,4.59833 8.28011,-0.27079 10.53307,-0.74534 16.25853,-3.42461 z m -28.37059,-0.58119 c -7.27563,-2.00299 -11.90934,-4.64777 -17.96391,-10.25323 -19.0367,-17.624629 -16.52778,-48.862494 5.08356,-63.293991 8.34676,-5.573752 15.14276,-7.420941 25.33438,-6.886018 15.26693,0.801309 28.21682,9.557589 34.85283,23.566328 2.96537,6.259953 3.19197,7.489688 3.17688,17.240752 -0.0151,9.74633 -0.24454,10.96879 -3.1966,17.03107 -3.50011,7.187739 -10.31186,14.727309 -16.67287,18.454319 -8.5427,5.00529 -21.23717,6.7223 -30.61427,4.14077 z m 24.41045,-6.95653 c 14.21491,-6.5078 22.35007,-19.917259 21.36791,-35.22142 -0.84427,-13.15557 -8.25357,-24.098166 -20.33283,-30.028998 -5.30258,-2.603528 -6.97286,-2.919211 -15.44553,-2.919211 -8.32632,0 -10.18786,0.337816 -15.06768,2.734349 -21.93298,10.771524 -27.55692,38.785967 -11.3808,56.691 10.29849,11.39919 27.17207,15.01033 40.85893,8.74428 z m -27.93281,-3.47071 c -20.46247,-9.848982 -25.28225,-36.394312 -9.47764,-52.198919 12.3372,-12.337199 31.91127,-12.796917 45.27509,-1.063333 2.0261,1.778943 5.14965,6.211952 6.94121,9.851132 2.81546,5.719026 3.25436,7.640671 3.23516,14.164446 -0.0272,9.235955 -3.13883,16.805645 -9.41001,22.891614 -6.52348,6.33082 -12.09763,8.59416 -22.04145,8.94977 -7.66884,0.27424 -9.08888,0.0205 -14.52236,-2.59471 z m 25.40114,-4.13708 c 5.91773,-3.019 9.45001,-6.412609 12.49183,-12.001429 9.99627,-18.366474 -3.39554,-41.06041 -24.22998,-41.06041 -20.78664,0 -34.1611,21.967681 -24.64063,40.47246 3.52414,6.849807 8.3722,11.077139 15.70496,13.694129 6.4123,2.28849 14.91293,1.83424 20.67382,-1.10475 z m -22.3413,-3.118212 c -8.9535,-4.466377 -13.53748,-11.845277 -13.53748,-21.79147 0,-14.377249 9.8008,-24.413807 24,-24.57731 5.49469,-0.06327 7.35064,0.403542 12,3.018275 6.41684,3.608742 11.37527,10.755188 12.45418,17.949887 1.44065,9.606968 -4.7435,20.998181 -13.77258,25.369078 -5.73991,2.778642 -15.60766,2.793362 -21.14412,0.0315 z m 17.26218,-7.354347 c 5.59398,-2.92243 8.4988,-7.143193 8.98964,-13.062105 0.5857,-7.062678 -1.0473,-10.977128 -6.10895,-14.643772 -3.2625,-2.363342 -4.99368,-2.883403 -9.59825,-2.883403 -9.74509,0 -16.0821,6.404447 -16.0821,16.253246 0,11.145594 13.11801,19.393961 22.79966,14.336034 z m -12.738,-3.41655 c -3.66829,-1.96732 -7.06166,-7.224005 -7.06166,-10.939247 0,-9.710939 10.49323,-16.132507 19.09388,-11.684934 9.21543,4.765485 8.85265,19.068887 -0.58366,23.011631 -4.56968,1.90933 -7.34084,1.81555 -11.44856,-0.38745 z M 226.52896,128.03908 c -1.80117,-1.1391 -1.53608,-1.41139 3.34316,-3.43396 3.37388,-1.39856 10.12934,-1.60462 52.5,-1.60136 47.51446,0.004 48.70615,0.0514 52.04563,2.08731 2.67207,1.62898 3.10843,2.27936 2,2.98095 -1.90753,1.20739 -107.97782,1.1756 -109.88879,-0.0329 z m 166.47105,0.0345 c -1.82731,-0.71799 -1.69779,-0.97064 1.5,-2.92598 3.44995,-2.10953 4.19668,-2.14018 52.22976,-2.14386 42.45029,-0.003 49.24783,0.20355 52.75,1.60484 4.28835,1.71586 4.99026,2.80521 2.43845,3.78443 -2.35079,0.90208 -106.58745,0.59638 -108.91821,-0.31943 z m -148.00637,-9.08387 c -0.3538,-0.57246 5.36287,-3.8556 13.19098,-7.57572 18.09237,-8.59796 46.41252,-21.162509 48.31539,-21.435639 2.87719,-0.413 4,0.0325 4,1.58719 0,3.03575 7.14084,16.972779 11.10503,21.674069 2.20739,2.61783 3.73522,5.20985 3.39519,5.76004 -0.85225,1.37896 -79.15422,1.36922 -80.00659,-0.01 z m 159.05042,0.0816 c -0.32345,-0.52335 0.71448,-2.44099 2.30651,-4.26142 4.55094,-5.20383 8.93697,-12.64181 10.73505,-18.204869 2.6847,-8.30615 2.29081,-8.26751 17.42499,-1.70948 22.28637,9.657259 49.2208,22.537739 49.35944,23.604479 0.17331,1.33359 -79.00466,1.90023 -79.82599,0.57129 z M 59,108.0701 c -4.4,-0.43596 -10.7,-1.32584 -14,-1.97753 -7.67151,-1.51496 -33.91845,-9.946839 -36.23454,-11.640419 -3.70446,-2.70876 -0.0841,-2.51645 7.91052,0.42021 27.1453,9.971239 55.36042,13.082089 87.46721,9.643669 31.18036,-3.33921 54.8457,-9.796159 86.35681,-23.561939 14.938,-6.525739 21.72726,-9.699455 56.5,-26.411567 21.68911,-10.423995 42.69987,-19.559413 57.52177,-25.010301 12.86299,-4.730479 15.40417,-5.310003 14.75587,-3.365125 -0.21396,0.641903 -5.31396,2.829557 -11.33333,4.861452 -19.42291,6.556388 -32.42736,12.229258 -74.44431,32.474465 -61.0124,29.397876 -81.13301,36.767175 -116,42.485745 -13.98544,2.29376 -45.16125,3.40295 -58.5,2.08134 z m 571.5,0.33417 C 605.19468,106.1724 578.89717,99.914508 554,90.199931 546.95684,87.451781 526.17844,78.420812 523.90027,77.117615 522.16783,76.126599 507.12738,68.879486 476.50001,54.278201 451.55946,42.388052 427.07215,32.457647 412,28.121336 c -7.03702,-2.024578 -20.05304,-4.40027 -30.76349,-5.614969 -3.70502,-0.420195 -5.52766,-1.035266 -5.10315,-1.722124 1.0053,-1.62662 18.51006,-0.215675 27.86664,2.246152 20.9995,5.525204 40.11404,13.339054 82.50001,33.725245 31.98061,15.381576 39.40582,18.827142 55.49999,25.753995 29.13529,12.539686 51.25493,18.402315 83,21.998455 30.91088,3.50163 58.62674,0.46743 86.85231,-9.508189 8.55064,-3.022 12.06805,-3.24288 8.35023,-0.52434 -2.89159,2.11438 -23.28211,8.558419 -35.20254,11.125099 -8.80056,1.89492 -14.899,2.45167 -30.5,2.7845 -10.725,0.2288 -21.525,0.2374 -24,0.0191 z M 57.5,98.395468 C 56.125,98.152848 51.03153,97.261378 46.18117,96.414441 37.15158,94.837741 16.34309,88.587521 8.34542,85.049769 1.69189,82.1066 0,79.76069 0,73.478347 c 0,-2.921424 0.31883,-5.63051 0.70852,-6.020192 0.38968,-0.389682 2.63968,0.07503 5,1.032691 10.92704,4.433476 27.51299,9.603114 36.93835,11.513228 C 64.61309,84.455681 97.06704,84.509455 122.5,80.136387 155.44788,74.471167 172.81527,68.30671 230,41.979881 276.1691,20.724451 294.74283,13.055608 315.50001,6.678076 324.77228,3.82922 342.64878,0 346.67623,0 c 1.99745,0 0.50259,1.812234 -3.22125,3.90515 -2.22476,1.250387 -6.76496,4.4563255 -10.08933,7.124306 -3.32436,2.667981 -7.4666,5.1522 -9.20497,5.520486 C 307.5183,20.075753 280.69119,31.135805 234,53.720629 216.4,62.23386 196.6,71.459684 190,74.22246 c -6.6,2.762777 -12.45,5.359863 -13,5.771303 -1.52991,1.144481 -27.97703,9.701148 -37,11.970928 -19.91792,5.01047 -30.07291,6.208257 -55.5,6.546237 -13.475,0.17912 -25.625,0.12716 -27,-0.11546 z M 614.82991,97.034811 C 580.87742,91.742561 554.65236,82.613817 507,59.500068 462.91539,38.116849 448.42139,31.56668 429.50001,24.47604 410.644,17.409903 399.63657,14.836495 385.82953,14.266398 c -15.91143,-0.656987 -24.05922,1.106893 -39.15374,8.476233 -12.65986,6.180706 -21.71839,12.401938 -25.22157,17.321698 -3.6155,5.077505 -3.48339,1.71643 0.20778,-5.285806 2.02059,-3.833119 6.45734,-9.448489 11.39132,-14.417419 6.7211,-6.768712 9.66965,-8.902474 17.51418,-12.6743945 13.01534,-6.2582265 26.30495,-8.6105825 38.20057,-6.7617775 25.57072,3.974172 48.34221,12.445067 109.59529,40.768976 52.50365,24.27811 71.06134,31.147882 99.25732,36.743544 19.57325,3.884429 28.98499,4.77713 50.37932,4.778462 25.65433,0.0016 38.10404,-2.024667 62.5,-10.172246 9.625,-3.214485 17.725,-5.626823 18,-5.36075 0.275,0.266073 0.5,2.958183 0.5,5.982465 0,7.794789 -2.38249,9.628139 -20.40292,15.700238 -23.54064,7.932157 -28.94077,8.803347 -57.09708,9.211257 -20.3796,0.29524 -26.54676,0.0359 -36.67009,-1.542047 z"
     id="path6356"
     inkscape:connector-curvature="0" />
</svg>
