<?xml version="1.0" encoding="UTF-8" standalone="no"?>
<!-- Created with Inkscape (http://www.inkscape.org/) -->

<svg
   xmlns:dc="http://purl.org/dc/elements/1.1/"
   xmlns:cc="http://creativecommons.org/ns#"
   xmlns:rdf="http://www.w3.org/1999/02/22-rdf-syntax-ns#"
   xmlns:svg="http://www.w3.org/2000/svg"
   xmlns="http://www.w3.org/2000/svg"
   xmlns:sodipodi="http://sodipodi.sourceforge.net/DTD/sodipodi-0.dtd"
   xmlns:inkscape="http://www.inkscape.org/namespaces/inkscape"
   id="svg6358"
   version="1.1"
   inkscape:version="0.91 r13725"
   width="1024.1062"
   height="816.32458"
   viewBox="0 0 1024.1062 816.32458"
   sodipodi:docname="authorize.svg">
  <metadata
     id="metadata6364">
    <rdf:RDF>
      <cc:Work
         rdf:about="">
        <dc:format>image/svg+xml</dc:format>
        <dc:type
           rdf:resource="http://purl.org/dc/dcmitype/StillImage" />
        <dc:title></dc:title>
      </cc:Work>
    </rdf:RDF>
  </metadata>
  <defs
     id="defs6362" />
  <sodipodi:namedview
     pagecolor="#ffffff"
     bordercolor="#666666"
     borderopacity="1"
     objecttolerance="10"
     gridtolerance="10"
     guidetolerance="10"
     inkscape:pageopacity="0"
     inkscape:pageshadow="2"
     inkscape:window-width="1920"
     inkscape:window-height="1017"
     id="namedview6360"
     showgrid="false"
     fit-margin-top="0"
     fit-margin-left="0"
     fit-margin-right="0"
     fit-margin-bottom="0"
     inkscape:zoom="0.23046875"
     inkscape:cx="2338.8487"
     inkscape:cy="721.23141"
     inkscape:window-x="-8"
     inkscape:window-y="-8"
     inkscape:window-maximized="1"
     inkscape:current-layer="svg6358" />
  <path
     style="fill:white"
     d="m 494.8263,815.85612 c -0.3792,-0.3792 -0.6895,-6.4786 -0.6895,-13.5542 0,-9.4295 -0.3337,-12.9626 -1.25,-13.2313 -3.3922,-0.995 -27.3825,-2.1738 -28.3871,-1.3948 -0.6254,0.4849 -1.9039,5.2562 -2.8412,10.6029 -2.4122,13.7604 -2.5534,14.2192 -4.3801,14.2398 -4.8538,0.055 -32.4014,-5.532 -32.8338,-6.659 -0.2706,-0.7051 0.4155,-6.362 1.5248,-12.5708 1.1092,-6.2088 1.7131,-11.6034 1.3421,-11.9881 -0.3711,-0.3846 -6.7497,-2.2739 -14.1747,-4.1984 -10.439,-2.7057 -13.7582,-3.2273 -14.6387,-2.3006 -0.6264,0.6591 -2.8015,5.7772 -4.8336,11.3734 -2.0321,5.5963 -4.2197,10.3678 -4.8612,10.6033 -1.5381,0.5647 -31.9434,-10.6091 -32.3726,-11.8967 -0.1826,-0.5479 1.4837,-5.8907 3.7029,-11.873 2.2429,-6.046 3.6542,-11.2577 3.1775,-11.7343 -1.3874,-1.3875 -24.4369,-11.7743 -26.1277,-11.7741 -0.9127,2e-4 -3.7571,3.9294 -6.9396,9.5863 -2.9662,5.2723 -5.9886,9.8146 -6.7165,10.0939 -1.2825,0.4921 -23.9802,-11.9081 -28.5083,-15.5747 l -2.2419,-1.8154 5.6799,-9.7015 c 3.1239,-5.3359 5.6798,-10.2693 5.6798,-10.9633 0,-0.9652 -20.7097,-15.9592 -24.0436,-17.4077 -0.3572,-0.1552 -4.1256,3.7823 -8.3743,8.75 -4.2486,4.9677 -8.0526,9.0322 -8.4534,9.0322 -1.4128,0 -26.1287,-21.346 -26.1287,-22.5662 0,-0.6802 3.1415,-4.9936 6.981,-9.5853 3.8395,-4.5917 6.9895,-8.6558 7,-9.0315 0.028,-0.9982 -19.9055,-20.26793 -21.2994,-20.59027 -0.6498,-0.15029 -4.9956,2.88721 -9.6573,6.75 -4.6616,3.86279 -8.7887,7.02325 -9.1713,7.02325 -1.1127,0 -21.853,-25.29188 -21.853,-26.64887 0,-0.67601 3.825,-4.4861 8.5,-8.46685 4.675,-3.98075 8.5,-7.39631 8.5,-7.59013 0,-1.05819 -16.5581,-23.57109 -17.6424,-23.98719 -0.71,-0.27246 -5.3709,1.83941 -10.3576,4.69304 -4.9866,2.85363 -9.6569,4.96188 -10.3784,4.68501 -0.7216,-0.27688 -5.043,-6.92538 -9.6033,-14.77445 l -8.2913,-14.27104 2.2128,-1.79182 c 1.217,-0.98551 5.5427,-3.62999 9.6127,-5.87663 4.0699,-2.24665 7.6297,-4.45682 7.9107,-4.9115 0.5848,-0.94614 -11.2559,-26.22956 -12.7358,-27.19474 -0.5356,-0.34935 -4.6309,0.73004 -9.1006,2.39865 -13.021,4.86092 -13.068,4.85659 -15.3875,-1.41589 -7.6075,-20.57249 -9.3996,-25.98733 -8.9707,-27.10519 0.2678,-0.69766 4.8719,-2.83174 10.2314,-4.7424 5.3596,-1.91066 9.9347,-3.96921 10.167,-4.57455 0.5129,-1.33668 -6.2755,-27.434 -7.4387,-28.5972 -0.454,-0.45399 -5.5286,0.0404 -11.2769,1.09866 -5.799,1.0676 -10.8425,1.54383 -11.3301,1.06984 -1.2905,-1.25451 -6.8368,-33.19433 -5.9099,-34.03356 0.4338,-0.3927 5.2886,-1.49614 10.7886,-2.45208 5.5,-0.95594 10.7734,-2.41898 11.7187,-3.2512 1.4256,-1.25519 2.4813,-1.32108 6.1928,-0.38652 6.861,1.72761 15.9481,1.36362 22.6944,-0.90904 l 6.0427,-2.03565 3.2938,2.03565 c 5.0231,3.10451 6.5284,2.93506 41.1113,-4.62801 l 7.0536,-1.54259 3.843,2.60793 c 8.5223,5.78342 21.2154,7.19195 31.1876,3.46085 4.7774,-1.78746 6.228,-1.95121 8.8585,-1 1.7301,0.62561 4.5211,1.13747 6.2022,1.13747 3.9845,0 4.6893,1.041 6.7703,10 9.6863,41.70135 33.0534,83.50904 64.0162,114.53563 35.8639,35.93786 79.271,58.27914 131.5144,67.68932 17.0083,3.06357 58.3508,3.30275 75.5005,0.4368 C 613.856,635.59431 671.3943,598.52701 709.4279,541 c 13.8802,-20.99415 25.5779,-47.22141 31.7666,-71.22354 1.6599,-6.43786 3.5635,-12.05185 4.2302,-12.47552 0.6667,-0.42367 2.2537,-0.77721 3.5268,-0.78563 1.273,-0.008 4.4945,-0.95309 7.1588,-2.09926 3.7758,-1.62428 5.291,-1.84486 6.8697,-1 2.586,1.38398 51.9831,1.48072 55.5913,0.10888 3.8449,-1.46186 6.56,-6.65585 6.5471,-12.52493 -0.019,-8.60539 -4.1157,-13.30994 -12.404,-14.24414 -2.9766,-0.33551 -4.9821,-1.14318 -5.571,-2.24361 -1.413,-2.64012 -2.5295,-35.57101 -1.2333,-36.37215 0.6123,-0.37842 12.4306,13.28573 27.73753,32.06965 14.66883,18.00095 27.64229,33.41778 28.82991,34.25963 1.65416,1.17255 5.20046,1.55052 15.1593,1.61571 12.36306,0.0809 36.6751,3.46051 38.80515,5.39427 1.0332,0.93798 -4.25637,32.14015 -5.71006,33.68257 -0.82882,0.87941 -4.57698,0.54388 -15.41513,-1.37996 -9.11402,-1.61779 -14.66782,-2.19411 -15.27668,-1.58525 -1.19785,1.19785 -7.66694,25.51229 -7.17803,26.97902 0.19766,0.59298 6.47039,3.26519 13.93941,5.93824 7.46901,2.67305 13.79991,5.43309 14.06865,6.13341 0.69456,1.81 -9.96373,31.34944 -11.5404,31.98419 -0.7189,0.28941 -7.08632,-1.55679 -14.14983,-4.10268 -7.06351,-2.5459 -13.46458,-4.6289 -14.2246,-4.6289 -2.1136,0 -13.14966,24.89603 -11.77194,26.55608 0.59682,0.71912 5.58588,3.87816 11.08681,7.02008 16.2096,9.25833 15.57752,6.65886 5.7729,23.74175 -4.62344,8.05555 -9.02772,14.65447 -9.7873,14.66427 -0.75957,0.01 -7.02541,-3.21072 -13.92408,-7.15671 -11.99968,-6.86374 -12.60199,-7.09117 -13.9037,-5.25 -9.96851,14.09961 -14.28811,20.82671 -14.27331,22.22856 0.01,0.93278 4.7117,5.52097 10.4485,10.19597 5.73687,4.675 10.45382,9.2538 10.48214,10.17512 0.051,1.65836 -20.35634,26.83557 -21.73354,26.81334 -0.3932,-0.006 -5.5336,-4.05635 -11.4231,-9 -5.8895,-4.94365 -11.2354,-8.98846 -11.8798,-8.98846 -1.6533,0 -19.9121,18.80985 -19.9121,20.513 0,0.77195 3.825,5.88962 8.5,11.37262 4.675,5.483 8.5,10.6414 8.5,11.463 0,1.4121 -24.5547,22.6514 -26.1872,22.6514 -0.422,0 -4.708,-4.725 -9.5244,-10.5 -4.8163,-5.775 -9.4724,-10.5 -10.3469,-10.5 -0.8745,0 -4.9316,2.5041 -9.0157,5.5648 -4.0842,3.0606 -8.8883,6.4723 -10.6758,7.5815 -1.7875,1.1092 -3.25,2.6705 -3.25,3.4695 0,0.799 2.925,6.5468 6.5,12.773 3.575,6.2262 6.5,11.738 6.5,12.2485 0,1.3924 -28.7871,17.66 -30.242,17.0898 -0.6919,-0.2712 -4.0953,-5.4845 -7.5632,-11.5852 -3.4679,-6.1007 -6.6831,-11.3257 -7.1449,-11.6111 -0.8792,-0.5434 -25.7036,11.0999 -26.5354,12.4458 -0.2634,0.4261 1.5529,6.2991 4.036,13.0512 2.4831,6.752 4.3593,12.743 4.1692,13.3132 -0.4358,1.3073 -30.813,12.5148 -32.371,11.9431 -0.6333,-0.2323 -3.0657,-5.8322 -5.4053,-12.4442 -2.3397,-6.612 -4.7671,-12.2188 -5.3943,-12.4595 -1.3428,-0.5153 -26.5927,6.2632 -27.7898,7.4603 -0.4502,0.4502 0.1474,6.2837 1.3279,12.9635 1.1804,6.6797 1.9138,12.7508 1.6297,13.4912 -0.4565,1.1898 -27.7837,6.7804 -32.863,6.7231 -1.6073,-0.018 -2.0653,-1.8253 -5.5073,-21.7329 -0.3057,-1.7679 -1.0712,-3.6395 -1.7012,-4.1591 -1.0642,-0.8777 -9.651,-0.271 -24.1454,1.706 l -5,0.6819 -0.5,13.4928 -0.5,13.4928 -17.0605,0.2728 c -9.3833,0.15 -17.3708,-0.037 -17.75,-0.4167 z m 45.5488,-59.6061 c 1.4844,-1.1451 1.3782,-2.7611 -1.2656,-19.25 -2.2447,-14.0003 -2.6179,-18.2499 -1.6793,-19.1246 1.7488,-1.6299 39.9663,-7.4222 41.2066,-6.2453 0.55,0.5218 2.35,9.1435 4,19.1593 l 3,18.2106 4.4958,-0.2958 c 2.4727,-0.1627 4.8784,-0.6784 5.3461,-1.1461 0.7077,-0.7077 -10.4551,-76.92983 -11.8345,-80.80812 -0.5149,-1.44777 -7.2999,-1.667 -9.4519,-0.30541 -1.2477,0.78939 -1.1449,2.86591 0.7546,15.23469 2.6516,17.26604 2.6809,18.54534 0.4399,19.18704 -0.9625,0.2757 -9.4,1.6681 -18.75,3.0943 -9.35,1.4263 -17.7377,2.7509 -18.6393,2.9437 -0.9016,0.1928 -2.119,0.054 -2.7054,-0.3084 -0.5864,-0.3624 -2.1308,-7.5169 -3.4321,-15.8988 -1.3013,-8.38198 -2.8234,-15.69731 -3.3823,-16.2563 -1.2765,-1.27648 -9.0633,-0.12308 -9.6347,1.42712 -0.3274,0.88835 9.0997,63.53818 11.7945,78.38208 0.5421,2.9864 0.8951,3.25 4.3535,3.25 2.07,0 4.4928,-0.5625 5.3841,-1.25 z m -55.8809,-1.3561 c 8.0149,-2.731 19.6426,-15.0679 19.6426,-20.8407 0,-1.6946 -6.6793,-4.8903 -8.6448,-4.136 -0.6878,0.2639 -2.0005,1.9655 -2.917,3.7813 -5.4483,10.7938 -16.9938,15.8168 -28.6001,12.4428 -8.1021,-2.3554 -13.5195,-6.7287 -16.6743,-13.4607 -2.3572,-5.03 -2.6606,-6.8833 -2.6489,-16.1806 0.017,-13.4842 2.5935,-21.6798 9.0853,-28.9002 5.9282,-6.59361 10.9959,-8.51711 20.7844,-7.88892 10.7689,0.69111 15.473,3.67962 19.7491,12.54672 1.7882,3.7083 3.369,6.9091 3.5127,7.1128 0.1437,0.2038 2.307,0.064 4.8074,-0.3112 4.1241,-0.6185 4.5462,-0.9364 4.5462,-3.4242 0,-4.3511 -4.7651,-12.75829 -9.6868,-17.09054 -6.7568,-5.94763 -13.9189,-8.36092 -24.8132,-8.36092 -12.1941,0 -18.9593,2.6067 -26.5477,10.22907 -9.6485,9.69169 -13.5062,21.09949 -12.7084,37.58099 0.9573,19.7753 8.9013,31.5665 24.6651,36.61 7.2097,2.3067 20.1148,2.4483 26.4484,0.2903 z m -80.7711,-23.0979 c -2.2486,-14.1001 -4.4023,-22.9225 -6.7146,-27.5062 -1.0294,-2.0406 -1.8717,-4.0656 -1.8717,-4.5 0,-0.4344 3.2625,-0.79 7.25,-0.7902 5.8766,-4e-4 8.0947,-0.4739 11.7091,-2.5 6.3759,-3.5742 10.3409,-10.34659 10.8636,-18.55562 0.5463,-8.579 -2.1683,-14.27674 -8.9908,-18.8713 -5.9696,-4.02017 -43.2795,-20.00233 -45.0654,-19.30436 -1.0951,0.42797 -32.8389,73.98118 -32.7861,75.96828 0.028,1.0411 7.1362,3.8895 8.8534,3.5475 0.7879,-0.157 4.4564,-7.4458 8.1959,-16.2841 3.7233,-8.8 7.3773,-16.10076 8.12,-16.22389 2.3367,-0.38741 18.2112,8.10549 20.1064,10.75689 2.3218,3.2485 4.2355,10.4654 6.7528,25.467 2.9475,17.5653 2.4208,16.3579 8.2785,18.9752 2.9348,1.3113 5.6077,1.955 6.1166,1.4729 0.5364,-0.508 0.2039,-5.2467 -0.8177,-11.6521 z m -17.5863,-46.20795 c -16.2504,-6.63153 -18.9995,-7.97648 -19.0147,-9.30253 -0.01,-0.70705 2.1077,-6.34804 4.7019,-12.53554 3.2565,-7.7672 5.2186,-11.25 6.3379,-11.25 2.3912,0 26.2653,10.35853 29.9949,13.01421 3.3014,2.35083 5.98,7.30153 5.98,11.05254 0,3.60012 -3.1795,9.07159 -6.4199,11.04757 -4.822,2.9404 -10.7803,2.3809 -21.5801,-2.02625 z m 240.5665,53.17885 3.6343,-1.7331 -0.7036,-13.5881 -0.7035,-13.5881 14.6484,-6.6788 c 8.0566,-3.6734 15.3696,-6.6788 16.251,-6.6788 0.8815,0 5.5705,3.825 10.4201,8.5 5.0793,4.8964 9.6656,8.5 10.8182,8.5 2.8007,0 9.0686,-3.1322 9.0686,-4.5317 0,-1.2975 -62.6316,-60.80204 -64.4772,-61.2579 -0.6447,-0.15926 -3.2762,0.61224 -5.8475,1.71447 -4.5249,1.93957 -4.6756,2.14189 -4.6847,6.28957 -0.013,5.97425 3.9483,75.34046 4.5994,80.53556 0.6016,4.8011 1.5039,5.1266 6.9765,2.5169 z m 1.0775,-41.0169 c -0.2699,-0.9625 -0.797,-7.15 -1.1712,-13.75002 -0.3742,-6.6 -1.0739,-14.44729 -1.5548,-17.43843 -0.481,-2.99113 -0.6436,-5.66927 -0.3615,-5.95142 0.8427,-0.84269 27.5094,26.27941 27.2149,27.67957 -0.2393,1.1374 -20.7516,11.2103 -22.8284,11.2103 -0.4445,0 -1.0291,-0.7875 -1.299,-1.75 z m -312.7433,-1.5 2.097,-3.25 -2.8037,-2.5 c -1.5421,-1.375 -10.1129,-8.25619 -19.0462,-15.29151 -8.9333,-7.03532 -16.4818,-13.41549 -16.7745,-14.17816 -0.6692,-1.7439 14.5782,-21.43554 16.6267,-21.47297 0.825,-0.0151 9.15,6.03663 18.5,13.44821 9.35,7.41159 17.2975,13.47984 17.6611,13.48501 1.3461,0.0191 5.7369,-6.08741 5.2258,-7.26768 -0.2913,-0.67261 -8.1475,-7.21326 -17.4582,-14.53479 -9.3108,-7.32153 -16.9287,-13.85137 -16.9287,-14.51076 0,-1.82133 13.8781,-18.67737 15.3777,-18.67737 0.7213,0 9.5165,6.49741 19.5449,14.43868 10.3585,8.20265 18.8217,14.21295 19.5955,13.91603 1.532,-0.58791 4.4819,-4.7412 4.4819,-6.31038 0,-0.84337 -27.6261,-23.36106 -42.3135,-34.48928 l -3.8136,-2.88942 -2.8311,2.91718 c -5.7565,5.93163 -49.1232,61.67275 -48.7808,62.70004 0.6023,1.807 46.136,37.62547 47.8908,37.67267 0.9085,0.024 2.5955,-1.418 3.7489,-3.2055 z m 400.0226,-3.3389 c 1.6922,-1.4239 3.0673,-3.1114 3.0557,-3.75 -0.012,-0.6386 -8.7865,-11.73213 -19.5,-24.65224 -10.7134,-12.92012 -19.479,-23.88141 -19.479,-24.35841 0,-1.11482 -1.099,-1.41058 38.3748,10.32704 18.5382,5.51237 34.3867,10.02249 35.219,10.02249 1.984,0 8.4062,-5.14716 8.4062,-6.7373 0,-1.7586 -50.7213,-62.69538 -52.5094,-63.08491 -1.8198,-0.39645 -7.5008,3.51644 -7.4631,5.1403 0.015,0.65005 8.7901,11.72774 19.5,24.6171 10.7099,12.88935 19.4725,23.80185 19.4725,24.25 0,0.44814 -0.4589,0.81481 -1.0199,0.81481 -0.5609,0 -17.1748,-4.79143 -36.9197,-10.64761 l -35.8998,-10.64761 -4.1376,3.27704 c -2.5396,2.01142 -3.9266,3.82702 -3.5912,4.70108 0.7707,2.00838 51.7751,63.31712 52.6752,63.31712 0.4068,0 2.1241,-1.165 3.8163,-2.5889 z M 272.4,613.82638 c 17.7303,-12.49946 32.5453,-23.17846 32.9224,-23.73111 0.7708,-1.12964 -1.4416,-5.27268 -5.1856,-9.71091 l -2.5,-2.9636 -34.4782,10.03962 C 244.1955,592.98217 228.2849,597.5 227.8016,597.5 c -1.679,0 0.3049,-2.94353 20.7634,-30.80574 11.3145,-15.40916 20.5718,-28.53131 20.5718,-29.16033 0,-0.62902 -1.8392,-3.85207 -4.0872,-7.16233 -2.8103,-4.13837 -4.5561,-5.83871 -5.5882,-5.44267 -2.5772,0.98897 -66.1845,46.00879 -66.6908,47.20223 -0.6787,1.60003 4.2935,8.61073 5.719,8.0637 0.6492,-0.24911 12.7652,-8.64327 26.9244,-18.65369 14.1592,-10.01043 26.2172,-18.04304 26.7955,-17.85027 0.5784,0.19278 -8.2105,13.10906 -19.5308,28.70284 l -20.5822,28.35234 1.7701,3.02139 c 3.3418,5.70376 2.5636,5.79136 37.6774,-4.24095 17.9465,-5.12746 32.8846,-9.06808 33.1958,-8.75693 0.6755,0.67558 -2.6726,3.18098 -30.0989,22.52325 -11.5478,8.14399 -21.1392,15.55128 -21.3144,16.46065 -0.4285,2.22508 3.8934,7.92862 5.5316,7.29997 0.7178,-0.27543 15.8116,-10.72762 33.5419,-23.22708 z m 527.2008,-6.05851 c 1.3948,-2.05268 2.536,-4.05303 2.536,-4.44523 0,-0.3922 -13.2962,-10.25793 -29.5471,-21.92384 -19.935,-14.31059 -29.3741,-21.6617 -29.0152,-22.59694 0.2926,-0.7624 3.776,-5.93 7.741,-11.48355 l 7.2091,-10.09736 -2.9439,-2.35551 c -1.6191,-1.29553 -3.6189,-2.34473 -4.4439,-2.33156 -1.9028,0.0304 -37.5,49.67691 -37.5,52.30037 0,2.28639 4.8024,6.21494 6.3945,5.23096 0.6018,-0.37192 4.2892,-5.15125 8.1941,-10.62072 3.905,-5.46947 7.4989,-9.94449 7.9864,-9.94449 0.4876,0 14.0391,9.45 30.1145,21 16.0754,11.55 29.5678,21 29.9832,21 0.4154,0 1.8965,-1.67946 3.2913,-3.73213 z M 603.8035,572.83333 c -0.3667,-0.36666 -0.6667,-19.73912 -0.6667,-43.0499 l 0,-42.38324 5.75,0.29991 5.75,0.2999 0.5,5.5 0.5,5.5 5.5,0.5 5.5,0.5 0.31,5 c 0.1705,2.75 0.7441,5.43855 1.2746,5.97455 0.5305,0.53601 3.316,1.21101 6.19,1.5 l 5.2254,0.52545 0.5,5.5 0.5,5.5 5.5,0.5 5.5,0.5 0.3023,5.25 0.3023,5.25 -4.4705,0 c -6.8906,0 -7.6319,0.56766 -7.6494,5.85699 -0.01,2.55365 -0.3557,5.17843 -0.7718,5.83284 -0.4161,0.6544 -3.2217,1.3294 -6.2347,1.5 L 627.6368,549 l -0.2999,5.75 -0.2999,5.75 -4.3683,0 c -6.6957,0 -7.5319,0.6134 -7.5319,5.5252 0,6.74557 -0.5795,7.4748 -5.9403,7.4748 -2.5995,0 -5.0263,-0.3 -5.393,-0.66667 z m -217.9737,-2.97372 c -0.3811,-0.38112 -0.693,-3.10497 -0.693,-6.05301 l 0,-5.36007 14.75,0.27674 14.75,0.27673 0,5.5 0,5.5 -14.057,0.27628 c -7.7314,0.15195 -14.3689,-0.0356 -14.75,-0.41667 z m 56.0198,0.0198 c -0.392,-0.392 -0.7128,-18.41274 -0.7128,-40.04608 l 0,-39.33333 5.5115,0 5.5115,0 -0.2615,39.75 -0.2615,39.75 -4.5372,0.2961 c -2.4955,0.16286 -4.858,-0.0246 -5.25,-0.41667 z m 22,0 c -0.392,-0.392 -0.7128,-13.46274 -0.7128,-29.04608 l 0,-28.33333 5.5154,0 5.5153,0 -0.2653,28.75 -0.2654,28.75 -4.5372,0.2961 c -2.4955,0.16286 -4.858,-0.0246 -5.25,-0.41667 z m 33.7054,-0.7321 c -0.2994,-0.78019 -0.4035,-3.3825 -0.2313,-5.78293 L 497.6368,559 l 11.5,0 11.5,0 0,5.5 0,5.5 -11.2687,0.28293 c -8.9976,0.2259 -11.3785,-0.003 -11.8131,-1.1356 z m 47.2946,0.7321 c -0.392,-0.392 -0.7128,-18.41274 -0.7128,-40.04608 l 0,-39.33333 5.5,0 5.5,0 0,22.46482 c 0,25.09061 -0.1639,24.53518 7.2432,24.53518 4.5178,0 6.5821,-1.78193 6.9509,-6 0.3035,-3.47231 0.3475,-3.50239 5.5559,-3.80226 l 5.25,-0.30226 0,15.05226 0,15.05226 -5.4425,0 -5.4425,0 -0.3075,-4.25 -0.3075,-4.25 -6.2191,-0.29692 c -7.3142,-0.34919 -7.1332,-0.65686 -7.5301,12.79692 l -0.2508,8.5 -4.5372,0.2961 c -2.4955,0.16286 -4.858,-0.0246 -5.25,-0.41667 z m 36.713,-0.71238 c -0.3036,-0.79103 -0.4111,-3.40222 -0.2389,-5.80265 L 581.6368,559 l 4.5876,-0.29816 c 5.7008,-0.3705 7.1443,1.12682 6.7235,6.97426 l -0.3111,4.3239 -5.2611,0.30265 c -3.8636,0.22225 -5.4078,-0.0794 -5.8131,-1.1356 z m -208.9543,-12.8808 c -0.2784,-0.72549 -0.3859,-13.01168 -0.2388,-27.30265 L 372.6368,503 l 5.2181,-0.30115 c 4.7346,-0.27325 5.2704,-0.0879 5.7815,2 0.3098,1.26563 0.4366,13.55115 0.2819,27.30115 l -0.2815,25 -5.2611,0.30265 c -3.6604,0.21056 -5.4152,-0.0987 -5.7674,-1.01642 z M 416.1368,552 l 0,-5.5 5.5,0 5.5,0 0,5.5 0,5.5 -5.5,0 -5.5,0 0,-5.5 z m 68.607,3.91821 c -0.3338,-0.86998 -0.607,-7.58318 -0.607,-14.91821 0,-7.33503 0.2732,-14.04823 0.607,-14.91821 0.4497,-1.17182 2.0048,-1.58179 6,-1.58179 l 5.393,0 0,16.5 0,16.5 -5.393,0 c -3.9952,0 -5.5503,-0.40997 -6,-1.58179 z m 37.5908,-3.66821 0.3022,-5.25 5.25,-0.30226 5.25,-0.30226 0,5.55226 0,5.55226 -5.5522,0 -5.5523,0 0.3023,-5.25 z m -0.1978,-22.25 0,-5.5 5.5,0 5.5,0 0,5.5 0,5.5 -5.5,0 -5.5,0 0,-5.5 z m 59.4222,-4.84219 c -0.3055,-0.79612 -0.4129,-3.18231 -0.2388,-5.30265 L 581.6368,516 l 5.5,0 5.5,0 0,5 0,5 -5.2611,0.30265 c -3.878,0.22307 -5.4073,-0.0779 -5.8167,-1.14484 z m -84.4222,-7.12607 0,-5.53174 12.0523,0 12.0523,0 -0.3023,5.25 -0.3023,5.25 -11.75,0.28174 -11.75,0.28173 0,-5.53173 z m -79.75,-4.19402 c -0.7861,-0.31721 -1.25,-2.53384 -1.25,-5.97331 l 0,-5.46893 5.25,0.30226 5.25,0.30226 0.3111,4.90325 c 0.2059,3.24554 -0.1322,5.18435 -1,5.73469 -1.4166,0.89834 -6.5339,1.01776 -8.5611,0.19978 z M 385.1368,496 l 0,-5.55347 14.75,0.27674 14.75,0.27673 0,5 0,5 -14.75,0.27673 -14.75,0.27674 0,-5.55347 z m 78,0.0523 0,-5.55226 5.5523,0 5.5523,0 -0.3023,5.25 -0.3023,5.25 -5.25,0.30226 -5.25,0.30226 0,-5.55226 z m -325.5,-51.77383 c -4.9472,-1.75402 -8.3379,-4.64651 -11.2461,-9.59382 L 123.6368,430 l -0.5,-28.16894 c -0.275,-15.49292 -0.804,-28.47193 -1.1756,-28.84226 -0.3715,-0.37032 -2.3908,-1.263 -4.4873,-1.98372 -4.2772,-1.47044 -6.3746,-3.86755 -4.7796,-5.46256 0.5569,-0.5569 7.908,-1.7545 16.3358,-2.66134 13.0051,-1.39937 15.4559,-1.43946 16.1997,-0.265 0.482,0.7611 0.8833,14.56867 0.8917,30.68348 0.016,31.39057 0.2696,33.16377 5.2321,36.63964 3.1447,2.20259 10.3573,1.94531 15.5194,-0.5536 7.4149,-3.58952 7.4055,-3.54846 7.065,-30.75441 -0.3327,-26.58489 -0.3558,-26.67923 -6.8451,-28.00644 -3.6106,-0.73845 -6.0223,-3.47219 -4.4336,-5.0256 0.8331,-0.81459 26.1288,-4.09925 31.569,-4.09925 1.7375,0 1.8489,1.81578 2.1212,34.58149 0.2734,32.89914 0.3818,34.6505 2.2285,36 1.0676,0.78018 3.6069,1.41851 5.643,1.41851 3.7507,0 5.3819,1.62196 4.3459,4.32153 -0.437,1.13903 -19.9068,5.77357 -31.1801,7.42204 l -3.25,0.47524 0,-5.05039 c 0,-2.77771 -0.4462,-5.32616 -0.9916,-5.66323 -0.5453,-0.33706 -3.0163,0.7802 -5.4909,2.48279 -10.8856,7.48952 -21.3616,9.85938 -30.0175,6.79049 z m 91.4073,-1.09869 c -2.9522,-1.55419 -5.2326,-3.78273 -6.9073,-6.75 -2.4865,-4.40585 -2.5017,-4.58904 -2.8194,-33.91368 -0.2304,-21.26686 -0.6485,-29.69314 -1.5,-30.23469 -0.6493,-0.41293 -3.3181,-0.75768 -5.9306,-0.7661 -3.9143,-0.0126 -4.75,-0.33427 -4.75,-1.82822 0,-2.63633 5.0161,-6.97947 8.5,-7.35969 2.8569,-0.31178 3.0239,-0.58914 3.5,-5.81366 l 0.5,-5.48625 8.8663,-6.76375 c 13.0023,-9.91899 13.4539,-9.66736 13.8857,7.73626 l 0.248,10 8.8895,0.5 c 7.728,0.43467 8.9849,0.76133 9.6199,2.5 0.4018,1.1 0.3535,3.0125 -0.1072,4.25 -0.7695,2.06683 -1.4713,2.25125 -8.6199,2.26531 -4.2803,0.008 -8.3665,0.38591 -9.0805,0.83885 -1.0229,0.64886 -1.235,6.35745 -1,26.91374 0.2817,24.6463 0.4139,26.24632 2.3882,28.91115 3.3286,4.49297 6.4638,5.58802 12.0042,4.19291 4.1988,-1.05726 4.8458,-0.99076 6.0229,0.61909 0.7254,0.99198 1.0738,2.20009 0.7743,2.6847 -0.2995,0.48461 -4.5511,2.89331 -9.448,5.35268 -10.8159,5.43208 -17.6834,6.0222 -25.0361,2.15135 z m 165.9291,0.46306 c -7.2507,-2.3978 -11.3308,-4.96322 -16.4325,-10.33216 -5.4678,-5.75423 -8.0187,-10.23435 -9.8664,-17.32822 -3.9673,-15.23154 -0.061,-30.76153 10.5621,-41.99427 8.9679,-9.48216 20.7824,-14.04311 34.3091,-13.24482 11.9966,0.70798 18.6222,3.60456 26.6828,11.66518 8.1984,8.19838 10.9864,14.68174 11.6664,27.12928 1.0765,19.70438 -7.1741,34.42106 -23.6976,42.26948 -5.6896,2.70246 -7.67,3.09663 -17,3.38364 -8.2929,0.2551 -11.7763,-0.0773 -16.2239,-1.54811 z m 25.1325,-9.76013 c 5.4678,-6.22754 8.0528,-22.03112 6.1147,-37.38271 -1.5871,-12.57108 -3.8049,-18.67407 -8.6077,-23.68654 -3.6976,-3.85907 -4.617,-4.31346 -8.7277,-4.31346 -5.8427,0 -9.5892,2.97819 -12.8651,10.22692 -2.1705,4.80269 -2.3831,6.61116 -2.3831,20.27308 0,12.68947 0.3404,16.08181 2.2099,22.02312 4.8824,15.51654 16.5129,21.68185 24.259,12.85959 z m 261.3172,10.21454 c -10.0758,-3.26371 -17.9627,-10.08698 -22.8995,-19.81135 -3.2791,-6.45898 -4.4155,-20.27283 -2.3785,-28.91093 3.2082,-13.60456 11.8314,-24.70946 23.7685,-30.60909 7.12,-3.5189 8.2134,-3.76541 16.6716,-3.75871 7.4992,0.006 9.7879,0.39896 13.3431,2.29138 9.4045,5.00593 16.2087,15.74579 16.2087,25.58398 0,7.09202 -0.9374,7.46082 -22.0793,8.68649 -10.1314,0.58734 -20.4457,1.3901 -22.9207,1.7839 l -4.5,0.71601 0.2472,3.94884 c 0.72,11.50589 7.9363,21.17152 17.9882,24.09368 7.0908,2.06134 14.3661,1.29794 21.643,-2.27098 5.4595,-2.67759 8.6216,-2.63994 8.6216,0.10267 0,2.79475 -11.5585,13.46356 -17.6595,16.30013 -6.9486,3.23064 -19.1286,4.09735 -26.0544,1.85398 z m 21.6188,-54.51731 c 3.2466,-2.05539 0.7009,-12.13128 -4.2863,-16.96501 -7.4462,-7.21715 -15.9963,-2.43211 -20.1172,11.25848 -0.8068,2.68037 -1.2231,5.26787 -0.9251,5.75 0.7102,1.1492 23.5066,1.11008 25.3286,-0.0435 z m 35.3937,53.96054 c -10.82,-6.59731 -7.3015,-23.86446 5.4021,-26.51094 4.1003,-0.85419 11.4772,2.28612 13.8395,5.89135 4.2662,6.51116 2.2804,16.88794 -3.9601,20.69343 -4.0712,2.48258 -11.1449,2.4484 -15.2815,-0.0738 z m 129.97114,0.69478 C 867.17988,443.55587 850.63395,423.875 831.63781,400.5 812.6417,377.125 796.37,357.8424 795.4785,357.64978 c -1.4783,-0.31939 -1.5666,2.49653 -1.003,32 0.3398,17.79262 1.0193,34.57325 1.5099,37.29029 1.1362,6.29192 4.3936,9.25786 11.1526,10.15447 5.2826,0.70076 7.594,2.412 6.6347,4.91192 -0.508,1.32385 -3.6133,1.49537 -22.8618,1.26274 L 768.6368,443 l 0,-2.48304 c 0,-2.06026 0.596,-2.58209 3.5,-3.06485 5.3175,-0.88394 8.0052,-2.74392 9.8009,-6.7826 1.4068,-3.1642 1.6772,-9.52195 1.9631,-46.16951 0.307,-39.33438 0.1977,-42.75921 -1.4662,-45.98007 -2.2186,-4.2946 -6.9263,-7.545 -12.1338,-8.37773 -4.212,-0.67352 -5.9742,-2.96106 -4.0588,-5.26895 0.8727,-1.05154 4.6193,-1.37325 15.993,-1.37325 l 14.8533,0 3.2743,3.58534 c 1.8008,1.97194 17.4492,20.05099 34.77424,40.17567 17.325,20.12468 32.10964,36.78949 32.85477,37.03291 1.12725,0.36827 1.27477,-4.90918 0.87844,-31.42566 C 868.60807,355.34071 867.96749,339.65 867.44655,338 c -1.26231,-3.99815 -6.05778,-7.07626 -12.31811,-7.90673 -4.83525,-0.64142 -5.09905,-0.82735 -4.8039,-3.38598 l 0.3123,-2.70729 21.61169,-0.26912 c 17.49381,-0.21784 21.83187,-0.004 22.76725,1.12325 1.94119,2.33899 0.18054,4.61272 -4.10211,5.29755 -5.59408,0.89453 -8.58121,3.87592 -9.86725,9.84832 -0.64069,2.97536 -1.28982,25.04398 -1.60308,54.5 -0.3769,35.43999 -0.85024,49.70868 -1.66646,50.23469 -1.7708,1.14117 -6.90196,0.86769 -9.37034,-0.49943 z m 44.2303,-0.0894 C 902.2828,440.73845 892.92181,432.80078 889.13475,424.21723 876.61865,395.84889 897.98061,360.5 927.6402,360.5 c 14.73012,0 27.35218,11.41104 29.10338,26.31107 1.12327,9.55724 1.09457,9.56722 -33.4676,11.64663 -7.89847,0.47521 -14.82775,1.33091 -15.39841,1.90157 -0.71674,0.71674 -0.6829,2.80351 0.10944,6.74887 3.80292,18.93612 20.81249,27.1867 38.93958,18.88784 6.86165,-3.14137 8.21025,-3.14428 8.21025,-0.0177 0,3.48943 -9.36294,12.57117 -16.64856,16.14856 -4.7444,2.3296 -7.36497,2.9169 -13.85144,3.10429 -4.57447,0.13215 -9.71276,-0.33254 -12,-1.08525 z m 21.3,-54.84586 c 1.73505,-1.73505 1.43661,-6.68907 -0.68073,-11.3 -4.60022,-10.01786 -12.72534,-11.5106 -19.41024,-3.56604 -2.83279,3.36657 -6.28454,13.32583 -5.21715,15.0529 0.92222,1.49218 23.79798,1.32328 25.30812,-0.18686 z m 46.60107,54.29457 c -4.40688,-2.00137 -7.40821,-5.56923 -9.24812,-10.99379 -0.76085,-2.2432 -1.15295,-12.80288 -1.15295,-31.05 0,-20.17283 -0.32453,-27.97531 -1.2,-28.85078 -0.66,-0.66 -3.36,-1.2 -6,-1.2 -3.96821,0 -4.8,-0.31416 -4.8,-1.81291 0,-2.63633 5.01608,-6.97947 8.5,-7.35969 2.83733,-0.30965 3.01702,-0.59714 3.31396,-5.30201 0.17268,-2.73603 0.83924,-5.60752 1.48124,-6.38108 2.66494,-3.21106 16.74128,-13.14431 18.62671,-13.14431 2.58878,0 3.01651,1.86247 3.33001,14.5 l 0.24808,10 8.98986,0.5 c 9.7076,0.53991 10.4587,1.08421 9.0796,6.57909 -0.5743,2.28834 -1.0128,2.42091 -8.0068,2.42091 -4.06946,0 -8.11089,0.27314 -8.98087,0.60699 -1.38384,0.53103 -1.58179,3.72615 -1.58179,25.53212 0,26.49184 0.4172,29.30432 4.94583,33.34176 1.52408,1.35877 3.37323,1.89964 5.88793,1.72222 2.0164,-0.14226 5.0162,-0.35865 6.6662,-0.48087 2.4319,-0.18014 3.0605,0.20375 3.3195,2.02722 0.2758,1.94205 -0.9442,2.86445 -8.9274,6.75 -10.62636,5.17196 -17.26745,5.87566 -24.49099,2.59513 z M 0.3184,440.87494 c 0.2702,-2.26186 1.0387,-2.84799 5.069,-3.86607 5.5364,-1.39848 8.2244,-3.56313 10.8759,-8.75842 1.0526,-2.06225 10.7033,-26.12528 21.4461,-53.4734 10.7428,-27.34812 20.0712,-50.0667 20.7299,-50.48574 1.673,-1.06437 7.6786,-2.1436 8.326,-1.4962 0.2943,0.29435 6.077,15.98587 12.8503,34.87004 16.3292,45.52574 23.7812,65.46394 26.3485,70.49628 2.564,5.02578 6.2323,8.07152 10.7401,8.91718 3.3194,0.62272 5.2546,3.28241 3.9382,5.41244 -0.3918,0.63396 -9.6854,1.00895 -25.0056,1.00895 -15.3201,0 -24.6137,-0.37499 -25.0055,-1.00895 -1.364,-2.20694 0.6043,-4.74539 4.122,-5.31624 4.4082,-0.71534 6.3842,-2.27829 6.3813,-5.04725 0,-2.44036 -8.5166,-25.34289 -10.1552,-27.31731 -1.5174,-1.82828 -31.13,-1.88298 -32.6185,-0.0602 -1.4743,1.80544 -8.2241,23.92358 -8.2241,26.94954 0,3.30492 1.7689,4.69458 7.1434,5.61208 3.7669,0.64305 4.3566,1.07842 4.3566,3.21606 l 0,2.47232 -20.8184,0.2705 L 0,443.54099 0.3184,440.87494 Z m 66.3708,-47.6509 c 0.6252,-1.62902 -10.8676,-33.99579 -12.2327,-34.45083 -1.3017,-0.43389 -12.7113,32.26386 -11.9502,34.2471 0.7692,2.00464 23.4186,2.19545 24.1829,0.20373 z m 199.6312,47.6304 c 0.2683,-2.24307 1.0483,-2.83045 5.1273,-3.86087 2.646,-0.66841 5.346,-1.75014 6,-2.40383 0.8809,-0.88045 1.2606,-14.59625 1.4648,-52.91286 0.3086,-57.89467 0.6793,-54.86488 -6.9392,-56.71254 -3.2345,-0.78444 -4.4148,-1.59054 -4.6448,-3.17213 -0.3704,-2.54769 -0.8703,-2.38424 18.1267,-5.92612 12.7383,-2.37496 14.9471,-2.55948 15.7347,-1.31444 0.504,0.79659 0.9232,13.75504 0.9316,28.79655 l 0.015,27.3482 3.25,-2.13697 c 7.6921,-5.05775 13.363,-7.33894 19.4612,-7.82845 8.2625,-0.66323 14.2923,1.13967 19.6838,5.88545 7.544,6.64057 7.9578,8.55258 8.5691,39.60058 0.5924,30.08439 0.5313,29.81881 7.1753,31.17766 2.7167,0.55563 3.3606,1.15848 3.3606,3.14633 l 0,2.459 -20.9281,0.27083 c -21.7697,0.28172 -23.5685,-0.0401 -21.5285,-3.85192 0.4971,-0.92887 2.0093,-1.96629 3.3603,-2.30538 5.5192,-1.38524 5.5963,-1.76708 5.5963,-27.71708 0,-26.75436 -0.4983,-29.40082 -6.1898,-32.87082 -4.5858,-2.79589 -12.1002,-2.67779 -17.3102,0.27206 l -4,2.2648 -0.2811,25.96875 c -0.1546,14.28282 -0.026,27.01091 0.2856,28.28466 0.3468,1.41712 1.9112,2.87766 4.0311,3.76342 2.6356,1.10123 3.4644,2.04238 3.4644,3.9341 l 0,2.48658 -22.0664,0 -22.0664,0 0.3164,-2.64556 z m 190.9983,-0.0475 c 0.268,-2.29875 0.9479,-2.85433 4.3181,-3.52859 7.5126,-1.50301 7.5,-1.44813 7.5,-32.73412 0,-26.47934 -0.091,-27.81625 -2.0032,-29.54716 -1.1018,-0.99712 -3.6893,-2.087 -5.75,-2.42195 -3.1183,-0.50686 -3.7468,-1.01133 -3.7468,-3.00746 0,-2.30254 0.6589,-2.52858 16.4756,-5.65263 9.0616,-1.78979 16.8241,-3.0388 17.25,-2.77557 0.426,0.26323 0.7744,3.60205 0.7744,7.41959 0,3.81754 0.2944,6.94098 0.6543,6.94098 0.3598,0 3.1111,-2.71498 6.114,-6.03328 3.0029,-3.31831 6.7361,-6.69331 8.2961,-7.5 5.4841,-2.83592 12.9613,-1.12353 16.3749,3.75007 3.8547,5.50326 0.5214,15.6482 -6.0424,18.39077 -3.376,1.41057 -3.7834,1.35594 -7.9062,-1.06018 -6.3048,-3.69483 -10.5307,-3.4048 -14.3871,0.98742 l -3.1036,3.53476 0,22.46521 c 0,25.33561 0.1081,25.71485 7.6943,26.99674 6.7464,1.14001 7.4407,1.51128 7.114,3.80435 -0.3054,2.14407 -0.5381,2.16659 -25.1264,2.43173 l -24.8181,0.26762 0.3181,-2.72833 z m 70.4848,2.02642 c -0.3667,-0.36669 -0.6667,-1.45976 -0.6667,-2.42907 0,-1.27727 1.5249,-2.20566 5.5398,-3.37283 4.23,-1.22968 5.7668,-2.2076 6.5,-4.13606 0.5281,-1.38908 0.9602,-14.37145 0.9602,-28.84972 0,-29.71045 -0.027,-29.8242 -7.5,-31.32947 -3.3188,-0.66853 -4,-1.21051 -4,-3.18279 0,-2.27119 0.7126,-2.51866 16,-5.55697 10.7245,-2.13143 16.4122,-2.85871 17.25,-2.20574 0.9579,0.74654 1.25,9.20492 1.25,36.19675 0,39.56466 -0.3655,37.66227 7.5502,39.29593 3.3028,0.68164 4.0017,1.25927 4.2663,3.5259 l 0.3164,2.71071 -23.3998,0 c -12.8698,0 -23.6997,-0.3 -24.0664,-0.66667 z m 51.7,-0.8203 c -0.341,-0.88866 7.9201,-15.18756 20.5313,-35.53683 11.6061,-18.72745 21.102,-34.5331 21.102,-35.12368 0,-0.72132 -3.5304,-0.95296 -10.755,-0.70568 -12.962,0.44366 -15.281,1.69112 -20.1598,10.8447 -2.7974,5.24856 -3.5472,6.00132 -5.416,5.43775 -1.1931,-0.35976 -2.5429,-0.99976 -2.9997,-1.42221 -0.9327,-0.86269 4.8467,-24.92331 6.3471,-26.42369 0.6175,-0.61749 2.3614,-0.17725 4.8594,1.22673 3.7257,2.09396 5.0125,2.18985 29.3877,2.18985 21.0715,0 25.7005,0.25191 26.6972,1.45285 0.9858,1.18775 -2.4569,7.55432 -18.8671,34.8909 -11.04,18.39092 -20.3507,34.16214 -20.6903,35.04714 -0.5447,1.41946 0.6954,1.60911 10.5217,1.60911 15.3655,0 20.1323,-2.17387 25.765,-11.75 2.5374,-4.31383 5.066,-5.32246 8.267,-3.29764 1.2491,0.79011 1.1175,1.89459 -0.9211,7.73469 -1.308,3.74712 -3.1852,8.72545 -4.1716,11.06295 l -1.7934,4.25 -33.5669,0 c -28.7841,0 -33.6482,-0.21188 -34.1375,-1.48697 z m 189.1774,-21.41539 c -2.449,-5.43082 -8.2835,-10.81321 -14.116,-13.02211 l -4.9281,-1.86639 -0.7361,-8.85457 C 745.7309,358.72532 739.084,333.48639 724.183,303 711.5387,277.13056 697.8519,258.04882 677.198,237.49477 640.9552,201.42722 594.4817,178.24259 542.6368,170.365 c -25.4846,-3.87227 -59.7438,-2.7505 -85,2.78321 -56.8787,12.46233 -107.5053,44.8596 -141.9726,90.85179 -7.7957,10.40245 -17.6758,25.93845 -22.3709,35.17729 -2.4472,4.81529 -1.9149,4.59261 -17.6471,7.38308 -13.3321,2.36476 -14.4596,2.78959 -17.4318,6.56817 -1.6048,2.04018 -2.0776,4.07687 -2.0776,8.95055 0,7.2933 2.3301,11.01186 8.122,12.96199 l 3.378,1.13736 0,8.41078 c 0,6.97519 -0.256,8.34718 -1.5,8.03817 -0.825,-0.20494 -3.975,-0.65494 -7,-1 l -5.5,-0.62739 -0.5272,-8.08553 c -0.3509,-5.38196 -1.1315,-9.00774 -2.3343,-10.84354 -2.3851,-3.64011 -9.9098,-6.96666 -13.9368,-6.16126 -1.6802,0.33603 -8.1374,4.42858 -14.3494,9.09454 -10.4271,7.83199 -14.3523,12.1638 -14.3523,15.83914 0,2.32966 -2.7755,2.73131 -6.5235,0.94403 -3.2644,-1.55669 -4.723,-1.54561 -22.7323,0.17264 -10.5843,1.00983 -20.0492,2.24466 -21.0332,2.74408 -1.332,0.67607 -2.565,0.25507 -4.8267,-1.64804 -3.6632,-3.08234 -4.3266,-3.10369 -27.0909,-0.87191 -9.7386,0.95476 -17.9433,1.49921 -18.2327,1.20988 -0.7785,-0.77848 4.9388,-31.79347 6.0691,-32.92383 0.6232,-0.62318 4.6861,-0.28104 11.4188,0.96158 8.0208,1.48036 10.7171,1.65445 11.5939,0.74859 1.4289,-1.47628 8.3455,-26.87147 7.6349,-28.0324 -0.5582,-0.91201 -2.6536,-1.82287 -14.0274,-6.09783 -3.9875,-1.49875 -7.25,-3.28288 -7.25,-3.96474 0,-1.06913 6.9149,-20.71869 10.1475,-28.8354 0.6023,-1.5125 1.8281,-2.74987 2.7239,-2.7497 0.8957,1.6e-4 5.9348,1.53952 11.1978,3.42078 5.263,1.88127 10.0011,3.11864 10.529,2.74971 1.8165,-1.26942 12.6829,-24.99586 12.1199,-26.46319 -0.3101,-0.80793 -4.6397,-3.80148 -9.6214,-6.65231 -4.9818,-2.85083 -9.3187,-5.60546 -9.6375,-6.12139 -0.9786,-1.5833 15.8159,-29.89591 17.7455,-29.91608 0.9376,-0.01 5.8464,2.41568 10.9086,5.38996 5.0621,2.97427 9.695,5.19707 10.2953,4.93955 1.5528,-0.66613 16.5914,-22.26779 16.5914,-23.83207 0,-0.71438 -3.825,-4.54625 -8.5,-8.51526 -4.675,-3.96901 -8.5,-7.809 -8.5,-8.53331 0,-1.54777 20.6604,-26.46669 21.9437,-26.46669 0.4804,0 4.9185,3.375 9.8623,7.5 4.9439,4.125 9.3806,7.5 9.8593,7.5 0.4788,0 5.5518,-4.69733 11.2735,-10.43851 l 10.4029,-10.43851 -3.5435,-4.31149 c -1.949,-2.37132 -5.4009,-6.55324 -7.6709,-9.29316 -2.27,-2.73992 -4.1273,-5.50238 -4.1273,-6.1388 0,-1.25302 24.5823,-22.37953 26.0403,-22.37953 0.487,0 4.5431,4.27624 9.0136,9.50275 4.8328,5.65002 8.5981,9.23594 9.2872,8.84467 5.1668,-2.93382 23.6589,-15.89451 23.6589,-16.582 0,-0.47893 -2.7306,-5.60151 -6.0681,-11.38351 -4.922,-8.52698 -5.8405,-10.78703 -4.863,-11.96492 2.0459,-2.46519 27.8323,-16.66891 29.2642,-16.11942 0.7425,0.28492 3.9464,5.06396 7.1199,10.62009 3.1735,5.55614 6.1177,10.31703 6.5429,10.57976 1.2988,0.80275 26.4843,-11.10831 26.7924,-12.67106 0.1585,-0.80417 -1.5728,-6.54029 -3.8473,-12.74694 -2.2746,-6.20664 -3.7543,-11.6576 -3.2883,-12.11324 1.351,-1.32086 31.4737,-12.00609 32.339,-11.47136 0.4302,0.26593 2.6963,5.70173 5.0356,12.07957 2.3394,6.37784 4.8542,11.82664 5.5886,12.10846 1.4419,0.55331 26.3583,-5.43871 27.6923,-6.6596 C 427.8895,36.11645 427.2558,30.07599 426.0368,23.1 424.71,15.50706 424.185,10.05544 424.7286,9.51709 425.7114,8.54395 452.3155,3.5 456.4655,3.5 c 2.7332,0 2.9549,0.66274 5.6878,17 1.8796,11.23643 0.4763,10.30125 14.3341,9.55234 6.6822,-0.36112 13.3748,-0.89121 14.8724,-1.17798 l 2.723,-0.52141 0.277,-14.17647 L 494.6368,0 l 17.5,0 17.5,0 0.5,14.5 0.5,14.5 14.2586,1.40808 c 7.8422,0.77445 14.5361,1.13056 14.8753,0.79136 0.5249,-0.52484 1.6846,-6.33173 4.883,-24.44944 0.4712,-2.66902 1.0305,-3.25 3.1289,-3.25 4.2045,0 30.7804,5.04464 31.7773,6.03198 0.5635,0.5581 0.021,6.20557 -1.3918,14.49927 -1.3451,7.8938 -1.9413,13.93252 -1.4231,14.41439 1.149,1.06838 26.6824,7.98105 27.542,7.45645 0.3577,-0.21823 2.7871,-6.26277 5.3987,-13.43232 2.6117,-7.16954 5.0966,-13.25065 5.522,-13.51358 1.1681,-0.72191 32.0461,10.68512 32.5619,12.02907 0.2464,0.64235 -1.5951,6.72372 -4.0923,13.51415 -2.4973,6.79044 -4.5405,12.96617 -4.5405,13.72386 0,0.78344 5.4992,3.97323 12.75,7.39571 l 12.75,6.01811 1.8584,-2.31855 c 1.022,-1.2752 4.5198,-6.93104 7.7727,-12.56854 3.2529,-5.6375 6.5277,-10.25 7.2774,-10.25 2.0063,0 29.5915,16.1159 29.5915,17.28807 0,0.54968 -3.1939,6.54047 -7.0976,13.31288 -3.9036,6.7724 -6.9411,12.74682 -6.75,13.27647 0.5279,1.46234 21.4403,16.12317 22.9917,16.11847 0.7457,-0.002 5.535,-4.95227 10.6427,-11 C 756.0313,89.44815 760.6102,84.5 761.0987,84.5 c 1.6441,0 26.0381,21.05503 26.0381,22.47409 0,0.77224 -4.05,6.20849 -9,12.08057 -4.95,5.87207 -9,11.19543 -9,11.82968 0,1.78516 19.6579,20.94512 20.7788,20.2524 0.5456,-0.33724 5.8634,-4.66847 11.8171,-9.62495 5.9538,-4.95649 11.1544,-9.01179 11.557,-9.01179 1.3249,0 21.84714,24.78234 21.84714,26.38225 0,0.86016 -4.95,5.69858 -11.00004,10.75204 -6.05,5.05346 -11,9.77916 -11,10.50155 0,1.74248 14.87763,23.36416 16.0766,23.36416 0.51362,0 6.4612,-3.15 13.21684,-7 6.75564,-3.85 12.96033,-7 13.78821,-7 1.73822,0 18.36467,28.46888 17.47098,29.91491 -0.31727,0.51335 -6.20796,4.17919 -13.09043,8.14631 -6.88246,3.96712 -12.72184,7.54993 -12.97639,7.9618 -0.84943,1.37442 11.39093,25.97698 12.92416,25.97698 0.80475,0 7.00424,-2.03977 13.77663,-4.53282 6.77239,-2.49304 13.16588,-4.40554 14.20775,-4.25 1.46276,0.21839 3.12426,3.67862 7.29327,15.18888 2.96943,8.19833 5.26699,15.55648 5.10569,16.35144 -0.17296,0.85243 -5.80716,3.45114 -13.73398,6.33465 -7.3924,2.6891 -13.87092,5.31948 -14.39673,5.84529 -0.60801,0.60801 -0.35658,3.09234 0.69072,6.82489 2.7563,9.82338 3.47818,9.23767 -11.3854,9.23767 -19.62276,0 -22.96788,2.08598 -22.96788,14.32251 0,6.48813 0.19249,7.06998 3.4,10.27749 2.70691,2.70691 4.19682,3.4 7.30887,3.4 7.3536,0 7.65734,0.70659 8.12009,18.88976 0.23327,9.1661 0.0226,16.11024 -0.48864,16.11024 -0.49424,0 -12.53063,-13.54704 -26.74753,-30.10453 -18.24393,-21.24755 -26.83153,-30.51509 -29.18873,-31.5 -4.4393,-1.85484 -36.7489,-1.95963 -40.3077,-0.13073 -4.605,2.36661 -6.5995,6.33718 -6.5613,13.06201 0.053,9.28778 2.818,12.43883 12.3696,14.09484 6.358,1.10231 6.0953,-0.55949 6.0953,38.56128 0,34.43162 -0.4665,45.01713 -1.984,45.01713 -0.3917,0 -1.5041,-1.75606 -2.4719,-3.90236 z m -30.651,-193.1919 c 9.3284,-4.55755 21.6421,-16.98578 26.1625,-26.40574 2.9281,-6.1018 3.3646,-8.02651 3.4018,-15 0.063,-11.78921 -1.8336,-14.98122 -19.6065,-33 l -14.7953,-15 -29.7778,29.75818 -29.7778,29.75816 14.5,14.24686 c 14.9,14.63983 19.9412,18.13847 28.1953,19.5678 6.4313,1.1137 14.2963,-0.30914 21.6978,-3.92529 z m -24.2093,-7.30139 c -2.0989,-0.7778 -4.7989,-2.22606 -6,-3.21835 -4.8591,-4.01446 -18.6838,-17.9038 -18.6838,-18.77128 0,-1.18434 20.2149,-21.72949 34.3118,-34.87231 l 10.8117,-10.08002 9.4655,9.41879 c 11.4825,11.42576 13.8832,15.77487 13.153,23.82762 -0.7152,7.8879 -3.7798,13.3405 -12.2795,21.84787 -10.9203,10.93029 -21.8751,15.14711 -30.7787,11.84765 z m -400.9814,7.19948 c 1.8137,-1.75792 3.2976,-3.71439 3.2976,-4.34775 0,-1.35584 -36.7847,-78.51802 -38.0865,-79.89287 -0.9388,-0.99143 -5.3648,2.57837 -7.0326,5.67212 -0.721,1.33735 2.9966,9.54773 16.2094,35.79903 9.4298,18.73502 16.9624,34.24626 16.7393,34.46941 -0.2232,0.22315 -15.4581,-6.11719 -33.8554,-14.08965 -18.3973,-7.97246 -34.3944,-14.73249 -35.549,-15.02229 -2.7286,-0.68484 -9.2132,6.2201 -7.4744,7.9589 1.5033,1.50335 78.0498,32.47505 80.5016,32.57202 1.0738,0.0425 3.4363,-1.36106 5.25,-3.11895 z m 58.5124,-47.38184 c 13.3569,-8.13102 24.5899,-15.23819 24.9622,-15.7937 0.8598,-1.2828 -1.8223,-6.55494 -3.7015,-7.27608 -0.7837,-0.30075 -10.8926,5.19726 -22.5611,12.27056 -24.4943,14.84811 -20.7053,14.96745 -30.3391,-0.9556 -3.1746,-5.24699 -5.4872,-10.00068 -5.1392,-10.56377 0.348,-0.56309 8.9423,-6.06723 19.0984,-12.23142 11.4781,-6.96662 18.4637,-11.80633 18.4606,-12.7898 0,-0.8702 -1.0153,-2.83387 -2.25,-4.36371 l -2.2451,-2.78156 -19.2471,11.65633 c -15.3241,9.28044 -19.5323,11.41969 -20.646,10.49541 -2.385,-1.97935 -11.7124,-18.30194 -11.3964,-19.94309 0.1646,-0.85441 9.1845,-6.97421 20.0443,-13.59954 13.1501,-8.02261 19.7451,-12.61193 19.7451,-13.74029 10e-5,-0.93183 -1.0329,-2.89519 -2.2955,-4.36304 l -2.2956,-2.6688 -25.2583,15.35295 c -19.8514,12.06648 -25.1607,15.72609 -24.8024,17.09611 0.2507,0.95874 9.8036,17.08269 21.2287,35.831 16.6982,27.40129 21.124,33.99603 22.5628,33.61977 0.9845,-0.25745 12.7183,-7.12074 26.0752,-15.25176 z m 295.7127,7.94315 c 1.1399,-1.4492 2.0725,-3.3947 2.0725,-4.32335 0,-1.16722 -6.6372,-5.32272 -21.5,-13.46098 -14.6377,-8.01503 -21.497,-12.30048 -21.4906,-13.42668 0.016,-2.7489 11.37,-22.61312 13.1149,-22.9442 0.8934,-0.1695 9.7975,4.21391 19.787,9.74093 9.9894,5.52701 18.8106,10.04911 19.6026,10.04911 1.854,0 4.7514,-4.4038 4.3189,-6.56453 -0.1943,-0.971 -7.8219,-5.7961 -18.3328,-11.59697 -9.9,-5.46375 -18.6117,-10.54043 -19.3595,-11.28151 -1.1445,-1.13433 -0.6205,-2.70295 3.3131,-9.91923 2.5698,-4.71451 5.4455,-9.52647 6.3903,-10.69324 l 1.7178,-2.12141 20.9692,11.59324 20.9691,11.59324 2.304,-2.62335 c 1.2673,-1.44285 2.1673,-3.49724 2,-4.56533 -0.218,-1.39266 -7.4877,-5.90402 -25.7007,-15.94902 -20.896,-11.52481 -25.6237,-13.77357 -26.6777,-12.68947 -2.188,2.25056 -39.6154,70.74804 -39.2523,71.83737 0.306,0.91798 51.3367,29.70559 53.0042,29.90087 0.3725,0.0436 1.61,-1.10635 2.75,-2.55552 z M 415.3868,157.32648 c 0.9625,-0.49326 1.75,-1.37699 1.75,-1.96382 0,-0.58684 -1.8,-7.72503 -4,-15.86266 -2.2,-8.13763 -4,-15.72422 -4,-16.8591 0,-1.61815 1.1329,-2.41074 5.25,-3.67293 2.8875,-0.88523 7.7487,-1.85712 10.8027,-2.15974 7.2277,-0.7162 10.7731,1.08669 22.3059,11.3429 18.9922,16.88997 17.1598,15.64818 22.0159,14.91996 2.3955,-0.35923 5.2037,-1.27809 6.2405,-2.04191 1.7674,-1.3021 1.414,-1.82358 -5.6617,-8.35521 -12.8572,-11.86847 -18.2532,-16.17305 -23.1465,-18.46471 -2.5945,-1.21509 -4.6223,-2.55455 -4.5063,-2.97658 0.1161,-0.42202 2.4258,-2.44702 5.1327,-4.5 6.8365,-5.18509 9.8367,-11.08482 9.3401,-18.36713 -0.512,-7.50972 -4.204,-14.51969 -9.6679,-18.3564 -3.939,-2.766 -4.9446,-3.00472 -12.4453,-2.95428 -6.6329,0.0446 -11.8758,1.06262 -28.0142,5.43946 -11.2766,3.05832 -20.0738,5.95733 -20.3628,6.71033 -0.6057,1.57841 19.4054,77.21506 20.9076,79.02506 1.0491,1.26406 4.6088,0.86511 8.0593,-0.90324 z m -13.193,-58.91936 c -1.7598,-6.65109 -2.9993,-12.61501 -2.7544,-13.25316 0.5467,-1.42467 27.9082,-8.72509 32.5463,-8.68378 8.0034,0.0713 13.4692,5.60283 13.4793,13.64139 0.01,5.28442 -2.9933,9.54233 -8.5626,12.15331 -4.6034,2.15813 -26.4367,8.23512 -29.587,8.23512 -1.6135,0 -2.4353,-1.94044 -5.1216,-12.09288 z M 602.019,133.75 c 3.8322,-11.9625 9.4169,-29.4 12.4103,-38.75 2.9935,-9.35 5.2537,-17.49832 5.0228,-18.10737 -0.5927,-1.56353 -8.3594,-3.74848 -9.4495,-2.65838 -1.372,1.37194 -25.0243,76.20397 -24.6691,78.04865 0.3161,1.64115 3.4286,2.93308 7.5106,3.11742 2.0116,0.0908 2.8247,-1.82788 9.1749,-21.65032 z m -103.6281,7.5 c 0.3432,-0.91638 -3.7102,-80.92294 -4.1796,-82.5 -0.268,-0.90027 -9.0231,-0.0105 -9.8396,1 -0.6847,0.84747 -0.2658,14.29197 1.3011,41.75 1.271,22.275 2.3454,40.6125 2.3875,40.75 0.2939,0.96035 9.9464,0.026 10.3306,-1 z m 27.5294,0 c 0.5656,-0.6875 2.0168,-8.9 3.225,-18.25 1.2082,-9.35 2.5105,-17.33741 2.8939,-17.74981 0.3835,-0.41239 8.7748,0.3135 18.6474,1.6131 9.8726,1.2996 18.4671,2.16889 19.0988,1.93175 1.2903,-0.48439 2.2923,-6.77272 1.3278,-8.33335 -0.3439,-0.55637 -8.7968,-2.04289 -18.7842,-3.30336 -9.9874,-1.26048 -18.4328,-2.56564 -18.7675,-2.90035 -1.0132,-1.01316 1.8555,-22.89529 3.1744,-24.21418 0.9705,-0.97047 5.5956,-0.6598 22.0644,1.48206 14.0161,1.82288 21.2457,2.38575 22.0865,1.71958 1.0351,-0.82002 1.901,-8.74544 0.9556,-8.74544 -0.162,0 -12.4133,-1.56365 -27.2252,-3.47478 -14.812,-1.91112 -27.2956,-3.10999 -27.7414,-2.66416 -0.927,0.92699 -10.917,77.59305 -10.5077,80.63894 0.1909,1.42049 1.2829,2.17917 3.7687,2.61836 1.925,0.3401 3.7824,0.6776 4.1276,0.75 0.3451,0.0724 1.0903,-0.43086 1.6559,-1.11836 z M 253.8346,420.86443 c -0.3838,-0.38377 -0.6978,-8.93919 -0.6978,-19.01204 0,-20.52312 -0.7964,-18.43057 7.5,-19.70469 1.65,-0.2534 4.0847,-0.79916 5.4105,-1.2128 l 2.4104,-0.75208 -0.6544,8.40859 c -0.36,4.62472 -0.6572,13.42766 -0.6605,19.56208 l -0.01,11.15348 -4.75,0.41914 c -2.6125,0.23053 -5.4485,0.73796 -6.3022,1.12762 -0.8537,0.38966 -1.8662,0.39447 -2.25,0.0107 z M 157.1368,400.5 c 0,-19.21395 0.077,-20 1.9649,-20 3.3822,0 4.0351,3.23629 4.0351,20 0,16.76371 -0.6529,20 -4.0351,20 -1.8876,0 -1.9649,-0.78605 -1.9649,-20 z m -49.9229,1.04364 c -3.7275,-9.66583 -3.7839,-10.82814 -0.5641,-11.63626 4.3933,-1.10264 5.487,0.9218 5.487,10.15605 0,4.57519 -0.4153,8.57522 -0.9229,8.88893 -0.5076,0.31372 -2.3076,-3.0202 -4,-7.40872 z M 891.13684,352.0651 c 0,-8.40911 1.20841,-11.5651 4.4282,-11.5651 6.91521,0 10.89296,-4.75756 11.12339,-13.30404 0.17502,-6.49165 1.62236,-9.01229 3.82017,-6.6531 1.56403,1.67887 6.12797,27.21249 5.26567,29.4596 -0.31606,0.82365 -1.16398,1.49754 -1.88426,1.49754 -0.72028,0 -4.59607,1.575 -8.61287,3.5 -4.0168,1.925 -8.8416,3.5 -10.72179,3.5 l -3.41851,0 0,-6.4349 z M 1022.1674,346.5 c 0,-3.91575 0.2792,-5.06793 0.9694,-4 0.5332,0.825 0.9694,2.625 0.9694,4 0,1.375 -0.4362,3.175 -0.9694,4 -0.6902,1.06793 -0.9694,-0.0842 -0.9694,-4 z m -6.3712,3.20932 c -0.4806,-0.74943 -1.657,-1.02746 -2.8053,-0.66301 -1.7879,0.56746 -1.9477,0.21912 -1.6658,-3.6316 0.1725,-2.35736 0.8893,-4.44931 1.6053,-4.68486 0.9377,-0.30851 1.1143,0.2891 0.6416,2.17228 -0.5133,2.04516 -0.285,2.59787 1.073,2.59787 1.2327,0 1.5758,-0.5708 1.2021,-2 -0.5612,-2.14573 0.8038,-2.83643 1.4821,-0.75 0.7257,2.23224 -0.6269,8.37236 -1.533,6.95932 z m -472.6594,-7.38421 c -7.2522,-4.87246 -8.7192,-13.44002 -3.3865,-19.77761 9.7173,-11.54837 27.9323,0.13711 22.073,14.16048 -2.9819,7.13672 -12.2693,9.92851 -18.6865,5.61713 z"
     id="path6908"
     inkscape:connector-curvature="0" />
</svg>
