<?xml version="1.0" encoding="UTF-8" standalone="no"?>
<!-- Created with Inkscape (http://www.inkscape.org/) -->

<svg
   xmlns:dc="http://purl.org/dc/elements/1.1/"
   xmlns:cc="http://creativecommons.org/ns#"
   xmlns:rdf="http://www.w3.org/1999/02/22-rdf-syntax-ns#"
   xmlns:svg="http://www.w3.org/2000/svg"
   xmlns="http://www.w3.org/2000/svg"
   xmlns:sodipodi="http://sodipodi.sourceforge.net/DTD/sodipodi-0.dtd"
   xmlns:inkscape="http://www.inkscape.org/namespaces/inkscape"
   id="svg4698"
   version="1.1"
   inkscape:version="0.91 r13725"
   width="968"
   height="1569.8541"
   viewBox="0 0 968 1569.8541"
   sodipodi:docname="bbb.svg">
  <metadata
     id="metadata4704">
    <rdf:RDF>
      <cc:Work
         rdf:about="">
        <dc:format>image/svg+xml</dc:format>
        <dc:type
           rdf:resource="http://purl.org/dc/dcmitype/StillImage" />
        <dc:title></dc:title>
      </cc:Work>
    </rdf:RDF>
  </metadata>
  <defs
     id="defs4702" />
  <sodipodi:namedview
     pagecolor="#ffffff"
     bordercolor="#666666"
     borderopacity="1"
     objecttolerance="10"
     gridtolerance="10"
     guidetolerance="10"
     inkscape:pageopacity="0"
     inkscape:pageshadow="2"
     inkscape:window-width="1920"
     inkscape:window-height="1017"
     id="namedview4700"
     showgrid="false"
     fit-margin-top="0"
     fit-margin-left="0"
     fit-margin-right="0"
     fit-margin-bottom="0"
     inkscape:zoom="0.295"
     inkscape:cx="458.09095"
     inkscape:cy="689.32847"
     inkscape:window-x="-8"
     inkscape:window-y="-8"
     inkscape:window-maximized="1"
     inkscape:current-layer="svg4698" />
  <path
     style="fill:#a0a3a4"
     d="m 78.499999,1568.8808 c -3.3,-0.4753 -9.6,-2.0499 -14,-3.4993 -16.51097,-5.4386 -27.85398,-12.6749 -39.840039,-25.4162 C 12.72661,1527.2801 5.03452,1512.5509 1.58532,1495.7809 0.14704,1488.7879 0,1422.8621 0,784.98876 0,147.11529 0.14704,81.189515 1.58532,74.196575 c 5.5713,-27.0877 24.41677,-51.73309 48.914679,-63.96878 8.20049,-4.09581 20.58232,-8.03002 29,-9.21447 9.60195,-1.3511 799.398051,-1.3511 809.000001,0 3.85,0.54173 10.6,2.16234 15,3.60134 16.4506,5.38013 27.83849,12.63971 39.83999,25.39743 11.9334,12.68522 19.6255,27.41442 23.0747,44.18448 1.4383,6.99294 1.5853,72.918715 1.5853,710.792185 0,637.87334 -0.147,703.79914 -1.5853,710.79214 -5.5713,27.0877 -24.4168,51.733 -48.91469,63.9687 -8.20049,4.0958 -20.58232,8.0301 -29,9.2145 -8.81219,1.24 -801.377301,1.1584 -810.000001,-0.083 z m 817.698471,-8.588 c 33.97372,-9.6907 57.85432,-35.4393 63.75082,-68.7378 1.4766,-8.3385 1.4766,-1404.79404 0,-1413.132615 -2.947,-16.64212 -10.6082,-31.85758 -22.1686,-44.02763 C 926.1264,22.125765 911.47989,13.647625 894.32891,9.242635 887.8746,7.584945 865.36591,7.488725 484,7.488725 c -381.36591,0 -403.874601,0.0962 -410.328911,1.75391 -34.58467,8.88259 -59.615929,35.27159 -65.620359,69.17975 -1.47659,8.338575 -1.47659,1404.794115 0,1413.132615 3.21605,18.1617 10.90827,32.6782 24.340019,45.9337 9.82543,9.6965 17.64917,14.8153 29.84308,19.5252 16.11186,6.2232 -14.2127,5.8206 424.766171,5.64 l 401.5,-0.1652 7.69847,-2.1959 z M 75.638469,1542.4032 c -18.10203,-4.3817 -34.76038,-17.9897 -43.61395,-35.6276 -7.395649,-14.7335 -7.105289,-9.0197 -6.798599,-133.7869 l 0.27408,-111.5 458.5,0 458.49999,0 0.2741,111.5 c 0.3067,124.7672 0.597,119.0534 -6.7986,133.7869 -8.9715,17.8729 -25.57454,31.314 -44.06369,35.6722 -5.66761,1.3359 -53.06995,1.5034 -408.4118,1.4428 -343.52412,-0.059 -402.852631,-0.2749 -407.861531,-1.4874 z M 325.4344,1490.3024 c 5.05159,-1.4044 7.08347,-2.7 12.15434,-7.75 9.61931,-9.5797 9.91126,-10.9513 9.91126,-46.5637 l 0,-29.5 -7.64449,-0.2902 -7.64449,-0.2901 -0.40962,27.2901 c -0.3475,23.1509 -0.6741,27.8948 -2.15324,31.2766 -3.45865,7.9073 -8.67315,11.5136 -16.64816,11.5136 -7.96375,0 -13.14803,-3.579 -16.67797,-11.5136 -1.52365,-3.4249 -1.82389,-7.8303 -2.13165,-31.277 l -0.35821,-27.2905 -7.66609,0.2905 -7.66608,0.2906 0,30 0,30 2.80226,6 c 6.09601,13.0523 16.08557,19.288 31.13214,19.4331 3.81391,0.037 9.66391,-0.6919 13,-1.6194 z m 88.173,-1.213 c 10.00932,-4.3592 15.41432,-12.7903 15.37064,-23.9764 -0.0381,-9.7598 -4.83123,-16.9623 -13.9801,-21.0078 -2.47614,-1.0949 -9.67614,-3.3948 -16,-5.1108 -13.02648,-3.5348 -15.68809,-4.923 -16.62932,-8.6731 -2.16014,-8.6067 12.71745,-12.8698 24.34718,-6.9766 2.82846,1.4333 5.42607,3.0645 5.77245,3.625 0.34638,0.5604 1.37527,1.019 2.28642,1.019 1.969,0 11.22533,-8.8514 11.22533,-10.7342 0,-1.8977 -11.50131,-9.0402 -17.35743,-10.7793 -2.75307,-0.8176 -8.44222,-1.4865 -12.64257,-1.4865 -19.21883,0 -31,9.3667 -31,24.6468 0,14.1402 5.73201,19.2516 28.34388,25.2751 6.51414,1.7352 12.96767,3.8914 14.3412,4.7913 3.442,2.2553 4.63033,5.8011 3.29757,9.8394 -1.50718,4.5668 -5.9495,6.4529 -15.13378,6.4254 -7.89427,-0.024 -13.07849,-1.7631 -19.22429,-6.4508 l -3.36273,-2.5649 -5.63092,4.7344 c -3.09701,2.6039 -5.63093,5.2658 -5.63093,5.9153 0,3.271 11.80513,10.7799 20.5,13.0394 7.85938,2.0424 24.79575,1.1982 31.1074,-1.5507 z m 276.44861,0.4808 c 10.39443,-3.7354 16.19289,-12.1525 16.24517,-23.5815 0.067,-14.6547 -6.72508,-21.0307 -28.20264,-26.475 -12.27018,-3.1104 -16.56563,-5.06 -17.97804,-8.1599 -1.21395,-2.6643 -0.23824,-6.1926 2.29361,-8.2938 4.73622,-3.9307 16.95301,-2.9693 24.59678,1.9357 2.56531,1.6461 5.13616,2.993 5.71299,2.993 0.57684,0 3.43633,-2.2415 6.35443,-4.9812 l 5.30564,-4.9812 -2.42157,-2.5776 c -1.33187,-1.4178 -5.78467,-4.2387 -9.89512,-6.2688 -7.30995,-3.6104 -7.7263,-3.6912 -19.0204,-3.6909 -10.5587,3e-4 -11.97475,0.2267 -16.54686,2.6456 -10.60877,5.6127 -13.9603,10.8593 -13.9603,21.8541 0,14.7572 5.17989,18.9396 32.28901,26.0707 9.818,2.5826 14.17129,5.6803 14.17129,10.0839 0,6.9845 -4.46874,9.866 -15.20034,9.8015 -4.01481,-0.024 -8.98307,-0.6447 -11.04058,-1.379 -3.46381,-1.2363 -4.68742,-1.9554 -10.29745,-6.0517 -1.89525,-1.3838 -2.40432,-1.1682 -7.25,3.0707 -2.8664,2.5074 -5.21163,5.1467 -5.21163,5.8651 0,1.6251 6.84108,7.8881 10.92041,9.9976 9.12071,4.7165 28.92812,5.7908 39.1356,2.1227 z m 76.67104,-0.5322 c 6.2822,-2.7352 12.72233,-9.4037 14.19146,-14.6946 1.63917,-5.9033 1.27465,-14.3426 -0.81437,-18.8547 -3.77107,-8.1451 -9.3041,-11.3922 -28.1062,-16.4943 -13.02648,-3.5348 -15.68809,-4.923 -16.62932,-8.6731 -2.16014,-8.6067 12.71745,-12.8698 24.34718,-6.9766 2.82846,1.4333 5.42607,3.0645 5.77245,3.625 1.28202,2.0743 4.06906,0.8949 8.7274,-3.6934 2.63139,-2.5918 4.78435,-5.2384 4.78435,-5.8813 0,-1.7031 -6.16531,-6.1326 -12.76454,-9.1708 -7.46741,-3.4379 -21.1043,-4.2877 -29.52454,-1.8398 C 725.05607,1409.7725 718,1418.3683 718,1429.1781 c 0,14.3859 6.09022,19.8805 28.5,25.7126 12.75151,3.3186 16.44649,5.2489 17.91011,9.3565 1.35684,3.808 -1.01674,8.6792 -5.05026,10.3645 -6.74515,2.8183 -20.65642,1.252 -26.60077,-2.9951 -1.24249,-0.8878 -3.22665,-2.3173 -4.40925,-3.1767 -2.03605,-1.4796 -2.41613,-1.3341 -7.16182,2.7431 -2.75641,2.3681 -5.28269,4.9216 -5.61396,5.6743 -1.3951,3.17 10.35036,11.2944 19.92595,13.7828 7.94013,2.0634 24.79421,1.1987 31.22705,-1.6021 z M 249.5,1488.1715 c 9.39708,-4.3039 14.32949,-11.2109 15.24924,-21.354 0.68423,-7.5458 -1.55418,-13.5164 -6.86671,-18.316 l -4.00062,-3.6143 2.95319,-3.3635 c 4.01786,-4.5761 5.53425,-9.6674 4.851,-16.2875 -0.78935,-7.648 -4.15576,-12.3491 -11.38511,-15.899 l -5.80099,-2.8485 -24.40042,-0.3156 c -19.34824,-0.2503 -24.57315,-0.043 -25.23469,1 -0.9681,1.5267 -1.18132,79.8274 -0.22417,82.3217 0.57962,1.5105 2.98776,1.6362 25.25,1.3182 23.12114,-0.3303 24.91163,-0.49 29.60928,-2.6415 z m -36.75,-13.2629 c -1.48968,-0.8677 -1.75,-2.571 -1.75,-11.4505 0,-10.3492 0.0201,-10.4363 2.55179,-11.0718 1.40349,-0.3522 7.81599,-0.4429 14.25,-0.2015 13.72681,0.5149 17.4165,1.9053 19.17192,7.2242 2.50441,7.5885 -1.33565,14.146 -9.17079,15.6607 -6.05145,1.1699 -22.95435,1.0612 -25.05292,-0.1611 z m -1.33051,-38.2691 c -0.28476,-0.7421 -0.38314,-4.4546 -0.21862,-8.25 l 0.29913,-6.9008 12.5,-0.289 c 14.25096,-0.3295 16.16032,-0.029 18.97232,2.9897 3.5641,3.8256 2.54743,9.962 -2.04384,12.3363 -3.90662,2.0202 -28.74069,2.1159 -29.50899,0.1138 z m 249.08051,11.8492 0,-42 -8,0 -8,0 -0.26143,40.999 c -0.14378,22.5495 -0.0381,41.581 0.23486,42.2924 0.36092,0.9405 2.61445,1.2135 8.26143,1.0009 l 7.76514,-0.2923 0,-42 z m 35.89301,40.9182 c 0.33385,-0.87 0.60699,-13.0575 0.60699,-27.0833 0,-15.2176 0.37347,-25.3671 0.92609,-25.1682 0.50935,0.1833 7.56453,10.0083 15.67816,21.8333 8.11364,11.825 16.48609,23.8625 18.60545,26.75 l 3.85339,5.25 6.9494,0 c 6.37799,0 6.9944,-0.185 7.49662,-2.25 0.30096,-1.2375 0.42204,-20.25 0.26905,-42.25 l -0.27816,-40 -8,0 -8,0 -0.26688,25.75 c -0.15027,14.4984 -0.66227,25.75 -1.17174,25.75 -0.49768,0 -7.76288,-10.0125 -16.14489,-22.25 -8.38202,-12.2375 -16.56929,-23.9555 -18.19395,-26.04 l -2.95393,-3.79 -7.63431,0.29 -7.6343,0.29 -0.26143,40.999 c -0.14378,22.5495 -0.0454,41.562 0.21862,42.25 0.32458,0.8459 2.88434,1.251 7.90444,1.251 5.84758,0 7.55331,-0.3359 8.03138,-1.5818 z m 138.10699,-6.4182 0,-7.5 -23,-0.5 -23,-0.5 -0.28886,-9.3507 c -0.18643,-6.035 0.12294,-9.8469 0.87245,-10.75 0.91359,-1.1008 4.86799,-1.3993 18.53885,-1.3993 l 17.37756,0 0,-7.5 0,-7.5 -16.80887,0 c -12.04953,0 -17.30286,-0.3612 -18.55354,-1.2757 -1.41117,-1.0319 -1.68664,-2.5133 -1.44113,-7.75 l 0.30354,-6.4743 22,-0.5 22,-0.5 0,-7.5 0,-7.5 -30.5,0 -30.5,0 -0.26143,40.999 c -0.14378,22.5495 -0.0429,41.5684 0.2241,42.2643 0.38025,0.9909 7.26706,1.208 31.76143,1.001 l 31.2759,-0.2643 0,-7.5 z M 230.41244,1380.4896 C 242.4515,1377.9391 256,1370.2787 256,1366.0223 c 0,-0.9838 -2.49995,-3.8467 -5.55545,-6.3622 l -5.55544,-4.5735 -4.39377,3.3538 c -12.2105,9.3205 -27.23883,8.4335 -34.40908,-2.0308 -7.22955,-10.5508 -6.628,-30.1785 1.19809,-39.092 7.94976,-9.0543 19.26442,-9.5516 31.15681,-1.3694 2.43055,1.6723 4.89271,3.0405 5.47146,3.0405 1.71086,0 10.08738,-8.5164 10.08738,-10.2558 0,-2.2481 -6.34403,-7.2569 -13.97897,-11.0367 -6.05269,-2.9965 -7.1712,-3.2074 -17,-3.2067 -9.31972,7e-4 -11.17393,0.3067 -16.2391,2.6801 C 192.04069,1304.0767 183,1319.5609 183,1337.9014 c 0,21.7541 11.35764,38.0822 29.54985,42.4817 7.68478,1.8585 9.54038,1.8695 17.86259,0.1065 z m 83.83328,0.035 c 8.84894,-1.8753 18.39503,-6.5135 22.75428,-11.0558 l 3.5,-3.647 -5.31975,-4.9165 c -5.62195,-5.1958 -8.06512,-5.968 -10.30781,-3.2581 -0.75484,0.9121 -4.07244,2.9367 -7.37244,4.4992 -7.28754,3.4504 -14.72254,3.7948 -20.28984,0.9397 -8.66211,-4.4422 -12.58649,-12.4297 -12.63287,-25.7124 -0.0286,-8.185 0.27326,-9.7117 2.95798,-14.9613 1.99231,-3.8957 4.43231,-6.8599 7.31341,-8.8849 3.79026,-2.6639 5.14563,-3.0339 10.98746,-2.9997 5.19798,0.03 7.77755,0.6182 11.72667,2.672 2.78455,1.4481 5.65215,3.3431 6.37245,4.211 0.7203,0.8679 2.05895,1.578 2.97478,1.578 2.33592,0 11.49036,-9.5142 10.82437,-11.2497 -1.04986,-2.7359 -14.17372,-10.6789 -20.19451,-12.2224 -20.77201,-5.3251 -39.8665,4.0624 -47.74312,23.4721 -1.92744,4.7496 -2.23195,7.3418 -2.23195,19 0,11.7855 0.29521,14.2421 2.32448,19.3437 3.45831,8.694 9.508,15.5442 17.16174,19.4325 10.05015,5.1058 16.58124,6.0087 27.19467,3.7596 z m -198.8565,-9.0582 c 1.71093,-4.4123 3.47484,-8.5748 3.9198,-9.25 1.18305,-1.7952 32.02608,-1.7337 33.52035,0.067 0.59084,0.7119 2.38991,4.8744 3.99794,9.25 l 2.92368,7.9556 9.1245,0.2875 c 6.33594,0.1997 9.12451,-0.061 9.12451,-0.8534 0,-1.6252 -31.93264,-81.148 -33.19696,-82.6714 -0.67013,-0.8075 -3.69941,-1.2627 -8.40243,-1.2627 -6.53498,0 -7.51443,0.2507 -8.78971,2.25 -2.06922,3.244 -32.610901,79.3167 -32.610901,81.2267 0,1.367 1.26365,1.5589 8.639221,1.3122 l 8.63922,-0.2889 3.11078,-8.0224 z m 11.07928,-26.5286 c -0.72303,-1.1699 7.19,-23.6928 9.052,-25.7647 1.32788,-1.4777 1.03507,-2.0691 7.00653,14.1517 1.99154,5.4097 3.3768,10.4722 3.07836,11.25 -0.66412,1.7306 -18.08738,2.0612 -19.13689,0.363 z m 244.75477,20.301 0.27673,-14.75 8.38102,0 8.38101,0 9.13254,14.5 9.13254,14.5 8.40285,0.2931 c 4.62158,0.1613 8.99856,0.065 9.72665,-0.2148 0.9247,-0.3549 -1.45576,-5.0723 -7.89606,-15.648 l -9.21985,-15.14 2.18498,-1.6451 c 1.20174,-0.9049 4.28314,-2.9525 6.84755,-4.5504 6.20292,-3.8649 9.40324,-10.4847 9.417,-19.4788 0.0123,-8.0312 -1.46872,-13.0276 -5.20528,-17.5607 -7.29726,-8.8529 -15.68339,-10.7459 -45.78495,-10.3351 l -20.5,0.2798 -0.26143,40.999 c -0.14378,22.5495 -0.0454,41.562 0.21862,42.25 0.32891,0.8572 3.00015,1.251 8.48469,1.251 l 8.00465,0 0.27674,-14.75 z m 0.4434,-31.9167 c -1.21628,-1.2162 -0.74593,-19.854 0.53333,-21.1333 0.8109,-0.8109 5.43145,-1.1995 14.25,-1.1984 15.90486,0 19.32687,1.2144 21.33591,7.56 1.04789,3.3098 1.04789,4.7906 0,8 -2.04474,6.2625 -5.49262,7.435 -21.86924,7.4368 -7.47084,9e-4 -13.88334,-0.2984 -14.25,-0.6651 z m 130.83333,38.6666 0,-7.5 -22.45314,-0.2697 c -16.4317,-0.1973 -22.66274,-0.5996 -23.23469,-1.5 -1.01522,-1.5982 -1.01738,-16.8591 -0.003,-18.4564 0.55662,-0.8761 5.90365,-1.3043 18.73469,-1.5 l 17.95614,-0.2739 0,-7.5 0,-7.5 -17.4269,-0.2744 c -10.78279,-0.1697 -17.93135,-0.693 -18.75,-1.3724 -1.78162,-1.4786 -1.77826,-12.2306 0.004,-13.7099 0.84854,-0.7043 8.8751,-1.1994 22.25,-1.3725 l 20.9229,-0.2708 0,-7.5 0,-7.5 -29.37909,-0.2653 c -20.84241,-0.1882 -29.77743,0.065 -30.75,0.8724 -1.12013,0.9297 -1.37091,8.5849 -1.37091,41.8487 0,22.391 0.3063,41.0172 0.68066,41.3915 0.37436,0.3744 14.66186,0.5619 31.75,0.4167 l 31.06934,-0.264 0,-7.5 z m 60.73191,4.8225 c 11.84839,-4.5077 19.92186,-12.4012 24.00889,-23.4737 2.7798,-7.5311 3.03821,-23.107 0.52008,-31.3488 -3.68838,-12.072 -11.69289,-20.1888 -23.76088,-24.0944 -5.30069,-1.7154 -9.95572,-2.2033 -25.22927,-2.6442 -14.26712,-0.4119 -19.09158,-0.24 -20.25,0.7214 -1.3154,1.0917 -1.52073,6.7589 -1.52073,41.973 0,22.391 0.3375,41.0498 0.75,41.4641 0.4125,0.4143 9.3,0.5756 19.75,0.3585 17.43441,-0.3623 19.5547,-0.6058 25.73191,-2.9559 z m -27.78127,-14.0905 c -0.26763,-0.6975 -0.366,-12.51 -0.21862,-26.25 l 0.26798,-24.982 7.33733,-0.2956 c 19.90563,-0.8018 30.30489,9.5874 28.9234,28.8957 -0.72593,10.1457 -4.58192,16.4133 -12.70449,20.6499 -5.59471,2.9181 -7.09324,3.25 -14.675,3.25 -5.89677,0 -8.5908,-0.3825 -8.9306,-1.268 z m 89.31021,-24.982 -0.26085,-42.25 -8,0 -8,0 -0.26143,40.999 c -0.14378,22.5495 -0.0454,41.562 0.21862,42.25 0.32917,0.8578 3.00765,1.251 8.52228,1.251 l 8.04224,0 -0.26086,-42.25 z m 59.23915,7.75 0.5,-34 12.5,-0.5 12.5,-0.5 0.2921,-6.5926 c 0.21014,-4.7427 -0.1039,-6.9213 -1.11913,-7.7638 -1.02995,-0.8548 -10.29491,-1.1 -34.2921,-0.9074 l -32.88087,0.2638 -0.2915,7.7189 -0.29151,7.7189 12.29151,0.2811 12.2915,0.2811 0.25232,33 c 0.13878,18.15 0.46919,33.5808 0.73424,34.2907 0.35281,0.9449 2.69623,1.2128 8.74767,1 l 8.26577,-0.2907 0.5,-34 z m 101.5,26.5 0,-7.5 -22.45314,-0.2697 c -16.4317,-0.1973 -22.66274,-0.5996 -23.23469,-1.5 -0.92174,-1.451 -1.08461,-15.8568 -0.20518,-18.1485 0.5205,-1.3564 3.04956,-1.584 17.75,-1.5971 9.42865,-0.01 17.72772,-0.3862 18.44236,-0.8395 0.91235,-0.5787 1.21019,-2.8825 1,-7.7347 l -0.29935,-6.9105 -17.4269,-0.2744 c -10.78279,-0.1697 -17.93135,-0.693 -18.75,-1.3724 -1.78162,-1.4786 -1.77826,-12.2306 0.004,-13.7099 0.84854,-0.7043 8.8751,-1.1994 22.25,-1.3725 l 20.9229,-0.2708 0,-7.5 0,-7.5 -30.5,0 -30.5,0 -0.26143,40.999 c -0.14378,22.5495 -0.0429,41.5684 0.2241,42.2643 0.38025,0.9909 7.26706,1.208 31.76143,1.001 l 31.2759,-0.2643 0,-7.5 z m 54.97731,6.4639 c 9.29249,-2.4204 14.1065,-4.9571 20.01865,-10.5485 9.80743,-9.2755 13.74087,-22.1819 11.6026,-38.0704 -2.31201,-17.1796 -10.78386,-27.6787 -26.09856,-32.3439 -7.34693,-2.238 -42.17941,-3.427 -44.47927,-1.5183 -1.3154,1.0917 -1.52073,6.7589 -1.52073,41.973 0,22.391 0.3,41.0109 0.66667,41.3775 1.41159,1.4116 33.766,0.705 39.81064,-0.8694 z m -22.24391,-40.7139 0.2666,-26.25 7.33733,-0.2956 c 17.94736,-0.723 27.5288,6.8468 28.86676,22.806 1.11391,13.2866 -3.09553,22.0303 -12.98518,26.9722 -5.35295,2.6749 -7.04369,3.0174 -14.89524,3.0174 l -8.85688,0 0.26661,-26.25 z M 144.60699,1182.4069 C 144.27314,1181.5369 144,1124.667 144,1056.0294 c 0,-106.67294 0.20652,-124.96714 1.42214,-125.97604 1.07204,-0.8897 17.99677,-1.0863 68.75,-0.7984 73.08919,0.4146 70.88532,0.2584 89.0642,6.3125 15.67265,5.2195 30.55602,17.9086 37.19479,31.7112 3.67515,7.6409 6.58236,20.99377 6.55151,30.09107 -0.0619,18.25367 -9.59676,36.53737 -24.82042,47.59477 -3.38922,2.4617 -6.16222,4.7466 -6.16222,5.0775 0,0.3309 4.1625,2.6841 9.25,5.2294 17.13971,8.5749 25.20478,17.0886 30.1489,31.8259 3.19482,9.523 4.58412,18.2732 4.59355,28.9313 0.0138,15.5594 -5.04217,28.6641 -15.28232,39.6108 -13.53954,14.4738 -31.64041,22.675 -59.22058,26.8319 -8.1121,1.2226 -22.2326,1.5067 -75.13256,1.5115 -58.48289,0.01 -65.20507,-0.1558 -65.75,-1.5759 z M 287.22128,1131.202 C 297.93298,1125.9263 305,1115.9041 305,1105.9887 c 0,-8.9065 -6.32235,-18.573 -15.06475,-23.033 -8.44864,-4.3102 -15.17055,-4.9312 -53.57826,-4.9496 -32.0455,-0.015 -36.21183,0.1619 -36.75,1.5644 -0.86171,2.2456 -0.75691,53.935 0.11112,54.803 0.39495,0.3949 18.74322,0.5824 40.77392,0.4166 l 40.05581,-0.3014 6.67344,-3.2867 z m -10.65307,-101.8909 c 12.2381,-6.5506 17.25932,-20.9176 11.84205,-33.88287 -1.99111,-4.7654 -7.9355,-11.13557 -12.84205,-13.76187 -3.89656,-2.0857 -5.53755,-2.1987 -38.89329,-2.6776 -19.1538,-0.275 -35.4663,-0.1402 -36.25,0.2997 -1.17237,0.6579 -1.42492,5.1188 -1.42492,25.16814 0,13.4027 0.28289,25.1057 0.62864,26.0067 0.56935,1.4837 4.03522,1.6093 36.75,1.3318 34.88692,-0.2959 36.26039,-0.3808 40.18957,-2.484 z m 105.91462,153.4835 c -0.2735,-0.7183 -0.38153,-58.0059 -0.24005,-127.3059 L 382.5,929.48876 l 62,-0.2944 c 37.92896,-0.1801 65.49418,0.104 71,0.7318 28.34254,3.2317 49.02538,14.6242 60.33448,33.2335 7.09071,11.6678 10.25752,34.03017 6.77324,47.82904 -3.41029,13.5059 -11.89786,25.9042 -23.62807,34.5149 -2.73881,2.0105 -4.97965,4.0474 -4.97965,4.5264 0,0.479 4.4293,3.1461 9.84288,5.9268 21.25361,10.9173 29.86206,23.9191 33.14747,50.0646 0.875,6.9633 0.90691,11.4963 0.12065,17.1387 -4.21107,30.2195 -25.31709,48.9842 -65.32919,58.0822 -8.86658,2.0161 -12.40256,2.1272 -79.04175,2.4843 -56.74412,0.3041 -69.85273,0.1302 -70.25723,-0.932 z m 142.91242,-52.1554 c 11.21156,-5.5429 16.38155,-13.2579 16.5189,-24.6505 0.12325,-10.2229 -6.41594,-19.7143 -16.58584,-24.0736 -8.09616,-3.4704 -15.66401,-4.0073 -52.32831,-3.7122 l -35.5,0.2858 -0.26565,28.2927 -0.26564,28.2926 40.32018,-0.2926 40.32019,-0.2927 7.78617,-3.8495 z m -12.22668,-100.8155 c 13.39229,-6.0779 18.61711,-23.2715 11.20836,-36.88377 -3.12182,-5.7358 -6.68904,-8.87467 -13.5195,-11.89607 -4.23284,-1.8724 -6.74113,-2.0083 -37.94494,-2.0553 -18.37687,-0.028 -33.97499,-0.039 -34.66249,-0.025 -0.96709,0.02 -1.25,5.8721 -1.25,25.85854 0,14.2084 0.32546,26.1588 0.72325,26.5566 0.39779,0.3978 16.71029,0.5853 36.25,0.4167 30.56579,-0.2638 36.03903,-0.5391 39.19532,-1.9716 z m 106.4981,153.4983 c -0.83286,-0.8328 -0.89183,-250.58294 -0.0597,-252.75144 0.54457,-1.4192 7.0486,-1.5815 63.25,-1.579 39.5345,0 65.96304,0.4097 71.64301,1.1057 34.49333,4.2271 57.76143,21.737 65.08468,48.9781 2.38854,8.88487 2.40735,25.50184 0.0378,33.36104 -3.98247,13.2087 -10.47491,22.6991 -21.62674,31.6133 -3.57264,2.8558 -6.62943,5.5365 -6.79287,5.9572 -0.16344,0.4206 3.47017,2.5883 8.0747,4.817 20.61697,9.9792 29.18721,20.9099 33.67995,42.9562 5.18283,25.4325 0.23812,44.1417 -15.92848,60.2682 -13.0785,13.046 -33.9717,21.7174 -60.00277,24.9033 -9.31649,1.1402 -136.24746,1.4825 -137.35956,0.3704 z m 140.41268,-51.0913 c 14.8928,-6.0272 22.60899,-20.9233 17.96749,-34.6863 -1.80685,-5.3577 -9.09357,-12.8993 -14.86019,-15.3801 -8.62882,-3.712 -15.99623,-4.2607 -53.18665,-3.9614 l -35.5,0.2858 -0.26678,26.9851 c -0.14672,14.8418 -0.0409,27.5737 0.23517,28.2931 0.40441,1.0539 8.22774,1.2511 40.26677,1.0149 38.61652,-0.2846 39.92596,-0.3583 45.34419,-2.5511 z m -12.13801,-101.8172 c 7.07587,-2.1013 14.12533,-9.0196 15.99501,-15.6975 1.74316,-6.2259 0.92544,-16.11767 -1.769,-21.39927 -1.1541,-2.2622 -3.97721,-5.7213 -6.27357,-7.6869 -7.53279,-6.44777 -9.40047,-6.69997 -47.4426,-6.40467 l -33.95118,0.2636 -0.26798,24.98194 c -0.14738,13.74 -0.049,25.5525 0.21862,26.25 0.79438,2.0701 66.409,1.7958 73.4907,-0.3072 z M 841.25,1182.4978 c -3.01711,-1.3113 -4.11126,-3.3145 -2.62322,-4.8026 0.34474,-0.3447 1.89739,0.03 3.45034,0.8334 3.93224,2.0334 7.28572,1.8216 9.47585,-0.5984 2.51084,-2.7745 1.19393,-4.7633 -5.25848,-7.9415 -7.27528,-3.5835 -8.29449,-4.7016 -8.29449,-9.0994 0,-2.9102 0.55124,-4.2021 2.25,-5.2734 3.75512,-2.3681 6.45904,-2.7826 10.70083,-1.6404 3.08344,0.8302 4.04917,1.5859 4.04917,3.1684 0,1.702 -0.40721,1.9476 -2.25,1.3572 -5.07389,-1.6257 -8.36933,-1.676 -9.63817,-0.1471 -2.21896,2.6736 -0.80448,5.0416 4.56056,7.6347 6.65534,3.2168 9.32761,5.7152 9.32761,8.7207 0,3.7136 -1.83302,6.3116 -5.54837,7.864 -4.17663,1.7451 -6.04463,1.7312 -10.20163,-0.076 z m 20.41667,-0.1758 c -1.04035,-1.0403 -0.75206,-25.6513 0.32018,-27.3333 1.7484,-2.7427 4.36602,0.3459 7.93171,9.3589 1.8802,4.7526 3.9052,8.6402 4.5,8.639 0.59479,0 2.67397,-3.9006 4.6204,-8.6655 3.70823,-9.0779 6.23921,-12.0341 7.99002,-9.3324 0.53794,0.8301 0.86017,7.3003 0.72154,14.4877 -0.22101,11.4575 -0.45669,13.0272 -2.00052,13.3233 -1.52733,0.2929 -1.75195,-0.5325 -1.76531,-6.4877 -0.0221,-9.8303 -1.26247,-11.0134 -4.31358,-4.1143 -1.36043,3.0762 -2.77329,6.5376 -3.13969,7.692 -1.22403,3.8566 -3.27237,2.1634 -6.23126,-5.151 -1.61307,-3.9875 -3.353,-7.25 -3.86651,-7.25 -0.51351,0 -1.06508,3.4875 -1.22571,7.75 -0.20783,5.5146 -0.66451,7.75 -1.58334,7.75 -0.7102,0 -1.59127,-0.3 -1.95793,-0.6667 z M 395.13741,884.23876 c -0.87321,-1.6379 -7.71192,-24.5419 -15.89947,-53.25 -1.96075,-6.875 -3.99651,-13.0625 -4.52392,-13.75 -0.74727,-0.9741 -13.51251,-1.25 -57.83646,-1.25 -53.9953,0 -56.87756,-0.091 -56.87756,-1.7908 0,-1.8867 12.30484,-44.0968 13.98081,-47.9592 l 0.97631,-2.25 214.899,0 c 170.70095,0 215.11169,0.2571 215.93319,1.25 1.44741,1.7494 15.24592,48.884 14.61127,49.9108 -0.28524,0.4616 -25.80456,0.8461 -56.7096,0.8545 -30.90504,0.01 -56.70056,0.3459 -57.32338,0.75 -0.62282,0.4041 -4.80986,13.3347 -9.30454,28.7347 -4.49469,15.4 -9.0843,30.8125 -10.19914,34.25 l -2.02698,6.25 -94.38329,0 c -88.86676,0 -94.43781,-0.1023 -95.31624,-1.75 z m 88.51217,-152.28322 -6.64869,-5.03318 1.60319,-3.71682 c 4.57474,-10.60603 3.94815,-17.30069 -2.40749,-25.7221 -3.74512,-4.9624 -10.72403,-10.17849 -94.08023,-70.31635 -31.57385,-22.77916 -37.85393,-29.49687 -46.69727,-49.95139 -6.78776,-15.69999 -7.81544,-21.4419 -7.82617,-43.72697 -0.009,-18.9917 0.12859,-20.44768 2.73198,-28.87986 1.50789,-4.88393 4.3231,-12.08393 6.25604,-16 3.535,-7.16181 59.56259,-85.08528 62.48365,-86.9026 1.18773,-0.73894 3.17487,0.18501 8.25,3.83597 3.67698,2.64515 6.68054,5.51522 6.67459,6.37793 -0.006,0.86271 -0.68096,3.77758 -1.5,6.47749 -3.14755,10.37559 -1.11494,18.89499 6.14161,25.7418 2.12807,2.0079 28.16921,21.28888 57.86921,42.84663 35.42762,25.71515 56.68785,41.82816 61.81505,46.84928 18.70941,18.32233 28.07945,40.50897 28.14956,66.65336 0.0362,13.50268 -1.38477,22.09888 -5.70299,34.5 -5.80602,16.67379 -6.49966,17.74487 -55.26162,85.3321 -6.83858,9.47872 -12.68856,16.64033 -13.60087,16.65034 -0.88048,0.01 -4.59278,-2.24737 -8.24955,-5.01563 z M 593.17569,587.8444 C 590.32906,585.67371 588,583.23423 588,582.42334 c 0,-0.8109 1.06861,-3.16714 2.37469,-5.2361 6.69738,-10.60934 10.15271,-26.81397 9.34899,-43.84444 -0.84762,-17.96086 -5.60182,-32.02597 -14.90008,-44.08137 -4.6422,-6.01871 -4.58555,-5.97563 -91.8236,-69.82042 -69.67031,-50.98791 -77.24719,-57.25258 -87.66504,-72.48267 -10.74624,-15.71016 -19.6483,-37.14684 -23.7653,-57.22826 -5.1505,-25.12246 -3.59367,-54.50443 4.10689,-77.50874 5.4392,-16.24884 9.0635,-22.66944 25.81512,-45.73261 5.59279,-7.7 25.12847,-34.7 43.41262,-60 18.28415,-25.300005 33.9078,-46.149775 34.71922,-46.332845 1.56694,-0.35351 12.37649,7.29868 12.37649,8.76145 0,0.4751 -1.60681,4.2473 -3.57069,8.38267 -6.70262,14.113815 -5.53181,28.602985 3.41246,42.230255 5.26769,8.02571 10.99685,13.24319 28.15823,25.64336 18.3621,13.26777 67.43023,48.84596 112,81.20866 36.02319,26.15692 48.12943,36.52406 58.57242,50.1583 12.57867,16.42257 22.41624,39.62738 25.97504,61.2698 1.33503,8.11881 1.5825,14.09456 1.15954,28 -0.60067,19.74768 -1.78919,26.56184 -7.83448,44.91738 -6.52513,19.8125 -12.1152,29.75387 -33.88498,60.26097 -10.80671,15.144 -55.27799,77.66619 -73.40042,103.19367 -6.51812,9.18151 -12.38767,16.89955 -13.04344,17.15119 -0.65576,0.25165 -3.52136,-1.31849 -6.36799,-3.48919 z"
     id="path5248"
     inkscape:connector-curvature="0" />
</svg>
