<?xml version="1.0" encoding="UTF-8" standalone="no"?>
<!-- Created with Inkscape (http://www.inkscape.org/) -->

<svg
   xmlns:dc="http://purl.org/dc/elements/1.1/"
   xmlns:cc="http://creativecommons.org/ns#"
   xmlns:rdf="http://www.w3.org/1999/02/22-rdf-syntax-ns#"
   xmlns:svg="http://www.w3.org/2000/svg"
   xmlns="http://www.w3.org/2000/svg"
   xmlns:sodipodi="http://sodipodi.sourceforge.net/DTD/sodipodi-0.dtd"
   xmlns:inkscape="http://www.inkscape.org/namespaces/inkscape"
   id="svg4146"
   version="1.1"
   inkscape:version="0.91 r13725"
   width="210.16637"
   height="205.08455"
   viewBox="0 0 210.16637 205.08455"
   sodipodi:docname="blogger.svg">
  <metadata
     id="metadata4152">
    <rdf:RDF>
      <cc:Work
         rdf:about="">
        <dc:format>image/svg+xml</dc:format>
        <dc:type
           rdf:resource="http://purl.org/dc/dcmitype/StillImage" />
        <dc:title></dc:title>
      </cc:Work>
    </rdf:RDF>
  </metadata>
  <defs
     id="defs4150" />
  <sodipodi:namedview
     pagecolor="#ffffff"
     bordercolor="#666666"
     borderopacity="1"
     objecttolerance="10"
     gridtolerance="10"
     guidetolerance="10"
     inkscape:pageopacity="0"
     inkscape:pageshadow="2"
     inkscape:window-width="1920"
     inkscape:window-height="1017"
     id="namedview4148"
     showgrid="false"
     fit-margin-top="0"
     fit-margin-left="0"
     fit-margin-right="0"
     fit-margin-bottom="0"
     inkscape:zoom="3.752443"
     inkscape:cx="56.441706"
     inkscape:cy="100.93183"
     inkscape:window-x="-8"
     inkscape:window-y="-8"
     inkscape:window-maximized="1"
     inkscape:current-layer="svg4146" />
  <path
     style="fill:#0C1A1E"
     d="m 46.166365,203.56042 c -10.97368,-2.882 -19.93572,-8.16825 -28.53336,-16.83034 -8.69506,-8.76024 -13.2633,-16.50931 -15.94873,-27.05368 -2.2457,-8.81778 -2.2457,-105.262021 0,-114.079801 2.68543,-10.544372 7.25367,-18.293442 15.94873,-27.053682 8.73951,-8.8050303 17.68565,-14.0169903 28.99346,-16.8913903 8.65165,-2.19920998 70.403375,-2.20318998 79.079805,-0.005 8.12005,2.05714 20.96404,8.5541803 26.65203,13.4817403 10.88819,9.43254 18.04255,25.016048 19.83249,43.198852 0.55818,5.67021 1.4913,11.24578 2.07359,12.39015 2.14901,4.22342 5.979,5.41932 17.35594,5.41932 11.26474,0 15.51174,1.19886 17.51641,4.94461 0.6505,1.21547 1.02964,14.94285 1.02964,37.279551 0,38.97122 -0.32391,41.76508 -6.23455,53.77584 -4.66444,9.47841 -16.94908,21.56253 -26.76545,26.32855 -13.80405,6.70212 -13.5476,6.67874 -72.4601,6.60564 -42.873115,-0.0532 -54.094155,-0.34269 -58.539905,-1.51027 z M 146.53059,151.75768 c 9.43489,-3.94215 10.36851,-16.80356 1.59595,-21.98564 -2.44094,-1.4419 -7.58651,-1.63554 -43.46017,-1.63554 -35.873665,0 -41.019235,0.19364 -43.460175,1.63554 -8.66267,5.11717 -7.86009,17.92193 1.37536,21.94305 4.56053,1.98566 79.207985,2.02353 83.949035,0.0426 z m -35.7213,-76.256021 c 4.11324,-1.95186 6.35708,-5.86733 6.35708,-11.09299 0,-4.47748 -1.97558,-7.69106 -6.01104,-9.77788 -4.15188,-2.14702 -45.752835,-2.18488 -49.890125,-0.0454 -8.26488,4.27393 -8.05535,16.85147 0.34982,20.99965 4.64989,2.29485 44.324225,2.2276 49.194265,-0.0834 z"
     id="path4696"
     inkscape:connector-curvature="0" />
</svg>
